<svg id="组_20" data-name="组 20" xmlns="http://www.w3.org/2000/svg" viewBox="0 0 120 120"><defs><style>.cls-1{fill:#160201;}.cls-2{fill:#d3956e;}.cls-3{fill:#ac885c;}.cls-4{fill:#e0ac70;}.cls-5{fill:#f7e6d3;}.cls-6{fill:#fff;}.cls-7{fill:#1c0304;}.cls-8{fill:#410727;}.cls-9{fill:#cc926d;}</style></defs><title>home</title><path class="cls-1" d="M76.32,39A31.17,31.17,0,0,0,83,32.87,27,27,0,0,0,89.5,15.18c0-.74-.54-2.2-1.69-2.2-.64,0-1.24.47-1.82,1.42l0,0v0c-.17.37-.34.79-.51,1.23-1.23,3.14-3.29,8.41-15.25,15.05l-.6.34,6.26,8.23Z"/><path class="cls-2" d="M40.34,34.61s-4.75-5.67-21.21-4.31c-1.52-.5-2.39,14.72,16,21.11C42,47,40.34,34.61,40.34,34.61Z"/><path class="cls-3" d="M41.64,38.94s-14.92-10.3-23.05-8c.12-.4.25-.6.4-.63,5.16-1,20.55-1,28.59,7.34C45.62,44.43,41.64,38.94,41.64,38.94Z"/><path class="cls-2" d="M79.66,34.61s4.75-5.67,21.21-4.31c1.52-.5,2.39,14.72-16,21.11C78,47,79.66,34.61,79.66,34.61Z"/><path class="cls-3" d="M78.36,38.94s14.92-10.3,23.05-8c-.12-.4-.25-.6-.4-.63-5.16-1-20.55-1-28.59,7.34C74.38,44.43,78.36,38.94,78.36,38.94Z"/><path class="cls-1" d="M43.68,39A31.16,31.16,0,0,1,37,32.87,27,27,0,0,1,30.5,15.18c0-.74.54-2.2,1.69-2.2.64,0,1.24.47,1.82,1.42l0,0v0c.17.37.34.79.51,1.23,1.23,3.14,3.29,8.41,15.25,15.05l.6.34-6.26,8.23Z"/><path class="cls-4" d="M94.57,79,90.18,51.82c-.69-10.43-4.6-18.09-12.52-21.41-5.32-2.38-15.82-5.56-17-5.56-3.61-.15-12.58,4.37-16.6,5.74-11.6,4.1-12.25,11.13-14.29,22.6L25.43,79c-1,15.09,7.77,28,19.65,28H74.92C86.8,107,95.57,94.12,94.57,79Z"/><path class="cls-5" d="M94.57,82.46c-2.58-20.59-27-1.58-44-3.13C33.74,77.79,22.34,76,25.92,89.95,28.4,99.63,35.53,107,45.08,107H74.92C86.8,107,95.57,95.7,94.57,82.46Z"/><path class="cls-1" d="M43.37,42.76c-.51,0-.42-.34-.22-.44a7.37,7.37,0,0,1,3.34-.88,5,5,0,0,1,3.19,1s.31.21.11.43c0,0-.18.31-2-.22a7.61,7.61,0,0,0-4.42.09Z"/><path class="cls-1" d="M73.84,42.41c.51,0,.42-.34.22-.44a7.37,7.37,0,0,0-3.34-.88,5,5,0,0,0-3.19,1s-.31.21-.11.43c0,0,.18.31,2-.22a7.62,7.62,0,0,1,4.42.09Z"/><circle class="cls-2" cx="38.59" cy="89.91" r="4.92"/><circle class="cls-2" cx="81.32" cy="89.91" r="4.92"/><path class="cls-2" d="M48.61,21.12S55,19.31,57.82,25c0-1.94,3.29-5.75,7.12-5.61-1.79,1.7-2.42,3.38-.66,5.14,0,0,2.17-3.33,4.69-2.38.59.22,2.21,1.9.07,3.46,4.17-.44,5.82,3.37,4.07,6.86A5,5,0,0,0,69,29.79s2.85,7-5.7,7.53c.92-.92,4-6.31-1.22-6.58-.93,3.7-2.11,8.22-10,6,5.83-2.72,3.86-7,3.86-7s-11.2,11.39-15.52-2.23C46.41,30.68,55.62,28.38,48.61,21.12Z"/><circle class="cls-6" cx="47.96" cy="59.84" r="8.47"/><ellipse class="cls-7" cx="47.96" cy="58.94" rx="3.14" ry="3.1" transform="translate(-20 92.93) rotate(-77.44)"/><circle class="cls-6" cx="47.85" cy="57.31" r="1.16" transform="translate(-14.76 97.97) rotate(-83.14)"/><circle class="cls-6" cx="72.04" cy="59.84" r="8.47"/><ellipse class="cls-7" cx="72.04" cy="58.94" rx="3.14" ry="3.1" transform="translate(-1.15 116.44) rotate(-77.44)"/><circle class="cls-6" cx="71.94" cy="57.31" r="1.16" transform="translate(6.44 121.88) rotate(-83.14)"/><path class="cls-8" d="M41.62,77A16.51,16.51,0,1,1,58.13,60.45,16.53,16.53,0,0,1,41.62,77Zm0-29.57A13.06,13.06,0,1,0,54.68,60.45,13.07,13.07,0,0,0,41.62,47.39Z"/><path class="cls-8" d="M78.38,77A16.51,16.51,0,1,1,94.89,60.45,16.53,16.53,0,0,1,78.38,77Zm0-29.57A13.06,13.06,0,1,0,91.44,60.45,13.07,13.07,0,0,0,78.38,47.39Z"/><path class="cls-8" d="M62.29,61.89a3,3,0,0,0-2.15-1.28,4,4,0,0,0-2.52,1.07l-2.43-2.45a7.34,7.34,0,0,1,5.1-2.06,6.38,6.38,0,0,1,4.63,2.5Z"/><path class="cls-9" d="M58.54,103.26c-8,0-12.06-3.86-12.25-4a.41.41,0,0,1,.57-.58c.06.05,5.2,5,15.28,3.56,7.54-1,11-5.3,11.06-5.35a.41.41,0,0,1,.64.51c-.15.19-3.73,4.56-11.59,5.65A27.12,27.12,0,0,1,58.54,103.26Z"/></svg>