<?xml version="1.0" encoding="utf-8"?>
<!-- Generator: Adobe Illustrator 21.0.0, SVG Export Plug-In . SVG Version: 6.00 Build 0)  -->
<svg version="1.1" id="图层_1" xmlns="http://www.w3.org/2000/svg" xmlns:xlink="http://www.w3.org/1999/xlink" x="0px" y="0px"
	 viewBox="0 0 31.2 39" style="enable-background:new 0 0 31.2 39;" xml:space="preserve">
<style type="text/css">
	.st0{fill:#333333;}
</style>
<g id="圆角矩形_18_拷贝_4">
	<path class="st0" d="M15.5,34.5c-0.8,0-1.6-0.2-2.4-0.6L5,29.3c-2.2-1.2-3-4-1.8-6.2L3.3,23l8.6-14.4c1.3-2.3,10.9-5,13.1-3.7l0,0
		c1.4,0.8,2.5,4.1,2.8,5.5c0.7,2.6,1.2,6.1,0.4,7.4l-8.5,14.4C18.7,33.7,17.2,34.5,15.5,34.5z M23.2,5.5c-3.1,0-9.6,2.1-10.5,3.6
		L4,23.6c-0.9,1.7-0.3,3.9,1.4,4.9l8.1,4.6c1.8,1,4.1,0.4,5.2-1.3l8.5-14.4c0.5-0.8,0.3-3.7-0.5-6.6c-0.7-2.5-1.6-4.5-2.4-4.9l0,0
		C24.2,5.6,23.7,5.5,23.2,5.5z M20.2,16.2c-0.6,0-1.2-0.2-1.8-0.5c-1.6-0.9-2.2-2.9-1.3-4.5l0.1-0.1c1-1.6,3.1-2.2,4.7-1.2
		c1.6,0.9,2.2,2.9,1.3,4.6l-0.1,0.1C22.6,15.6,21.4,16.2,20.2,16.2z M20.2,10.4c-0.9,0-1.7,0.4-2.2,1.2c-0.7,1.2-0.2,2.6,0.9,3.3
		c1.2,0.7,2.7,0.3,3.4-0.9c0.7-1.2,0.2-2.6-0.9-3.3l0,0C21.1,10.5,20.6,10.4,20.2,10.4z"/>
</g>
</svg>
