<svg id="图层_1" data-name="图层 1" xmlns="http://www.w3.org/2000/svg" viewBox="0 0 21.5 25.31"><defs><style>.cls-1{fill:none;isolation:isolate;}.cls-2{fill:#ff6242;}.cls-3{fill:#ffe500;}</style></defs><title>fire</title><path class="cls-1" transform="translate(-0.25 -0.84)"/><path class="cls-2" d="M17.59,6c.62,1.73.42,2.73-.35,3.47C13.72,7.29,9.52,5.7,8.84.84,1.64,6.39,12.39,14,7.19,16.1c-2.57,1-4.85-1.39-4.51-4.1A7.68,7.68,0,0,0,.25,17.49c0,4.79,4.81,8.67,10.75,8.67,13.59,0,12.48-18,6.59-20.11Zm0,0" transform="translate(-0.25 -0.84)"/><path class="cls-3" d="M15.85,16.79a6.71,6.71,0,0,1-6.3,4.49,3.47,3.47,0,0,0,3.18,2.08c3.9,0,6.59-4.15,3.12-6.57Zm0,0" transform="translate(-0.25 -0.84)"/></svg>