<?xml version="1.0" encoding="utf-8"?>
<!-- Generator: Adobe Illustrator 21.0.0, SVG Export Plug-In . SVG Version: 6.00 Build 0)  -->
<svg version="1.1" id="图层_1" xmlns="http://www.w3.org/2000/svg" xmlns:xlink="http://www.w3.org/1999/xlink" x="0px" y="0px"
	 viewBox="0 0 31.2 39" style="enable-background:new 0 0 31.2 39;" xml:space="preserve">
<g>
	<path d="M15.6,37l-0.5-0.2C3,32.2,1.6,26.2,1.6,22V6.2l1.6,0.1C10.9,6.5,14.4,3.1,14.5,3l1.1-1.2L16.7,3c0.1,0.1,3.3,3.3,10.5,3.3
		c0.3,0,0.6,0,0.9,0l1.6-0.1V22c0,4.2-1.4,10.2-13.5,14.8L15.6,37z M2.6,7.2V22c0,3.9,1.3,9.5,12.8,13.9l0.2,0.1l0.2-0.1
		c11.5-4.4,12.8-10,12.8-13.9V7.2l-0.5,0c-0.3,0-0.6,0-0.9,0c-7.6,0-11-3.4-11.2-3.6l-0.4-0.4l-0.4,0.4c-0.4,0.4-4,3.8-12.1,3.6
		L2.6,7.2z"/>
</g>
<path d="M21.7,19.3c-0.5,0.2-1,0.2-1.6,0.1c-0.7-0.1-1.3-0.4-1.7-0.9c-0.1-0.2-0.3-0.4-0.5-0.5c-0.4-0.2-0.6-0.5-0.9-0.9
	c-0.5-0.2-1.1-0.3-1.7-0.3c-1,0-1.1,0-1.1,0v-2c0-0.2,0.1-0.3,0.3-0.3H15v-1.1H9.1v1.1H10c0.1,0,0.2,0.1,0.3,0.3
	c0,0.2,0,10.5,0,10.5c0,0.1-0.1,0.3-0.2,0.3c0,0,0,0-0.1,0H9.4v0.8h0.1h5.1c0.2,0,0.3-0.1,0.4-0.3v-0.3c0-0.2-0.1-0.3-0.3-0.3
	c-0.2,0-0.6,0.1-0.6-0.3s0.1-0.6-0.3-0.6c-0.4,0-0.7,0-0.9,0v-0.3h0.3c0,0,1.1-0.2,2-2.3c0.1-0.2,0.3-0.2,0.4-0.2
	c0.1,0,0.1,0.1,0.2,0.2c0.1,0.2,0.2,0.4,0.3,0.6c0.1,0.2,0.4,0.3,0.6,0.3c0.2,0,0.4-0.1,0.6-0.3c0.4-0.6,0.8-1.2,1.4-1.7
	c0.3-0.1,0.1-0.2,0-0.3s-0.1-0.6,0.3-0.6c0.8,0.1,1.5,0,2.3-0.3c0.3-0.3,0.6-0.5,0.9-0.8C21.9,19.1,21.8,19.2,21.7,19.3z M18,19.7
	c-0.3,0.3-0.3,0.7-0.3,1c-0.3,0.3-0.6,0.7-0.9,1.1c-0.1-0.3-0.4-0.5-0.6-0.6c-0.2-0.1-0.4-0.1-0.5-0.1c-0.5,0-1,0.3-1.2,0.8
	c-0.5,1.2-1.1,1.6-1.2,1.7H12v2h-0.8c0-0.1,0-0.1,0-0.2c0-3.9,0-10.3,0-10.5l0-0.1c0,0-0.1-0.2-0.1-0.2h2.1c0,0.1-0.1,0.2-0.1,0.4
	l0,3.1l1.1-0.1c0,0,0,0,0,0c0,0,1,0,1,0c0.4,0,0.7,0,1.1,0.1c0.3,0.3,0.6,0.6,1,0.9l0.1,0.1l0,0.1l0.1,0.2
	C17.8,19.4,17.9,19.5,18,19.7C18.1,19.7,18.1,19.7,18,19.7z"/>
<path d="M16.2,13.5v1.1c0,0,0.7,0,0.9,0c0,0,0,0,0,0c0.1,0,0.2,0.1,0.2,0.3v1.7c0.2,0.5,0.6,1,1.1,1.1c0,0,0,0,0,0
	c0.3,0,0.4,0.3,0.4,0.5c0.7,1.1,2.4,0.6,2.4,0.6v-4c0.1-0.1,0.2-0.2,0.3-0.3h0.6v-1.1H16.2z M20.3,14.7V18c-0.2,0-0.4,0-0.5-0.1
	c0-0.2-0.1-0.4-0.2-0.5c-0.2-0.3-0.5-0.5-0.8-0.5l-0.1-0.1h0c-0.1-0.1-0.3-0.2-0.3-0.3v-1.5c0-0.1,0-0.3,0-0.4h2.1L20.3,14.7z"/>
<path d="M21.2,25.4v-4.8h-0.6c0,0-0.7,0-1.1,0c0,0-0.3,0.5-0.3,0.6c-0.5,0.9-1.1,1.7-1.7,2.5c0,0,0.1,0.1-0.2,0.1s0,1.7,0,1.7h-1.1
	v1.1h5.9v-0.9C21.8,25.6,21.5,25.5,21.2,25.4z M20.3,25.5h-1.9l0-0.3c0-0.3-0.1-0.6-0.1-0.9c0.1-0.1,0.1-0.2,0.2-0.2l0-0.1
	c0.6-0.8,1.2-1.6,1.7-2.4c0,0,0-0.1,0-0.1l0.1,0V25.5z"/>
</svg>
