<svg xmlns="http://www.w3.org/2000/svg" width="30" height="30" viewBox="0 0 30 30">
  <metadata><?xpacket begin="﻿" id="W5M0MpCehiHzreSzNTczkc9d"?>
<x:xmpmeta xmlns:x="adobe:ns:meta/" x:xmptk="Adobe XMP Core 5.6-c142 79.160924, 2017/07/13-01:06:39        ">
   <rdf:RDF xmlns:rdf="http://www.w3.org/1999/02/22-rdf-syntax-ns#">
      <rdf:Description rdf:about=""/>
   </rdf:RDF>
</x:xmpmeta>
                                                                                                    
                                                                                                    
                                                                                                    
                                                                                                    
                                                                                                    
                                                                                                    
                                                                                                    
                                                                                                    
                                                                                                    
                                                                                                    
                                                                                                    
                                                                                                    
                                                                                                    
                                                                                                    
                                                                                                    
                                                                                                    
                                                                                                    
                                                                                                    
                                                                                                    
                                                                                                    
                           
<?xpacket end="w"?></metadata>
<defs>
    <style>
      .cls-1 {
        fill: #fa4d30;
        fill-rule: evenodd;
      }
    </style>
  </defs>
  <path id="惠_" data-name="惠 " class="cls-1" d="M2899,703h25a2,2,0,0,1,2,2v25a2,2,0,0,1-2,2h-25a2,2,0,0,1-2-2V705A2,2,0,0,1,2899,703Zm13.71,13.949h3.39l-1.02.748a19.8,19.8,0,0,1,1.83.9c-1.41.022-2.82,0.044-4.2,0.044v-1.694Zm-6.91-1.1V714.4h5.26v1.453h-5.26Zm0-3.939h5.26v1.43h-5.26v-1.43Zm12.32,0v1.43h-5.41v-1.43h5.41Zm0,3.939h-5.41V714.4h5.41v1.453Zm-15.31,4.29c4-.044,10.18-0.154,16.06-0.286a11.034,11.034,0,0,1,1.45,1.232l1.12-.946a18.808,18.808,0,0,0-5.17-3.19h3.46V710.81h-7.02V709.4h8.56V708.06h-8.56v-1.321h-1.65v1.321h-8.32V709.4h8.32v1.408h-6.82v6.139h6.82v1.716c-3.19.022-6.12,0.044-8.34,0.022Zm11.9,2.487a16.559,16.559,0,0,0-3.72-2.4l-1.03.88a16.363,16.363,0,0,1,3.63,2.509Zm-11.09,3.5a16.6,16.6,0,0,0,2.05-4.29l-1.39-.551a13.666,13.666,0,0,1-2.07,4.071Zm6.45-1.012c-1.39,0-1.63-.088-1.63-0.66v-3.081h-1.61v3.1c0,1.606.66,2.024,3.15,2.024h4.97c1.98,0,2.49-.572,2.71-3.014a4.825,4.825,0,0,1-1.45-.572c-0.11,1.936-.31,2.2-1.37,2.2h-4.77Zm7.48-3.323a18.392,18.392,0,0,1,2.53,4.159l1.47-.528a15.615,15.615,0,0,0-2.62-4.115Z" transform="translate(-2896.5 -702.5)"/>
</svg>
