<?xml version="1.0" encoding="utf-8"?>
<!-- Generator: Adobe Illustrator 21.0.0, SVG Export Plug-In . SVG Version: 6.00 Build 0)  -->
<svg version="1.1" id="图层_1" xmlns="http://www.w3.org/2000/svg" xmlns:xlink="http://www.w3.org/1999/xlink" x="0px" y="0px"
	 viewBox="0 0 32 34" style="enable-background:new 0 0 32 34;" xml:space="preserve">
<g>
	<path d="M8.4,14L8.4,14c0.1,0.4,0.3,0.8,0.5,1.2l0,0C9,15.3,9,15.4,9.1,15.6l0,0l0,0l5.3,9.4c0.2,0.3,0.4,0.5,0.7,0.7
		c0.8,0.4,1.9,0.1,2.3-0.7l5.3-9.5l0,0l0.2-0.3c0,0,0,0,0,0v0l0,0c0.2-0.4,0.4-0.8,0.5-1.2l0,0v0v0c0.3-0.9,0.4-1.8,0.4-2.7
		c0-0.2,0-0.4,0-0.6C23.7,6.3,20,2.9,15.6,3s-7.8,3.8-7.7,8.2C7.9,12.2,8.1,13.1,8.4,14L8.4,14z M15.7,4l0.3,0
		c3.8,0,6.8,2.9,6.9,6.7c0,0.2,0,0.3,0,0.5c0,0.8-0.1,1.6-0.4,2.4l0,0.1c-0.1,0.3-0.2,0.5-0.3,0.8l-0.2,0.2l0,0.2l-0.1,0.2l-5.3,9.5
		c-0.1,0.2-0.4,0.4-0.6,0.4c-0.1,0-0.2,0-0.3-0.1c-0.1-0.1-0.2-0.2-0.3-0.3l-5.4-9.6l0,0c0-0.1-0.1-0.3-0.1-0.3l0-0.1
		c-0.1-0.2-0.3-0.6-0.4-0.9l-0.1-0.2l0,0c-0.2-0.7-0.3-1.5-0.3-2.2C8.8,7.4,11.8,4.1,15.7,4z"/>
	<path d="M29.9,28.6l-3.5-9c-0.3-0.7-1.6-1.2-3.1-1.2h-0.5L18,27.3c-0.2,0.4-0.5,0.7-0.9,0.9c-1.1,0.6-2.4,0.1-3-0.9l-4.9-8.9H8.5
		c-1.4,0-2.8,0.5-3,1.2l-3.3,9C1.7,29.9,2.9,31,5.1,31H27C29.1,31,30.4,29.9,29.9,28.6z M28.9,29.4C28.7,29.7,28,30,27,30H5.1
		c-1,0-1.7-0.3-2-0.7c-0.1-0.1-0.1-0.2,0-0.4l3.3-9c0.1-0.1,0.9-0.6,2.1-0.6h0.2l4.6,8.3c0.5,1,1.6,1.7,2.8,1.7c0.5,0,1-0.1,1.5-0.4
		c0.6-0.3,1-0.8,1.3-1.3l4.6-8.3c1.2,0,2,0.4,2.1,0.6l3.4,8.9C29,29.2,29,29.3,28.9,29.4z"/>
	<path d="M15.6,15.9l0.2,0c2.7,0,4.8-2.1,4.9-4.7l0-0.2c0-2.6-2.1-4.9-4.8-4.9l-0.2,0c-2.7,0-4.8,2.1-4.9,4.7
		C10.7,13.5,12.9,15.8,15.6,15.9z M15.9,7.1L15.9,7.1c2.1,0,3.8,1.8,3.8,3.9c0,0,0,0.1,0,0.1c-0.1,2.2-1.9,3.8-4.1,3.8
		c-2.2-0.1-3.8-1.9-3.8-4.1C11.9,8.7,13.7,7,15.9,7.1z"/>
</g>
</svg>
