<?xml version="1.0" encoding="utf-8"?>
<!-- Generator: Adobe Illustrator 21.0.0, SVG Export Plug-In . SVG Version: 6.00 Build 0)  -->
<svg version="1.1" id="图层_1" xmlns="http://www.w3.org/2000/svg" xmlns:xlink="http://www.w3.org/1999/xlink" x="0px" y="0px"
	 viewBox="0 0 35.2 33.9" style="enable-background:new 0 0 35.2 33.9;" xml:space="preserve">
<style type="text/css">
	.st0{fill:#333333;}
</style>
<g>
	<path class="st0" d="M10.1,4.3h3c0.2,0,0-0.8,0-1s0,0-0.2,0H9.5c-0.2,0-0.4,0.2-0.4,0.4C9.1,4.3,9.9,4.3,10.1,4.3z"/>
	<path class="st0" d="M7.1,6.3h6c0.2,0,0.2-0.3,0.2-0.6c0-0.2-0.2-0.4-0.4-0.4H7.2C7,5.3,6.8,5.5,6.8,5.7C6.7,5.9,6.9,6.2,7.1,6.3z"
		/>
	<path class="st0" d="M27.3,23.6L27.3,23.6c-0.9,0-1.7,0.8-1.7,1.7c0,0,0,0,0,0c0,1,0.8,1.7,1.7,1.7s1.7-0.8,1.7-1.7
		C29,24.4,28.2,23.6,27.3,23.6z M27.3,26.2L27.3,26.2c-0.5,0-0.8-0.4-0.9-0.9c0,0,0,0,0,0c0-0.5,0.4-0.9,0.9-0.8
		c0.5,0,0.9,0.4,0.9,0.9C28.1,25.9,27.7,26.2,27.3,26.2z"/>
	<path class="st0" d="M5.2,13.3h0.9c0.2,0,0.4-0.2,0.4-0.4c0-0.2-0.2-0.4-0.4-0.4H5.2c-0.2,0-0.4,0.2-0.4,0.4
		C4.8,13.1,5,13.3,5.2,13.3z"/>
	<path class="st0" d="M27,11h3.4c1.6,0,2.9-1.3,2.9-2.9c0-1.6-1.3-2.9-2.9-2.9H27c-1.6,0-2.9,1.3-2.9,2.9C24.1,9.7,25.4,11,27,11z
		 M27,6.1h3.4c1.1,0,2,0.9,2,2s-0.9,2-2,2H27c-1.1,0-2-0.9-2-2S25.9,6.1,27,6.1z"/>
	<path class="st0" d="M26.4,8.7H31c0,0,0,0,0,0c0.1,0,0.3-0.1,0.2-0.3V8.1c0,0,0,0,0,0c0-0.1-0.1-0.3-0.3-0.2h-4.6c0,0,0,0,0,0
		c-0.1,0-0.3,0.1-0.3,0.3v0.3c0,0,0,0,0,0C26.1,8.6,26.3,8.7,26.4,8.7z"/>
	<path class="st0" d="M33.2,20.8c-0.5,0-0.8,0.4-0.9,0.9c0,0,0,0,0,0c0,0.5,0.4,0.8,0.9,0.8c0,0,0,0,0,0c0.5,0,0.8-0.4,0.8-0.9
		c0,0,0,0,0,0C34.1,21.1,33.7,20.8,33.2,20.8z"/>
	<path class="st0" d="M28.3,17H30c0,0,0,0,0,0c0.2,0,0.4-0.2,0.4-0.4c0-0.2-0.2-0.4-0.4-0.4h-1.7c0,0-0.1,0-0.1,0
		c-0.2,0-0.4,0.2-0.4,0.5C27.8,16.9,28,17.1,28.3,17z"/>
	<path class="st0" d="M32.1,22.3v-8c-0.1-1.1-0.9-1.9-2-2h-3c-1,0-2.6-0.1-3,1l-1.4,5h-8.6c-0.5,0-1-0.5-1-1v-7c0-0.1,0-0.1,0-0.2
		c-0.1-1-1-1.9-2-1.8h-3c-1,0-1.9,1-2.3,2.5l-0.2,0.8h0.8l0.1-0.2C6.8,10,7.3,9.3,8.1,9.3h3c0.8,0,1,0.6,1,2v6
		c-0.6,0.6,0.6,1.7,1.2,2l0.8,0h4l0,0h4.3l-0.3,0.9c-0.6,1.6-0.3,3.2,0.5,3.8c0,0.1-0.1,0.2-0.1,0.3H11c0,0,0,0,0,0h-0.3
		c-0.5-2.1-2.4-3.7-4.7-3.7c-0.5,0-0.9,0.1-1.4,0.2c0-0.5,0.1-1,0.2-1.5l1.1-5l0,0H5l-1.3,5.3c-0.2,0.6-0.2,1.2-0.3,1.8
		c-1.4,0.8-2.3,2.3-2.3,4.1c0,2.7,2.1,4.9,4.8,4.9s4.9-2.1,4.9-4.8c0,0,0,0,0,0c0-0.1,0-0.2,0-0.3c0.1,0,0.2-0.1,0.3-0.1
		c0,0.1,0,0.2,0,0.3h0h11.4c0,0,0,0.1,0,0.1c0,0,0,0,0,0c0,2.7,2.2,4.9,4.9,4.8c2.7,0,4.9-2.2,4.8-4.9c0-0.7-0.1-1.3-0.4-1.8
		C32,23.1,32.1,22.7,32.1,22.3z M9.9,25.4c0,2.2-1.8,4-4.1,4c-2.2,0-4-1.8-4-4.1c0-1.3,0.6-2.3,1.5-3.1c0.3-0.3,0.7-0.5,1.1-0.6
		c0.5-0.2,1-0.3,1.5-0.3h0c1.8,0,3.4,1.3,3.8,3c0.1,0.3,0.1,0.5,0.1,0.8h0C9.9,25.2,9.9,25.3,9.9,25.4C9.9,25.4,9.9,25.4,9.9,25.4z
		 M24.1,19.3l0.9-4.8c0.4-0.8,1.2-1.3,2.1-1.2h3c0.8,0,1,0.1,1,1v8c0,0,0,0,0,0c-0.9-1.1-2.3-1.8-3.8-1.8c-1.7,0-3.2,0.9-4,2.2
		C23.1,21.9,23.7,20.6,24.1,19.3z M31.3,25.4c0,2.2-1.8,4-4.1,4h0c-2.2,0-4-1.8-4-4c0,0,0,0,0,0c0-0.5,0.1-1,0.3-1.5
		c0-0.1,0.1-0.2,0.1-0.3c0.7-1.3,2-2.3,3.6-2.2c1.5,0,2.7,0.8,3.4,2c0,0,0,0,0,0c0.2,0.4,0.4,0.8,0.5,1.3c0,0,0-0.1,0.1-0.1
		C31.3,24.9,31.3,25.1,31.3,25.4z"/>
	<path class="st0" d="M28.3,15.3H30c0.2,0,0.4-0.2,0.4-0.4c0-0.2-0.2-0.4-0.4-0.4h-1.7l0,0c-0.2,0-0.4,0.2-0.4,0.4
		S28,15.3,28.3,15.3z"/>
	<path class="st0" d="M30,17.9h-1.7c-0.2,0-0.4,0.2-0.4,0.4c0,0.2,0.2,0.4,0.4,0.4H30c0,0,0,0,0,0c0.2,0,0.4-0.2,0.4-0.4
		C30.4,18.1,30.2,17.9,30,17.9z"/>
	<polygon class="st0" points="33.2,20.8 33.2,20.8 33.2,20.8 	"/>
	<path class="st0" d="M6.1,23.3c-1.1,0-2,0.9-2,2s0.9,2,2,2h0c1.1,0,2-0.9,2-2C8.1,24.2,7.2,23.3,6.1,23.3z M6.1,26.3
		c-0.5,0-0.9-0.4-1-0.9c0-0.6,0.4-1.1,1-1.1h0c0.6,0,1,0.4,1,1C7.1,25.8,6.7,26.3,6.1,26.3z"/>
</g>
</svg>
