<?xml version="1.0" encoding="utf-8"?>
<!-- Generator: Adobe Illustrator 21.0.0, SVG Export Plug-In . SVG Version: 6.00 Build 0)  -->
<svg version="1.1" id="图层_1" xmlns="http://www.w3.org/2000/svg" xmlns:xlink="http://www.w3.org/1999/xlink" x="0px" y="0px"
	 viewBox="0 0 25 29" style="enable-background:new 0 0 25 29;" xml:space="preserve">
<style type="text/css">
	.st0{fill:#333333;}
</style>
<path class="st0" d="M22.5,0.5h-20c-1.1,0-2,0.9-2,2v24c0,1.1,0.9,2,2,2c0,0,9.9-8,10-8c0.7,0,10,8,10,8c1.1,0,2-0.9,2-2v-24
	C24.5,1.4,23.6,0.5,22.5,0.5z M23.5,26.5c0,0.4-0.3,0.8-0.7,0.9c-9.3-7.9-9.9-7.9-10.3-7.9c-0.4,0-0.4,0-10.3,8
	c-0.4-0.1-0.7-0.5-0.7-1v-24c0-0.5,0.5-1,1-1h20c0.5,0,1,0.5,1,1V26.5z"/>
<g>
	<path class="st0" d="M8,17.8l1.7-5.3L4.9,9.3l5.8-0.1l1.6-5.3l1.9,5.2L20.1,9l-4.6,3.4l1.9,5.2l-4.8-3.1L8,17.8z M8.1,10.3l2.8,1.8
		l-1,3.1l2.7-2l2.8,1.8L14.2,12l2.7-1.9l-3.3,0.1l-1.1-3.1l-1,3.1L8.1,10.3z"/>
</g>
</svg>
