<svg xmlns="http://www.w3.org/2000/svg" width="28" height="27" viewBox="0 0 28 27">
  <metadata><?xpacket begin="﻿" id="W5M0MpCehiHzreSzNTczkc9d"?>
<x:xmpmeta xmlns:x="adobe:ns:meta/" x:xmptk="Adobe XMP Core 5.6-c142 79.160924, 2017/07/13-01:06:39        ">
   <rdf:RDF xmlns:rdf="http://www.w3.org/1999/02/22-rdf-syntax-ns#">
      <rdf:Description rdf:about=""/>
   </rdf:RDF>
</x:xmpmeta>
                                                                                                    
                                                                                                    
                                                                                                    
                                                                                                    
                                                                                                    
                                                                                                    
                                                                                                    
                                                                                                    
                                                                                                    
                                                                                                    
                                                                                                    
                                                                                                    
                                                                                                    
                                                                                                    
                                                                                                    
                                                                                                    
                                                                                                    
                                                                                                    
                                                                                                    
                                                                                                    
                           
<?xpacket end="w"?></metadata>
<defs>
    <style>
      .cls-1 {
        fill: #f5f5f5;
        fill-rule: evenodd;
      }
    </style>
  </defs>
  <path id="星" class="cls-1" d="M4982.41,881.138l-2.46,7.721a1.06,1.06,0,0,1-1.01.748l-7.99-.016a1.087,1.087,0,0,0-.62,1.966l6.45,4.727a1.087,1.087,0,0,1,.39,1.222l-2.48,7.678a1.068,1.068,0,0,0,1.63,1.22l6.48-4.785a1.038,1.038,0,0,1,1.24,0l6.48,4.784a1.067,1.067,0,0,0,1.63-1.219l-2.48-7.678a1.087,1.087,0,0,1,.39-1.222l6.45-4.727a1.089,1.089,0,0,0-.62-1.966l-7.99.016a1.06,1.06,0,0,1-1.01-.748l-2.46-7.721A1.056,1.056,0,0,0,4982.41,881.138Z" transform="translate(-4969.425 -880.015)"/>
</svg>
