<?xml version="1.0" encoding="utf-8"?>
<!-- Generator: Adobe Illustrator 21.0.0, SVG Export Plug-In . SVG Version: 6.00 Build 0)  -->
<svg version="1.1" id="图层_1" xmlns="http://www.w3.org/2000/svg" xmlns:xlink="http://www.w3.org/1999/xlink" x="0px" y="0px"
	 viewBox="0 0 30 30" style="enable-background:new 0 0 30 30;" xml:space="preserve">
<style type="text/css">
	.st0{fill:#333333;}
</style>
<path class="st0" d="M15,1.5C15,1.5,15,1.5,15,1.5C7.5,1.5,1.5,7.5,1.5,15c0,7.5,6,13.5,13.5,13.5s13.5-6,13.5-13.5S22.5,1.5,15,1.5
	z M15,27.5C8.1,27.5,2.5,21.9,2.5,15C2.5,8.1,8.1,2.5,15,2.5c6.9,0,12.5,5.6,12.5,12.5S21.9,27.5,15,27.5z"/>
<rect x="3.9" y="12.4" transform="matrix(-1.836970e-16 1 -1 -1.836970e-16 19.5885 10.4219)" class="st0" width="1.4" height="5.2"/>
<rect x="24.5" y="12.4" transform="matrix(-1.836970e-16 1 -1 -1.836970e-16 40.1719 -10.1615)" class="st0" width="1.4" height="5.2"/>
<rect x="16.9" y="12.4" transform="matrix(-1.836970e-16 1 -1 -1.836970e-16 32.5833 -2.5729)" class="st0" width="1.4" height="5.2"/>
<rect x="14.3" y="2.1" transform="matrix(-1 -1.224647e-16 1.224647e-16 -1 30 9.4167)" class="st0" width="1.4" height="5.2"/>
<rect x="14.3" y="22.7" transform="matrix(-1 -1.224647e-16 1.224647e-16 -1 30 50.5833)" class="st0" width="1.4" height="5.2"/>
<rect x="14.3" y="10.5" class="st0" width="1.4" height="5.2"/>
</svg>
