<svg xmlns="http://www.w3.org/2000/svg" width="30" height="30" viewBox="0 0 30 30">
  <metadata><?xpacket begin="﻿" id="W5M0MpCehiHzreSzNTczkc9d"?>
<x:xmpmeta xmlns:x="adobe:ns:meta/" x:xmptk="Adobe XMP Core 5.6-c142 79.160924, 2017/07/13-01:06:39        ">
   <rdf:RDF xmlns:rdf="http://www.w3.org/1999/02/22-rdf-syntax-ns#">
      <rdf:Description rdf:about=""/>
   </rdf:RDF>
</x:xmpmeta>
                                                                                                    
                                                                                                    
                                                                                                    
                                                                                                    
                                                                                                    
                                                                                                    
                                                                                                    
                                                                                                    
                                                                                                    
                                                                                                    
                                                                                                    
                                                                                                    
                                                                                                    
                                                                                                    
                                                                                                    
                                                                                                    
                                                                                                    
                                                                                                    
                                                                                                    
                                                                                                    
                           
<?xpacket end="w"?></metadata>
<defs>
    <style>
      .cls-1 {
        fill: #307cfa;
        fill-rule: evenodd;
      }
    </style>
  </defs>
  <path id="折" class="cls-1" d="M2899,1660h25a2.006,2.006,0,0,1,2,2v25a2.006,2.006,0,0,1-2,2h-25a2,2,0,0,1-2-2v-25A2,2,0,0,1,2899,1660Zm11,15.56-0.22-1.49-2.88.83v-4.24h2.95v-1.52h-2.95v-4.42h-1.61v4.42h-3.06v1.52h3.06v4.71c-1.27.35-2.44,0.7-3.39,0.92l0.49,1.59c0.86-.27,1.85-0.58,2.9-0.86v5.74a0.357,0.357,0,0,1-.42.42c-0.26,0-1.18.02-2.17-.02a5.939,5.939,0,0,1,.5,1.51,7.3,7.3,0,0,0,2.91-.3,1.434,1.434,0,0,0,.79-1.61v-6.25Zm12.04-3.58h-9.44v-4.12a56.423,56.423,0,0,0,8.6-1.58l-0.97-1.39a55.082,55.082,0,0,1-9.24,1.74v6.93c0,3.44-.26,7.02-2.4,10.15a5.126,5.126,0,0,1,1.3,1.05c2.33-3.36,2.71-7.21,2.71-11.2v-0.02h4.13v11.13h1.61v-11.13h3.7v-1.56Z" transform="translate(-2896.5 -1659.5)"/>
</svg>
