<?xml version="1.0" encoding="utf-8"?>
<!-- Generator: Adobe Illustrator 21.0.0, SVG Export Plug-In . SVG Version: 6.00 Build 0)  -->
<svg version="1.1" id="图层_1" xmlns="http://www.w3.org/2000/svg" xmlns:xlink="http://www.w3.org/1999/xlink" x="0px" y="0px"
	 viewBox="0 0 23 23" style="enable-background:new 0 0 23 23;" xml:space="preserve">
<style type="text/css">
	.st0{fill:#333333;}
</style>
<g>
	<path class="st0" d="M11.9,21.5c-0.3,0-0.6-0.1-0.8-0.3c-0.1-0.1-1.2-0.9-2.5-1.8c-0.9-0.7-1.8-1.3-2.9-1.8H3.4
		c-0.8,0-1.5-0.3-2-0.9c-0.4-0.5-0.6-1.2-0.6-1.9V8.1c0-0.7,0.2-1.3,0.6-1.9c0.5-0.6,1.2-0.9,2-0.9h2.4c1-0.5,2-1.1,2.8-1.8
		c1.3-0.9,2.4-1.8,2.5-1.8c0.4-0.2,0.9-0.3,1.4-0.1c0.4,0.2,0.7,0.7,0.7,1.1v17.5c0,0.5-0.3,0.9-0.7,1.1
		C12.3,21.5,12.1,21.5,11.9,21.5z M5.9,16.6h0.2c1.1,0.5,2.2,1.2,3.1,2c1.2,0.8,2.4,1.8,2.5,1.8c0.1,0,0.2,0,0.3,0s0.2-0.1,0.2-0.2
		V2.7c0-0.1-0.1-0.2-0.2-0.2l0,0c-0.1-0.1-0.2,0-0.3,0c0,0-1.3,1-2.5,1.8c-0.9,0.8-2,1.4-3.1,1.9H5.9H3.4C3,6.3,2.5,6.6,2.2,6.9
		C1.9,7.3,1.8,7.7,1.8,8.1v6.7c0,0.5,0.1,0.9,0.4,1.2c0.3,0.4,0.8,0.6,1.2,0.6C3.4,16.6,5.9,16.6,5.9,16.6z"/>
</g>
<path class="st0" d="M22,11.5L22,11.5c0-1.1-0.3-2.1-0.9-3s-1.4-1.6-2.3-2c-0.4-0.2-0.9,0-1.1,0.4S17.6,7.8,18,8l0,0
	c2,1,2.8,3.3,1.9,5.3c-0.4,0.8-1,1.5-1.9,1.9c-0.4,0.2-0.6,0.6-0.4,1l0,0c0.2,0.4,0.7,0.6,1.1,0.4c0.9-0.5,1.7-1.2,2.3-2
	C21.7,13.6,22,12.6,22,11.5L22,11.5L22,11.5L22,11.5z"/>
<path class="st0" d="M17.5,11.5c0-0.6-0.2-1.1-0.5-1.6c-0.1-0.3-0.4-0.4-0.7-0.4c-0.4,0-0.7,0.3-0.7,0.7c0,0.2,0.1,0.4,0.2,0.5
	c0.3,0.6,0.3,1.2,0,1.8c-0.1,0.1-0.2,0.3-0.2,0.5c0,0.4,0.3,0.7,0.7,0.7c0.3,0,0.6-0.2,0.7-0.4C17.3,12.6,17.5,12.1,17.5,11.5
	L17.5,11.5L17.5,11.5L17.5,11.5"/>
</svg>
