<?xml version="1.0" encoding="utf-8"?>
<!-- Generator: Adobe Illustrator 21.0.0, SVG Export Plug-In . SVG Version: 6.00 Build 0)  -->
<svg version="1.1" id="图层_1" xmlns="http://www.w3.org/2000/svg" xmlns:xlink="http://www.w3.org/1999/xlink" x="0px" y="0px"
	 viewBox="0 0 48 48" style="enable-background:new 0 0 48 48;" xml:space="preserve">
<style type="text/css">
	.st0{fill:#003A48;}
</style>
<path id="刷新" class="st0" d="M45.5,29.9L41.4,34c-0.8,0.8-2,0.8-2.7,0c-0.1-0.1-0.1-0.1-0.1-0.2l-2.1-0.6
	c5.1-6.8,3.8-16.4-3-21.6C28.6,8,21.9,7.6,16.6,10.6c-0.5-0.6-1.2-0.9-1.9-1.1l-1.1-0.3c8.2-5.9,19.6-4.1,25.5,4.1
	c3.1,4.2,4.2,9.6,3,14.6l0.7-0.7c0.7-0.8,2-0.8,2.7,0S46.3,29.1,45.5,29.9C45.5,29.9,45.5,29.9,45.5,29.9z M9.7,18.9
	c-0.1,0.4-0.3,0.7-0.4,1.1c-2.2,8.2,2.6,16.6,10.8,18.9c2.3,0.6,4.8,0.7,7.1,0.2c0.6,0.6,1.3,1,2,1.2l2,0.5
	c-9.3,3.9-20-0.4-23.9-9.7c-1.1-2.6-1.6-5.5-1.4-8.3l-0.7,0.7c-0.8,0.7-2,0.7-2.7,0c-0.7-0.7-0.7-1.9,0-2.7l4.1-4.1
	c0.8-0.8,2-0.8,2.7,0c0.1,0.1,0.2,0.3,0.3,0.4l0.7,0.2c-0.2,0.4-0.4,0.8-0.5,1.3C9.8,18.7,9.7,18.8,9.7,18.9z"/>
</svg>
