<?xml version="1.0" encoding="utf-8"?>
<!-- Generator: Adobe Illustrator 21.0.0, SVG Export Plug-In . SVG Version: 6.00 Build 0)  -->
<svg version="1.1" id="图层_1" xmlns="http://www.w3.org/2000/svg" xmlns:xlink="http://www.w3.org/1999/xlink" x="0px" y="0px"
	 viewBox="0 0 44 44" style="enable-background:new 0 0 44 44;" xml:space="preserve">
<style type="text/css">
	.st0{fill:#FAC030;}
</style>
<path class="st0" d="M22,2c-11,0-20,9-20,20s9,20,20,20s20-9,20-20S33,2,22,2z M33,24h-9v7.9c0,1.7-0.9,3.1-2,3.1s-2-1.4-2-3.1V24
	h-9c-1.1,0-2-0.9-2-2s0.9-2,2-2h9v-7.9c0-1.7,0.9-3.1,2-3.1s2,1.4,2,3.1V20h9c1.1,0,2,0.9,2,2S34.1,24,33,24z"/>
</svg>
