<?xml version="1.0" encoding="utf-8"?>
<!-- Generator: Adobe Illustrator 21.0.0, SVG Export Plug-In . SVG Version: 6.00 Build 0)  -->
<svg version="1.1" id="图层_1" xmlns="http://www.w3.org/2000/svg" xmlns:xlink="http://www.w3.org/1999/xlink" x="0px" y="0px"
	 viewBox="0 0 44 44" style="enable-background:new 0 0 44 44;" xml:space="preserve">
<style type="text/css">
	.st0{fill:#103A4A;}
</style>
<path class="st0" d="M22,2C11,2,2,11,2,22s9,20,20,20s20-9,20-20S33,2,22,2z M35.5,16C35.5,16.1,35.5,16.1,35.5,16L19.9,31.4l0,0
	c0,0,0,0,0,0c-0.7,0.7-1.9,0.7-2.6,0l-7.8-7.7c-0.7-0.7-0.7-1.8,0-2.5c0,0,0,0,0,0c0.7-0.7,1.9-0.7,2.6,0l6.5,6.4l14.3-14.1
	c0.7-0.7,1.9-0.7,2.6,0C36.1,14.2,36.2,15.3,35.5,16z"/>
</svg>
