<svg id="图层_1" data-name="图层 1" xmlns="http://www.w3.org/2000/svg" xmlns:xlink="http://www.w3.org/1999/xlink" viewBox="0 0 16.08 16.08"><defs><style>.cls-1{fill-rule:evenodd;fill:url(#未命名的渐变_11);}.cls-2{fill:#fff;}</style><linearGradient id="未命名的渐变_11" x1="1.82" y1="15.27" x2="15.17" y2="3.3" gradientUnits="userSpaceOnUse"><stop offset="0" stop-color="#f15a24"/><stop offset="1" stop-color="#fbb03b"/></linearGradient></defs><title>hot交表</title><path class="cls-1" d="M3.5,21.08V7.59A2.59,2.59,0,0,1,6.09,5H19.58Z" transform="translate(-3.5 -5)"/><path class="cls-2" d="M4.41,13.15,5,12.6l1.09,1.09L7.1,12.64,6,11.55,6.56,11l2.78,2.78-.55.55-1.2-1.2L6.54,14.17l1.2,1.2-.56.56Z" transform="translate(-3.5 -5)"/><path class="cls-2" d="M8.49,11.83A1.78,1.78,0,1,1,11,9.34a1.78,1.78,0,1,1-2.49,2.49Zm1.92-1.92c-.6-.6-1.22-.69-1.63-.28s-.32,1,.28,1.63,1.24.71,1.65.3S11,10.5,10.41,9.91Z" transform="translate(-3.5 -5)"/><path class="cls-2" d="M11,7.44l-.78.78-.46-.46,2.13-2.12.46.46-.79.79,2.32,2.32-.56.56Z" transform="translate(-3.5 -5)"/></svg>