<svg id="组_20" data-name="组 20" xmlns="http://www.w3.org/2000/svg" viewBox="0 0 120 120"><defs><style>.cls-1{fill:none;stroke:#fac030;stroke-width:3px;}</style></defs><title>home</title><path id="圆角矩形_18_拷贝_4" data-name="圆角矩形 18 拷贝 4" class="cls-1" d="M88.55,14.88h0c6.35,3.63,13.21,32.61,9.54,38.91L71.55,99.4a13.34,13.34,0,0,1-18.13,4.82L28.14,89.73a13.11,13.11,0,0,1-4.92-17.87l.06-.11L49.82,26.14C53.49,19.84,82.21,11.24,88.55,14.88Zm-9.29,16a9.18,9.18,0,0,1,3.46,12.51l0,.08A9.33,9.33,0,0,1,70,46.8a9.16,9.16,0,0,1-3.46-12.49l.06-.1a9.32,9.32,0,0,1,12.68-3.37Zm-46.09-.1-2.06-1.05-1.63,1.62.37-2.26-2.06-1,2.28-.36.36-2.26,1,2,2.28-.36L32.12,28.7ZM93.54,86.21h6a1,1,0,0,1,1,1v.63a1,1,0,0,1-1,1h-6a1,1,0,0,1-1-1v-.63a1,1,0,0,1,1-1Zm2.65-2.63h.65a1,1,0,0,1,1,1s0,0,0,0v5.9a1,1,0,0,1-1,1h-.65a1,1,0,0,1-1-1v-5.9a1,1,0,0,1,1-1ZM24.5,38a5,5,0,1,1-5,5A5,5,0,0,1,24.5,38Z"/></svg>