<svg xmlns="http://www.w3.org/2000/svg" width="265" height="6" viewBox="0 0 265 6">
  <metadata><?xpacket begin="﻿" id="W5M0MpCehiHzreSzNTczkc9d"?>
<x:xmpmeta xmlns:x="adobe:ns:meta/" x:xmptk="Adobe XMP Core 5.6-c142 79.160924, 2017/07/13-01:06:39        ">
   <rdf:RDF xmlns:rdf="http://www.w3.org/1999/02/22-rdf-syntax-ns#">
      <rdf:Description rdf:about=""/>
   </rdf:RDF>
</x:xmpmeta>
                                                                                                    
                                                                                                    
                                                                                                    
                                                                                                    
                                                                                                    
                                                                                                    
                                                                                                    
                                                                                                    
                                                                                                    
                                                                                                    
                                                                                                    
                                                                                                    
                                                                                                    
                                                                                                    
                                                                                                    
                                                                                                    
                                                                                                    
                                                                                                    
                                                                                                    
                                                                                                    
                           
<?xpacket end="w"?></metadata>
<defs>
    <style>
      .cls-1 {
        fill: #fff;
        fill-rule: evenodd;
      }
    </style>
  </defs>
  <path id="圆角矩形_689" data-name="圆角矩形 689" class="cls-1" d="M1030,3075h5a3,3,0,0,1,0,6h-5A3,3,0,0,1,1030,3075Zm14.74,0H1074a3,3,0,0,1,0,6h-29.26A3,3,0,1,1,1044.74,3075Zm239.26,0h5a3,3,0,0,1,0,6h-5A3,3,0,0,1,1284,3075Zm-39,0h29.25a3,3,0,0,1,0,6H1245A3,3,0,0,1,1245,3075Z" transform="translate(-1027 -3075)"/>
</svg>
