<?xml version="1.0" standalone="no"?>
<!DOCTYPE svg PUBLIC "-//W3C//DTD SVG 1.1//EN" "http://www.w3.org/Graphics/SVG/1.1/DTD/svg11.dtd" >
<svg xmlns="http://www.w3.org/2000/svg">
<metadata>Generated by IcoMoon</metadata>
<defs>
<font id="icomoon" horiz-adv-x="1024">
<font-face units-per-em="1024" ascent="960" descent="-64" />
<missing-glyph horiz-adv-x="1024" />
<glyph unicode="&#x20;" horiz-adv-x="512" d="" />
<glyph unicode="&#xe900;" glyph-name="label" d="M512 74.634c-19.692 0-39.385 4.726-57.502 14.966l-199.286 114.215c-26.782 14.966-45.686 40.172-54.351 69.317-7.877 29.932-3.938 60.652 11.028 87.434l0.788 0.788 208.738 359.188c33.083 56.714 267.028 124.455 321.378 92.948 33.871-19.692 59.077-101.612 68.529-136.271 18.905-70.105 29.145-155.175 11.028-186.683l-208.738-359.188c-22.055-36.234-61.44-56.714-101.612-56.714zM699.471 799.311c-75.618 0-234.732-51.2-257.575-89.797l-209.526-360.763c-11.815-21.268-14.966-45.686-8.665-69.317s22.055-43.323 43.323-55.138l199.286-114.215c44.111-25.206 100.825-10.24 126.818 33.871l208.738 359.188c12.603 21.268 6.302 93.735-13.391 168.566-16.542 63.015-40.172 111.852-57.502 121.305v0c-7.089 3.938-18.117 6.302-31.508 6.302zM801.871 188.062h-5.514c-11.028 0-19.692 8.665-19.692 19.692v0.788h-1.575c-11.028 0-19.692 8.665-19.692 19.692v4.726c0 11.028 8.665 19.692 19.692 19.692h1.575v0.788c0 11.028 8.665 19.692 19.692 19.692h5.514c5.514 0 10.24-1.575 14.178-5.514s5.514-8.665 5.514-14.178v-1.575h1.575c11.028 0 19.692-8.665 19.692-19.692v-4.726c0-11.028-8.665-19.692-19.692-19.692h-1.575v-0.788c0-9.452-8.665-18.905-19.692-18.905zM627.003 530.708c-14.178 0-29.145 3.938-42.535 11.028-19.692 11.028-33.871 29.145-39.385 50.412-6.302 21.268-3.151 44.111 7.877 63.803l0.788 0.788c23.631 40.172 75.618 54.351 115.791 30.72 40.172-22.843 54.351-74.043 31.508-115.003v0c-15.754-26.782-44.898-41.748-74.043-41.748zM627.003 675.643c-21.268 0-41.748-11.028-53.563-30.72-16.542-29.932-6.302-66.166 22.055-82.708 29.145-16.542 66.954-7.089 84.283 22.055 16.542 29.145 6.302 66.166-22.843 82.708v0c-8.665 6.302-18.905 8.665-29.932 8.665zM232.369 530.708c-28.357 0-51.2 22.843-51.2 51.2s22.843 51.2 51.2 51.2 51.2-22.843 51.2-51.2-22.843-51.2-51.2-51.2zM232.369 609.477c-14.966 0-27.569-11.815-27.569-27.569s12.603-27.569 27.569-27.569 27.569 12.603 27.569 27.569-12.603 27.569-27.569 27.569zM254.425 640.197l7.089 44.898-41.748 20.48 45.686 7.089 7.089 44.898 20.48-40.96 45.686 7.089-31.508-31.508 21.268-40.96-40.96 21.268-33.083-32.295z" />
<glyph unicode="&#xe901;" glyph-name="logo" horiz-adv-x="1246" d="M658.197 919.483l14.673 0.044c10.106-0.087 18.264-8.3 18.264-18.418 0-0.055 0-0.11-0.001-0.164v0.008-82.408c0-13.387 28.282-48.895 38.212-50.269 40.428-5.63 40.472-34.399 41.359-36.305 7.58-16.091 67.646-40.517 103.42-26.642 1.594 0.559 2.728 2.023 2.793 3.761v191.907c0 0.036 0 0.078 0 0.12 0 10.116 8.159 18.327 18.256 18.409h14.681c4.139 0.005 7.492 3.361 7.492 7.5 0 0.028 0 0.056 0 0.084v-0.004 25.268c0 0.026 0.001 0.058 0.001 0.089 0 4.147-3.349 7.511-7.49 7.536h-251.658c-4.124-0.050-7.448-3.404-7.448-7.535 0-0.031 0-0.063 0.001-0.094v0.005-25.268c0-0.027-0.001-0.058-0.001-0.089 0-4.131 3.324-7.486 7.443-7.535h0.005zM910.030 393.165h-14.717c-10.106 0.087-18.264 8.3-18.264 18.418 0 0.055 0 0.11 0.001 0.164v-0.008 220.625c0 0.007 0 0.015 0 0.023 0 1.256-1.018 2.274-2.274 2.274-0.349 0-0.68-0.079-0.976-0.219l0.014 0.006c-19.239-8.511-43.354-12.279-77.044-11.215-7.27 0.222-3.369-4.433-15.648-28.592-3.857-7.625-13.565-18.663-26.42-34.887-7.721-10.559-15.236-22.58-21.875-35.136l-0.777-1.612c-8.688-15.559-17.865-41.625-38.522-42.645-1.264-0.059-2.27-1.081-2.305-2.346v-66.319c0-0.048 0.001-0.104 0.001-0.16 0-10.093-8.139-18.284-18.212-18.369h-14.681c-4.139-0.005-7.492-3.361-7.492-7.5 0-0.028 0-0.056 0-0.084v0.004-25.312c0-0.013 0-0.029 0-0.044 0-4.146 3.349-7.511 7.489-7.536h251.658c4.124 0.050 7.447 3.405 7.447 7.535 0 0.016 0 0.032 0 0.047v-0.002 25.356c0 0.019 0 0.040 0 0.062 0 4.103-3.306 7.434-7.399 7.474h-0.004zM697.118 512.809c14.54 27.041 27.44 49.737 38.478 63.257 5.674 7.004 26.908 32.183 28.725 44.285 1.995 13.077 0.576 28.947 12.855 28.149 103.952-6.738 136.445 34.798 139.947 42.334 1.153 2.482-0.044 3.724-2.527 2.615-41.182-18.663-132.322-21.012-162.953 22.342-1.108 1.596-2.438 11.792-5.142 15.426-9.087 12.323-16.357 6.383-35.020 17.998-16.623 10.329-22.785 33.335-37.724 38.699-64.587 23.228-102.976 19.859-128.377 19.859v93.18c0 0.045-0.001 0.098-0.001 0.151 0 10.11 8.163 18.313 18.258 18.378h14.679c4.124 0.050 7.448 3.404 7.448 7.535 0 0.031 0 0.063-0.001 0.094v-0.005 25.312c0 0.013 0 0.029 0 0.045 0 4.131-3.324 7.485-7.443 7.535h-251.661c-4.146-0.038-7.492-3.407-7.492-7.558 0-0.008 0-0.016 0-0.024v0.001-25.312c0-0.017 0-0.038 0-0.058 0-4.153 3.345-7.524 7.488-7.567h14.677c10.081-0.085 18.22-8.277 18.22-18.369 0-0.056 0-0.113-0.001-0.169v0.009-244.607h0.133v-244.652c0-0.036 0-0.078 0-0.12 0-10.116-8.159-18.327-18.256-18.409h-14.725c-4.117-0.020-7.447-3.362-7.447-7.483 0-0.019 0-0.037 0-0.056v0.003-25.356c0-0.007 0-0.015 0-0.022 0-4.151 3.346-7.52 7.488-7.558h251.66c4.146 0.038 7.492 3.407 7.492 7.558 0 0.008 0 0.016 0 0.024v-0.001 25.356c0 0.016 0 0.035 0 0.053 0 4.12-3.33 7.463-7.446 7.483h-14.719c-10.108 0.098-18.264 8.314-18.264 18.436 0 0.033 0 0.066 0 0.099v-0.005 20.968c0.001 0.018 0.001 0.039 0.001 0.061 0 1.285-1.042 2.327-2.327 2.327-0.149 0-0.295-0.014-0.436-0.041l0.015 0.002c-5.223-1-11.231-1.572-17.373-1.572-13.373 0-26.112 2.713-37.698 7.618l0.635-0.239c-0.413 0.174-0.698 0.576-0.698 1.044 0 0.597 0.463 1.086 1.049 1.128h0.004c35.508 2.97 69.818 28.637 92.116 67.336 14.717 25.534 30.498 58.958 44.772 53.505 1.507-0.576 2.926-1.153 4.167-1.729 13.121-5.94-4.921-24.115 12.057-36.527 5.054-3.679 11.747-8.201 23.095-15.338 12.634-7.891 27.218-6.782 32.272 2.571zM286.099 232.561h-111.133v9.176c-0.005 2.48-2.001 4.492-4.474 4.522h-39.589c-2.476-0.015-4.477-2.026-4.477-4.504 0-0.006 0-0.013 0-0.019v0.001-9.176h-111.532c-0.003 0-0.006 0-0.009 0-2.247 0-4.069-1.822-4.069-4.069 0-0.003 0-0.006 0-0.009v0-17.554c0-0.005 0-0.012 0-0.018 0-2.478 2.001-4.489 4.476-4.504h270.807c2.456 0.035 4.433 2.034 4.433 4.495 0 0.010 0 0.019 0 0.028v-0.001 17.111c0 0.008 0 0.018 0 0.027 0 2.461-1.977 4.46-4.43 4.494h-0.003zM237.736 113.715h-173.991c-0.004 0-0.009 0-0.013 0-2.465 0-4.464-1.999-4.464-4.464 0-0.005 0-0.009 0-0.014v0.001-17.155c0-0.004 0-0.009 0-0.013 0-2.465 1.999-4.464 4.464-4.464 0.005 0 0.009 0 0.014 0h173.99c0 0 0 0 0 0 2.448 0 4.433 1.985 4.433 4.433 0 0.016 0 0.031 0 0.047v-0.002 17.155c0 0.013 0 0.029 0 0.044 0 2.448-1.985 4.433-4.433 4.433 0 0 0 0 0 0v0zM195.535-0.92l84.136-58.248c0.71-0.499 1.592-0.797 2.545-0.797 2.463 0 4.459 1.997 4.459 4.459 0 0.006 0 0.012 0 0.018v-0.001 28.681c-0.006 1.536-0.769 2.891-1.936 3.714l-0.014 0.010-50.757 35.109v32.227h48.23c0.004 0 0.009 0 0.013 0 2.465 0 4.464 1.999 4.464 4.464 0 0.005 0 0.009 0 0.014v-0.001 19.593c0 0.005 0 0.012 0 0.018 0 2.478-2.001 4.489-4.476 4.504h-84.182c-2.456-0.035-4.433-2.034-4.433-4.495 0-0.010 0-0.019 0-0.028v0.001-65.563c0-0.002 0-0.004 0-0.007 0-1.522 0.767-2.865 1.935-3.663l0.015-0.010zM264.068 154.586v34.488c-0.005 2.48-2.001 4.492-4.474 4.522h-218.279c-2.456-0.035-4.433-2.034-4.433-4.495 0-0.010 0-0.019 0-0.028v0.001-34.488h-32.405c-2.476-0.015-4.477-2.026-4.477-4.504 0-0.006 0-0.013 0-0.019v0.001-57.982c0-0.004 0-0.009 0-0.013 0-2.465 1.999-4.464 4.464-4.464 0.005 0 0.009 0 0.014 0h31.473c0.004 0 0.009 0 0.013 0 2.465 0 4.464 1.999 4.464 4.464 0 0.005 0 0.009 0 0.014v-0.001 36.394h220.537v-36.394c0-0.004 0-0.009 0-0.013 0-2.465 1.999-4.464 4.464-4.464 0.005 0 0.009 0 0.014 0h31.473c0.004 0 0.009 0 0.013 0 2.465 0 4.464 1.999 4.464 4.464 0 0.005 0 0.009 0 0.014v-0.001 57.982c0 0.005 0 0.012 0 0.018 0 2.478-2.001 4.489-4.476 4.504h-32.849zM223.64 154.586h-142.34v12.855h142.34v-12.855zM22.43 72.844c-2.476-0.015-4.477-2.026-4.477-4.504 0-0.006 0-0.013 0-0.019v0.001-19.593c0-0.004 0-0.009 0-0.013 0-2.465 1.999-4.464 4.464-4.464 0.005 0 0.009 0 0.014 0h71.989l-73.32-22.519c-1.839-0.586-3.147-2.28-3.147-4.278 0-0.008 0-0.015 0-0.023v0.001-22.165c0-0.009 0-0.019 0-0.029 0-2.465 1.999-4.464 4.464-4.464 0.463 0 0.91 0.071 1.331 0.202l-0.032-0.008 115.433 35.419v-21.721l-118.048-36.217c-1.839-0.586-3.147-2.28-3.147-4.278 0-0.008 0-0.015 0-0.023v0.001-22.165c0-0.009 0-0.019 0-0.029 0-2.465 1.999-4.464 4.464-4.464 0.463 0 0.91 0.071 1.331 0.202l-0.032-0.008 115.433 35.419v-32.626c0-0.013 0-0.029 0-0.044 0-2.448 1.985-4.433 4.433-4.433 0 0 0 0 0 0h31.518c0.004 0 0.009 0 0.013 0 2.465 0 4.464 1.999 4.464 4.464 0 0.005 0 0.009 0 0.014v-0.001 127.845c0 0.005 0 0.012 0 0.018 0 2.478-2.001 4.489-4.476 4.504h-152.67zM644.322 65.707l-73.896 24.115 37.813 12.323c1.814 0.583 3.103 2.255 3.103 4.229 0 0.009 0 0.019 0 0.028v-0.001 64.188c0 0.014 0 0.032 0 0.049 0 2.47-2.003 4.473-4.473 4.473-0.002 0-0.003 0-0.005 0h-171.686c-2.452-0.017-4.433-2.009-4.433-4.464 0-0.020 0-0.041 0-0.061v0.003-64.188c0-0.012 0-0.027 0-0.041 0-1.957 1.268-3.618 3.028-4.206l0.031-0.009 37.857-12.323-73.941-24.115h-22.918c-2.456-0.035-4.433-2.034-4.433-4.495 0-0.010 0-0.019 0-0.028v0.001-23.184c0-0.008 0-0.018 0-0.027 0-2.461 1.977-4.46 4.43-4.494h22.921l123.323 40.206 123.279-40.206h22.962c2.456 0.035 4.433 2.034 4.433 4.495 0 0.010 0 0.019 0 0.028v-0.001 23.184c0 0.008 0 0.018 0 0.027 0 2.461-1.977 4.46-4.43 4.494h-22.965zM475.207 120.852v25.666h95.706v-24.337l-49.87-16.269zM415.185 197.851h211.715v-34.798c0-0.017 0-0.037 0-0.058 0-2.455 1.981-4.446 4.432-4.464h31.52c2.452 0.017 4.433 2.009 4.433 4.464 0 0.020 0 0.041 0 0.061v-0.003 56.298c0 0.015 0 0.032 0 0.049 0 2.505-2.020 4.539-4.52 4.561h-117.474v17.776c0 0.014 0 0.032 0 0.049 0 2.47-2.003 4.473-4.473 4.473-0.002 0-0.003 0-0.005 0h-39.586c-2.452-0.017-4.433-2.009-4.433-4.464 0-0.020 0-0.041 0-0.061v0.003-17.776h-117.472c-2.522-0.002-4.566-2.048-4.566-4.57 0-0.014 0-0.028 0-0.042v0.002-56.298c0-0.014 0-0.032 0-0.049 0-2.47 2.003-4.473 4.473-4.473 0.002 0 0.003 0 0.005 0h31.518c2.452 0.017 4.433 2.009 4.433 4.464 0 0.020 0 0.041 0 0.061v-0.003 34.798zM415.584 28.16v-87.683c0-0.013 0-0.029 0-0.044 0-2.448 1.985-4.433 4.433-4.433 0 0 0 0 0 0h202.007c0.004 0 0.009 0 0.013 0 2.465 0 4.464 1.999 4.464 4.464 0 0.005 0 0.009 0 0.014v-0.001 87.683c0 0.005 0 0.012 0 0.018 0 2.478-2.001 4.489-4.476 4.504h-202.008c-2.456-0.035-4.433-2.034-4.433-4.495 0-0.010 0-0.019 0-0.028v0.001zM586.074-35.408h-126.027v39.497h126.027v-39.497zM1104.413 165.048h62.149c0.005 0 0.012 0 0.018 0 1.484 0 2.686 1.203 2.686 2.686 0 0.006 0 0.013 0 0.019v-0.001 34.266c0 0.005 0 0.012 0 0.018 0 1.484-1.203 2.686-2.686 2.686-0.006 0-0.013 0-0.019 0h-31.34c-0.003 0-0.006 0-0.009 0-1.281 0-2.35-0.905-2.603-2.11l-0.003-0.017-4.433-20.569h-22.918l12.412 57.362h22.785l-2.837-12.855c-0.038-0.171-0.060-0.367-0.060-0.568 0-1.485 1.193-2.692 2.673-2.713h26.333c0.005 0 0.012 0 0.018 0 1.484 0 2.686 1.203 2.686 2.686 0 0.006 0 0.013 0 0.019v-0.001 20.303h22.874v-20.303c0-0.005 0-0.012 0-0.018 0-1.484 1.203-2.686 2.686-2.686 0.006 0 0.013 0 0.019 0h47.874v-18.53h-47.875c-0.005 0-0.012 0-0.018 0-1.484 0-2.686-1.203-2.686-2.686 0-0.006 0-0.013 0-0.019v0.001-34.266c0-0.005 0-0.012 0-0.018 0-1.484 1.203-2.686 2.686-2.686 0.006 0 0.013 0 0.019 0h50.8v-18.53h-50.801c-0.005 0-0.012 0-0.018 0-1.484 0-2.686-1.203-2.686-2.686 0-0.006 0-0.013 0-0.019v0.001-44.196h-22.874v44.196c0 0.005 0 0.012 0 0.018 0 1.484-1.203 2.686-2.686 2.686-0.006 0-0.013 0-0.019 0h-62.148v18.53zM1138.413 82.64h-22.918v-18.84c0-0.005 0-0.012 0-0.018 0-1.484-1.203-2.686-2.686-2.686-0.006 0-0.013 0-0.019 0h-8.377v-18.53h8.378c0.005 0 0.012 0 0.018 0 1.484 0 2.686-1.203 2.686-2.686 0-0.006 0-0.013 0-0.019v0.001-29.035c-0.008-1.266-0.885-2.326-2.065-2.612l-0.018-0.004-8.999-2.039v-17.953l7.802 1.729c0.186 0.047 0.4 0.073 0.621 0.073 1.469 0 2.66-1.191 2.66-2.66 0-0.010 0-0.020 0-0.031v0.002-29.7c0 0 0 0 0 0 0-1.469-1.191-2.66-2.66-2.66-0.016 0-0.031 0-0.047 0h-8.376v-18.973h25.090c4.923 0.010 8.91 4.003 8.91 8.928 0 0.025 0 0.050 0 0.075v-0.004 48.718c0 0.007 0 0.016 0 0.024 0 1.274 0.88 2.343 2.065 2.632l0.019 0.004 7.802 1.729v17.998l-6.649-1.507c-0.163-0.035-0.349-0.055-0.541-0.055-1.48 0-2.681 1.193-2.695 2.669v22.653c0 0.013 0 0.029 0 0.044 0 1.469 1.191 2.66 2.66 2.66 0 0 0 0 0 0h7.226v18.53h-7.226c0 0 0 0 0 0-1.469 0-2.66 1.191-2.66 2.66 0 0.016 0 0.031 0 0.047v-0.002 18.84zM1242.719 42.567v18.53h-13.964c-0.005 0-0.012 0-0.018 0-1.484 0-2.686 1.203-2.686 2.686 0 0.006 0 0.013 0 0.019v-0.001 18.84h-21.987v-146.64h21.987v16.313c0 0.005 0 0.012 0 0.018 0 1.484 1.203 2.686 2.686 2.686 0.006 0 0.013 0 0.019 0h13.963v18.53h-13.964c-0.005 0-0.012 0-0.018 0-1.484 0-2.686 1.203-2.686 2.686 0 0.006 0 0.013 0 0.019v-0.001 19.46c0 0.005 0 0.012 0 0.018 0 1.484 1.203 2.686 2.686 2.686 0.006 0 0.013 0 0.019 0h13.963v18.53h-13.964c-0.005 0-0.012 0-0.018 0-1.484 0-2.686 1.203-2.686 2.686 0 0.006 0 0.013 0 0.019v-0.001 20.214c0 0.005 0 0.012 0 0.018 0 1.484 1.203 2.686 2.686 2.686 0.006 0 0.013 0 0.019 0h13.963zM1168.424 61.096h-14.008v-18.53h14.008c0 0 0 0 0 0 1.469 0 2.66-1.191 2.66-2.66 0-0.016 0-0.031 0-0.047v0.002-20.214c0-0.013 0-0.029 0-0.044 0-1.469-1.191-2.66-2.66-2.66 0 0 0 0 0 0h-14.008v-18.53h14.008c0 0 0 0 0 0 1.469 0 2.66-1.191 2.66-2.66 0-0.016 0-0.031 0-0.047v0.002-19.46c0-0.013 0-0.029 0-0.044 0-1.469-1.191-2.66-2.66-2.66 0 0 0 0 0 0h-14.008v-18.53h14.008c0 0 0 0 0 0 1.469 0 2.66-1.191 2.66-2.66 0-0.016 0-0.031 0-0.047v0.002-16.313h22.032v146.64h-22.032v-18.84c0-0.013 0-0.029 0-0.044 0-1.469-1.191-2.66-2.66-2.66 0 0 0 0 0 0v0zM749.692 74.838h29.257c0.002 0 0.003 0 0.005 0 1.869 0 3.467 1.164 4.107 2.807l0.010 0.030 20.968 52.885 18.042-45.615c0.65-1.673 2.248-2.837 4.117-2.837 0.002 0 0.004 0 0.005 0h27.040c2.46 0.033 4.441 2.035 4.441 4.499 0 0.599-0.117 1.17-0.329 1.693l0.011-0.030-33.734 85.333c-0.65 1.673-2.248 2.837-4.117 2.837-0.002 0-0.004 0-0.005 0h-33.158c-0.002 0-0.003 0-0.005 0-1.869 0-3.467-1.164-4.107-2.807l-0.010-0.030-36.66-92.603c-0.211-0.501-0.333-1.083-0.333-1.693 0-2.463 1.993-4.461 4.455-4.468h0.001zM989.778 176.441h-33.158c-1.879-0.010-3.486-1.167-4.156-2.807l-0.011-0.030-33.69-85.333c-0.205-0.496-0.325-1.072-0.325-1.676 0-2.464 1.986-4.464 4.445-4.486h27.043c0.002 0 0.003 0 0.005 0 1.869 0 3.467 1.164 4.107 2.807l0.010 0.030 18.042 45.659 20.968-52.929c0.65-1.673 2.248-2.837 4.117-2.837 0.002 0 0.004 0 0.005 0h29.257c2.461 0.018 4.449 2.018 4.449 4.482 0 0.606-0.12 1.183-0.338 1.71l0.011-0.030-36.66 92.648c-0.67 1.65-2.261 2.793-4.118 2.793-0.002 0-0.003 0-0.005 0v0zM1038.141-58.415l-81.92 125.407c-0.786 1.233-2.146 2.039-3.695 2.039-0.010 0-0.020 0-0.031 0h-41.002v118.536h113.394c2.452 0.017 4.433 2.009 4.433 4.464 0 0.020 0 0.041 0 0.061v-0.003 21.987c0 0.017 0 0.037 0 0.058 0 2.455-1.981 4.446-4.432 4.464h-113.396v23.14c0 0.017 0 0.037 0 0.058 0 2.455-1.981 4.446-4.432 4.464h-37.992c-2.452-0.017-4.433-2.009-4.433-4.464 0-0.020 0-0.041 0-0.061v0.003-23.14h-113.394c-2.452-0.017-4.433-2.009-4.433-4.464 0-0.020 0-0.041 0-0.061v0.003-21.987c0-0.017 0-0.037 0-0.058 0-2.455 1.981-4.446 4.432-4.464h113.396v-118.536h-41.004c0 0-0.001 0-0.001 0-1.57 0-2.952-0.804-3.757-2.022l-0.010-0.017-81.876-125.407c-0.372-0.558-0.594-1.244-0.594-1.982 0-1.976 1.591-3.581 3.562-3.604h32.761c0.006 0 0.014 0 0.021 0 1.541 0 2.898 0.786 3.692 1.979l0.010 0.016 64.144 98.366c0.654 0.988 1.758 1.632 3.013 1.64h20.038v-97.524c0-0.013 0-0.029 0-0.044 0-2.448 1.985-4.433 4.433-4.433 0 0 0 0 0 0h37.99c0 0 0 0 0 0 2.448 0 4.433 1.985 4.433 4.433 0 0.016 0 0.031 0 0.047v-0.002 97.524h20.037c1.256-0.008 2.36-0.652 3.006-1.627l0.008-0.013 64.144-98.366c0.805-1.209 2.162-1.995 3.702-1.995 0.008 0 0.015 0 0.023 0h32.714c1.991 0.002 3.604 1.617 3.604 3.608 0 0.736-0.22 1.42-0.598 1.99l0.008-0.013z" />
<glyph unicode="&#xe902;" glyph-name="card" horiz-adv-x="1350" d="M93.091 960v0c-51.413 0-93.091-41.678-93.091-93.091v-837.818c0-51.413 41.678-93.091 93.091-93.091h1163.636c51.413 0 93.091 41.678 93.091 93.091v837.818c0 51.413-41.678 93.091-93.091 93.091h-1163.636zM139.636 913.455h1070.545c51.413 0 93.091-41.678 93.091-93.091v0-744.727c0-51.413-41.678-93.091-93.091-93.091v0h-1070.545c-51.413 0-93.091 41.678-93.091 93.091v0 744.727c0 51.413 41.678 93.091 93.091 93.091v0zM325.818 750.545v0c64.266 0 116.364-52.098 116.364-116.364s-52.098-116.364-116.364-116.364v0 0c-64.266 0-116.364 52.098-116.364 116.364s52.098 116.364 116.364 116.364v0zM628.364 727.273h535.273c12.853 0 23.273-10.42 23.273-23.273v0-23.273c0-12.853-10.42-23.273-23.273-23.273v0h-535.273c-12.853 0-23.273 10.42-23.273 23.273v0 23.273c0 12.853 10.42 23.273 23.273 23.273v0zM628.364 587.636h325.818c12.853 0 23.273-10.42 23.273-23.273v0-23.273c0-12.853-10.42-23.273-23.273-23.273v0h-325.818c-12.853 0-23.273 10.42-23.273 23.273v0 23.273c0 12.853 10.42 23.273 23.273 23.273v0zM302.545 168.727h46.545c12.853 0 23.273-10.42 23.273-23.273v0-23.273c0-12.853-10.42-23.273-23.273-23.273v0h-46.545c-12.853 0-23.273 10.42-23.273 23.273v0 23.273c0 12.853 10.42 23.273 23.273 23.273v0zM488.727 168.727h46.545c12.853 0 23.273-10.42 23.273-23.273v0-23.273c0-12.853-10.42-23.273-23.273-23.273v0h-46.545c-12.853 0-23.273 10.42-23.273 23.273v0 23.273c0 12.853 10.42 23.273 23.273 23.273v0zM674.909 168.727h46.545c12.853 0 23.273-10.42 23.273-23.273v0-23.273c0-12.853-10.42-23.273-23.273-23.273v0h-46.545c-12.853 0-23.273 10.42-23.273 23.273v0 23.273c0 12.853 10.42 23.273 23.273 23.273v0zM861.091 168.727h46.545c12.853 0 23.273-10.42 23.273-23.273v0-23.273c0-12.853-10.42-23.273-23.273-23.273v0h-46.545c-12.853 0-23.273 10.42-23.273 23.273v0 23.273c0 12.853 10.42 23.273 23.273 23.273v0zM1047.273 168.727h46.545c12.853 0 23.273-10.42 23.273-23.273v0-23.273c0-12.853-10.42-23.273-23.273-23.273v0h-46.545c-12.853 0-23.273 10.42-23.273 23.273v0 23.273c0 12.853 10.42 23.273 23.273 23.273v0z" />
<glyph unicode="&#xe903;" glyph-name="cake" horiz-adv-x="884" d="M826.958-64h-769.365c-31.825 0.079-57.593 25.896-57.593 57.732 0 0.104 0 0.207 0.001 0.311v-0.016 305.493c2.184 31.071 27.926 55.45 59.363 55.45 0.949 0 1.893-0.022 2.831-0.066l-0.133 0.005h760.242c0.79 0.038 1.716 0.059 2.646 0.059 31.37 0 57.039-24.41 59.048-55.273l0.009-0.176v-305.493c0.003-0.231 0.005-0.503 0.005-0.776 0-31.55-25.52-57.139-57.044-57.251h-0.011zM62.061 323.879c-0.873 0.096-1.886 0.15-2.912 0.15-15.612 0-28.269-12.656-28.269-28.269 0-1.026 0.055-2.039 0.161-3.036l-0.011 0.124v-294.788c-0.012-0.311-0.018-0.676-0.018-1.042 0-16.572 13.434-30.006 30.006-30.006 0.366 0 0.731 0.007 1.095 0.020l-0.053-0.001h760.242c17.019 0.291 30.739 14.011 31.030 31.003v0.028s0.248 322.405 0.248 299.753c0.233-3.568 16.275 26.065-15.763 26.065h-775.758zM668.703 324.189c31.775 0.621 44.994 14.119 44.994 46.235v232.727c0 32.116-14.677 46.545-46.545 46.545h-449.939c-31.884 0-46.545-14.895-46.545-46.545v-232.727c0-32.116 14.662-46.545 46.545-46.545h-186.182zM-418.909 618.667c-8.084-1.108-14.407-7.431-15.505-15.421l-0.011-0.094v-232.727c-0.006-0.16-0.010-0.348-0.010-0.537 0-8.277 6.71-14.988 14.988-14.988 0.189 0 0.377 0.003 0.564 0.010l-0.027-0.001h449.939c8.081 1.113 14.402 7.434 15.504 15.421l0.011 0.094v232.727c-1.082 8.096-7.419 14.433-15.423 15.505l-0.092 0.010h186.182zM226.071 147.006c-0.78-0.014-1.7-0.023-2.623-0.023-35.453 0-68.065 12.161-93.893 32.539l0.321-0.245c-19.615 15.103-44.53 24.205-71.571 24.205s-51.956-9.102-71.849-24.41l0.277 0.205c-26.414-20.153-59.887-32.289-96.194-32.289s-69.78 12.136-96.583 32.573l0.389-0.284c-19.615 15.103-44.53 24.205-71.571 24.205s-51.956-9.102-71.849-24.41l0.277 0.205c-26.414-20.153-59.887-32.289-96.194-32.289s-69.78 12.136-96.583 32.573l0.389-0.284c-18.715 15.097-42.787 24.234-68.994 24.234-0.912 0-1.821-0.011-2.728-0.033l0.135 0.003c-12.468 0-22.575 10.107-22.575 22.575s10.107 22.575 22.575 22.575v0c0.83 0.016 1.809 0.026 2.79 0.026 35.374 0 67.922-12.101 93.73-32.39l-0.327 0.248c19.583-15.195 44.507-24.359 71.571-24.359s51.989 9.164 71.839 24.558l-0.267-0.199c26.447 20.056 59.911 32.128 96.194 32.128s69.746-12.072 96.593-32.418l-0.399 0.29c19.58-15.194 44.502-24.357 71.564-24.357s51.983 9.163 71.831 24.556l-0.267-0.199c26.447 20.059 59.91 32.132 96.194 32.132s69.747-12.073 96.593-32.422l-0.399 0.29c18.749-15.189 42.894-24.385 69.186-24.385 0.839 0 1.675 0.009 2.509 0.028l-0.124-0.002c12.468 0 22.575-10.107 22.575-22.575s-10.107-22.575-22.575-22.575v0zM67.817 482.909c-0.021 0-0.046 0-0.071 0-26.264 0-50.004 10.808-67.014 28.219l-0.018 0.018c-9.359 10.401-22.865 16.912-37.892 16.912-0.048 0-0.096 0-0.143 0h0.007c-15.048-0.082-28.566-6.569-37.976-16.871l-0.036-0.040c-17.052-17.429-40.812-28.236-67.095-28.236s-50.044 10.806-67.079 28.219l-0.016 0.017c-9.362 10.401-22.87 16.912-37.899 16.912-0.045 0-0.091 0-0.136 0h0.007c-15.053-0.081-28.576-6.568-37.992-16.872l-0.036-0.040c-17.052-17.429-40.812-28.236-67.095-28.236s-50.044 10.806-67.079 28.219l-0.016 0.017c-9.359 10.401-22.865 16.912-37.892 16.912-0.048 0-0.096 0-0.143 0h0.007c-4.929 7.073-7.875 15.847-7.875 25.309 0 1.14 0.043 2.269 0.127 3.388l-0.009-0.149c0 12.412 4.655 16.601 7.758 16.601 0.021 0 0.046 0 0.071 0 26.264 0 50.004-10.808 67.014-28.219l0.018-0.018c9.422-10.377 22.955-16.877 38.006-16.912h0.006c15.040 0.154 28.539 6.622 37.995 16.875l0.033 0.036c17.052 17.429 40.812 28.236 67.095 28.236s50.044-10.806 67.079-28.219l0.016-0.017c9.428-10.378 22.965-16.878 38.021-16.912h0.006c15.039 0.158 28.536 6.625 37.995 16.876l0.033 0.036c17.052 17.429 40.812 28.236 67.095 28.236s50.044-10.806 67.079-28.219l0.016-0.017c9.426-10.381 22.965-16.882 38.022-16.912h0.005c4.53 0 9.728-5.585 9.728-17.998-0.243-10.313-3.867-19.735-9.801-27.248l0.073 0.096zM322.001 634.182c-10.302 0-11.698 5.43-11.698 15.515v93.091c0 10.085 1.396 12.878 11.698 12.878 0.042 0 0.092 0.001 0.142 0.001 10.174 0 18.441-8.16 18.615-18.292v-84.884c-0.174-10.148-8.442-18.308-18.616-18.308-0.050 0-0.1 0-0.15 0.001h0.008zM322.001 634.182l-1.877 96.194-9.837 6.516c-18.886 11.998-31.238 32.806-31.238 56.5 0 6.625 0.966 13.025 2.764 19.065l-0.121-0.472c3.518 15.007 9.344 28.229 17.162 40.015l-0.282-0.452c1.444 2.23 3.327 4.055 5.54 5.388l0.076 0.043c3.118 6.172 9.409 10.331 16.672 10.331 1.065 0 2.11-0.089 3.126-0.261l-0.11 0.015c9.037-1.106 15.967-8.733 15.967-17.979 0-0.279-0.006-0.557-0.019-0.833l0.001 0.039c4.906-9.809 10.362-18.255 16.615-26.032l-0.216 0.277c3.669-4.728 7.379-10.093 10.798-15.657l0.451-0.789c3.242-5.057 5.168-11.228 5.168-17.848 0-3.429-0.517-6.737-1.476-9.85l0.063 0.237c-7.762-19.086-22.397-34.029-40.758-42.009l-0.496-0.192zM321.536 713.619c-1.723-4.158-2.724-8.987-2.724-14.049 0-7.579 2.243-14.635 6.101-20.539l-0.088 0.144c4.965 3.216 9.047 7.372 12.083 12.247l0.096 0.165c-2.343 3.568-5.616 8.223-9.309 13.343-1.877 3.103-4.22 5.896-6.097 8.688v0zM585.759 634.182c-10.302 0-11.698 5.43-11.698 15.515v93.091c0 10.085 1.396 12.878 11.698 12.878s19.332-2.793 19.332-12.878v-93.091c-0.681-8.803-7.991-15.689-16.911-15.689-0.854 0-1.694 0.063-2.514 0.185l0.093-0.011zM585.759 634.182l-1.877 96.194-9.837 6.516c-18.886 11.998-31.238 32.806-31.238 56.5 0 6.625 0.966 13.025 2.764 19.065l-0.121-0.472c3.518 15.007 9.344 28.229 17.162 40.015l-0.282-0.452c1.444 2.23 3.327 4.055 5.54 5.388l0.076 0.043c3.118 6.172 9.409 10.331 16.672 10.331 1.065 0 2.11-0.089 3.126-0.261l-0.11 0.015c9.037-1.106 15.967-8.733 15.967-17.979 0-0.279-0.006-0.557-0.019-0.833l0.001 0.039c4.906-9.809 10.362-18.255 16.615-26.032l-0.216 0.277c3.669-4.728 7.379-10.093 10.798-15.657l0.451-0.789c3.242-5.057 5.168-11.228 5.168-17.848 0-3.429-0.517-6.737-1.476-9.85l0.063 0.237c-7.762-19.086-22.397-34.029-40.758-42.009l-0.496-0.192zM585.294 713.619c-1.723-4.158-2.724-8.987-2.724-14.049 0-7.579 2.243-14.635 6.101-20.539l-0.088 0.144c4.965 3.216 9.047 7.372 12.083 12.247l0.096 0.165c-2.343 3.568-5.616 8.223-9.309 13.343-1.877 3.103-4.22 5.896-6.097 8.688v0zM445.905 634.182c-10.256 0-11.481 1.396-11.481 15.515v124.121c0 14.119 1.226 30.41 11.481 30.41s19.549-16.291 19.549-30.41v-124.121c0-14.119-9.309-15.515-19.549-15.515v0zM445.905 634.182l-1.862 134.827-9.79 8.999c-25.662 23.738-35.452 60.975-28.455 105.193 3.345 20.677 9.197 39.241 17.331 56.518l-0.543-1.284c1.298 3.025 3.201 5.569 5.572 7.578l0.029 0.024c1.744 8.188 8.915 14.24 17.5 14.24 0.733 0 1.456-0.044 2.165-0.13l-0.085 0.008c9.463-3.406 16.107-12.304 16.107-22.754 0-1.223-0.091-2.425-0.267-3.599l0.016 0.132c4.902-13.927 10.409-25.807 16.887-37.059l-0.565 1.064c4.205-8.378 8.409-15.981 11.202-23.118 3.256-7.394 5.151-16.014 5.151-25.076 0-4.747-0.52-9.373-1.506-13.824l0.079 0.423c-6.231-24.677-20.904-45.232-40.7-58.892l-0.338-0.221zM445.44 745.115c-1.73-5.848-2.725-12.566-2.725-19.517 0-10.34 2.203-20.165 6.164-29.032l-0.181 0.452c5.069 4.807 9.166 10.584 12.001 17.040l0.132 0.337c-2.327 5.12-5.601 11.481-9.309 18.618-1.877 4.499-4.205 8.378-6.066 12.102v0z" />
<glyph unicode="&#xe904;" glyph-name="tel" horiz-adv-x="678" d="M83.027 960v0c-45.855 0-83.027-37.172-83.027-83.027v-857.946c0-45.855 37.172-83.027 83.027-83.027h512c45.855 0 83.027 37.172 83.027 83.027v857.946c0 45.855-37.172 83.027-83.027 83.027h-512zM282.43 946.162h124.541c11.464 0 20.757-9.293 20.757-20.757s-9.293-20.757-20.757-20.757v0h-124.541c-11.464 0-20.757 9.293-20.757 20.757s9.293 20.757 20.757 20.757v0zM210.612 410.776l227.771 131.459 27.676-48.017-227.771-131.459zM230.262 529.92l83.996 48.432 27.676-48.017-83.996-48.432zM103.922 932.324h470.21c42.262-0.696 76.255-35.119 76.255-77.482 0-0.393-0.003-0.785-0.009-1.176l0.001 0.059v-811.451c0.005-0.332 0.008-0.724 0.008-1.117 0-42.363-33.993-76.786-76.189-77.481l-0.065-0.001h-470.21c-42.262 0.696-76.255 35.119-76.255 77.482 0 0.393 0.003 0.785 0.009 1.176l-0.001-0.059v811.451c-0.005 0.332-0.008 0.724-0.008 1.117 0 42.363 33.993 76.786 76.189 77.481l0.065 0.001zM256 946.162h166.054c11.464 0 20.757-9.293 20.757-20.757s-9.293-20.757-20.757-20.757v0h-166.054c-11.464 0-20.757 9.293-20.757 20.757s9.293 20.757 20.757 20.757v0zM210.612 410.776l227.771 131.459 27.676-48.017-227.771-131.459zM230.262 529.92l83.996 48.432 27.676-48.017-83.996-48.432z" />
<glyph unicode="&#xe905;" glyph-name="checked" d="M942.080-64h-860.16c-45.243 0-81.92 36.677-81.92 81.92v0 860.16c0 45.243 36.677 81.92 81.92 81.92v0h860.16c45.243 0 81.92-36.677 81.92-81.92v0-860.16c0-45.243-36.677-81.92-81.92-81.92v0zM962.56 675.738l-178.176-184.525c-2.068-4.316-4.6-8.028-7.607-11.296l0.029 0.032-85.811-85.402-203.571-210.739c-23.962-23.757-56.525-30.106-72.704-14.131-3.941 3.977-6.763 9.067-7.953 14.758l-0.034 0.193-155.238 154.419c-10.445 10.24-5.734 31.744 10.445 47.718s37.683 20.89 48.128 10.445l133.325-132.506 189.030 188.006 309.453 320.307c5.929 5.936 12.743 10.986 20.228 14.936l0.457 0.22v28.467c0 45.243-36.677 81.92-81.92 81.92v0h-737.28c-45.243 0-81.92-36.677-81.92-81.92v0-737.28c0-45.243 36.677-81.92 81.92-81.92v0h737.28c45.243 0 81.92 36.677 81.92 81.92v0 596.378z" />
<glyph unicode="&#xe906;" glyph-name="name" horiz-adv-x="819" d="M409.6-64c-226.225 0-409.6 79.73-409.6 178.018s183.375 178.097 409.6 178.097 409.6-79.73 409.6-178.097-183.391-178.018-409.6-178.018zM409.6 251.266c-208.817 0-378.092-63.52-378.092-141.879s169.275-141.879 378.092-141.879 378.092 63.52 378.092 141.879-169.275 141.879-378.092 141.879zM393.846 329.846c-174.012 0-315.077 141.065-315.077 315.077s141.065 315.077 315.077 315.077c174.012 0 315.077-141.065 315.077-315.077v0c0-174.012-141.065-315.077-315.077-315.077v0zM393.846 928.492c-156.611 0-283.569-126.958-283.569-283.569s126.958-283.569 283.569-283.569c156.611 0 283.569 126.958 283.569 283.569v0c0 156.611-126.958 283.569-283.569 283.569v0zM496.246 613.415c-13.051 0-23.631 10.58-23.631 23.631v0 126.031c0 13.051 10.58 23.631 23.631 23.631s23.631-10.58 23.631-23.631v0-126.031c0-13.051-10.58-23.631-23.631-23.631v0zM306.018 613.652c-12.489 0.579-22.401 10.821-22.449 23.39v126.036c0 13.051 10.58 23.631 23.631 23.631s23.631-10.58 23.631-23.631v0-126.031c-0.113-2.564-0.629-4.974-1.487-7.215l0.053 0.157c-8.93-4.598-16.618-10.038-23.441-16.394l0.062 0.057zM393.846 471.631c47.106 0.429 87.464 28.87 105.259 69.454l0.291 0.745c2.98-6.762 4.718-14.646 4.726-22.935v-0.003c0-43.496-49.373-78.769-110.277-78.769s-110.277 35.273-110.277 78.769c0.008 8.292 1.746 16.175 4.872 23.312l-0.146-0.375c18.096-41.321 58.449-69.757 105.494-70.199h0.057z" />
<glyph unicode="&#xe907;" glyph-name="unchecked" d="M942.080-64h-860.16c-45.243 0-81.92 36.677-81.92 81.92v0 860.16c0 45.243 36.677 81.92 81.92 81.92v0h860.16c45.243 0 81.92-36.677 81.92-81.92v0-860.16c0-45.243-36.677-81.92-81.92-81.92v0zM962.56 816.64c0 45.243-36.677 81.92-81.92 81.92v0h-737.28c-45.243 0-81.92-36.677-81.92-81.92v0-737.28c0-45.243 36.677-81.92 81.92-81.92v0h737.28c45.243 0 81.92 36.677 81.92 81.92v0 737.28z" />
<glyph unicode="&#xe908;" glyph-name="double-line" horiz-adv-x="1098" d="M994.783 957.184c58.082 0 83.779-47.169 57.026-105.603l-340.043-739.223c-28.986-58.853-86.205-99.889-153.491-105.557l-0.69-0.047c-58.082 0-83.779 47.169-57.026 105.603l340.043 739.223c28.986 58.853 86.205 99.889 153.491 105.557l0.69 0.047zM407.629 675.575c58.434 0 83.779-47.169 57.026-105.603l-242.888-528.017c-28.922-58.765-85.99-99.772-153.127-105.555l-0.702-0.049c-58.434 0-84.131 47.169-57.378 105.603l242.888 528.017c28.986 58.853 86.205 99.889 153.491 105.557l0.69 0.047zM165.093 960c48.603 0 88.003-39.4 88.003-88.003s-39.4-88.003-88.003-88.003c-48.603 0-88.003 39.4-88.003 88.003v0c0 48.603 39.4 88.003 88.003 88.003v0zM1027.52 255.978c38.882 0 70.402-31.52 70.402-70.402s-31.52-70.402-70.402-70.402c-38.882 0-70.402 31.52-70.402 70.402v0c0.12 38.834 31.568 70.283 70.391 70.402h0.011z" />
<glyph unicode="&#xe909;" horiz-adv-x="899" d="M626.204 678.491c27.745 18.976 51.594 40.922 71.948 65.836l0.479 0.604c32.862 39.76 71.581 105.289 70.084 191.252 0 8.069-5.857 23.817-18.286 23.817-6.963 0-13.405-5.011-19.522-15.422v0 0c-1.887-3.969-3.644-8.46-5.531-13.015-13.015-33.968-35.595-91.103-164.832-162.684l-6.507-3.644 67.677-88.956z" />
<glyph unicode="&#xe90a;" horiz-adv-x="899" d="M237.194 726.125s-51.408 61.299-229.32 46.593c-16.399 5.466-25.834-158.78 172.641-228.148 74.64 47.634 56.679 181.556 56.679 181.556z" />
<glyph unicode="&#xe90b;" horiz-adv-x="899" d="M251.25 679.337s-161.318 111.406-249.232 86.613c1.301 4.295 2.668 6.507 4.295 6.507 55.768 11.648 222.097 10.672 309.035-78.999-21.149-73.468-64.098-14.121-64.098-14.121z" />
<glyph unicode="&#xe90c;" horiz-adv-x="899" d="M662.255 726.125s51.408 61.299 229.32 46.593c16.399 5.401 26.029-159.105-172.641-228.214-74.64 47.699-56.679 181.621-56.679 181.621z" />
<glyph unicode="&#xe90d;" horiz-adv-x="899" d="M648.199 679.337s161.253 111.406 249.232 86.613c-1.301 4.295-2.668 6.507-4.295 6.507-55.833 11.323-222.162 10.607-309.1-79.325 21.214-73.143 64.163-13.796 64.163-13.796z" />
<glyph unicode="&#xe90e;" horiz-adv-x="899" d="M273.245 678.491c-27.746 18.974-51.596 40.921-71.949 65.836l-0.479 0.604c-32.537 39.76-71.581 105.289-70.084 191.252 0 8.069 5.857 23.817 18.286 23.817 6.963 0 13.405-5.011 19.522-15.422v0 0c1.887-3.969 3.644-8.46 5.531-13.015 13.015-33.968 35.595-91.103 164.897-162.684l6.507-3.644-67.221-89.867z" />
<glyph unicode="&#xe90f;" horiz-adv-x="899" d="M823.443 245.881l-47.439 294.198c-7.483 112.903-49.716 195.612-135.353 231.467-57.525 26.029-171.014 60.128-183.313 60.128-39.044 1.692-136.004-47.244-179.473-62.015-125.462-44.315-132.49-120.386-154.485-244.287l-47.439-279.427c-10.867-163.14 84.010-302.593 212.466-302.593h322.57c128.325-0.065 223.333 139.388 212.466 302.528z" />
<glyph unicode="&#xe910;" horiz-adv-x="899" d="M823.443 208.854c-27.917 222.877-292.376 17.114-475.689 34.164-182.206 16.594-305.196 36.181-266.802-114.855 27.136-104.899 105.224-173.096 207.52-184.874 80.756-9.24 230.947-10.217 322.505 0 127.675 14.251 223.333 122.404 212.466 265.566z" />
<glyph unicode="&#xe911;" horiz-adv-x="899" d="M269.991 638.015c-5.531 0-4.62 3.709-2.343 4.815 10.442 5.755 22.837 9.262 36.024 9.564l0.092 0.002c0.439 0.013 0.955 0.020 1.474 0.020 12.45 0 23.921-4.192 33.078-11.242l-0.127 0.094s3.319-2.213 1.171-4.62c0 0-1.952-3.319-21.604 2.343-7.809 2.278-30.389 6.507-47.829-0.911z" />
<glyph unicode="&#xe912;" horiz-adv-x="899" d="M599.329 641.855c5.531 0 4.62 3.709 2.343 4.815-10.442 5.753-22.837 9.26-36.023 9.564l-0.093 0.002c-0.433 0.012-0.943 0.019-1.454 0.019-12.487 0-23.989-4.217-33.16-11.305l0.125 0.093s-3.319-2.278-1.171-4.62c0 0 1.952-3.319 21.604 2.343 7.809 2.213 30.389 6.507 47.829-0.911z" />
<glyph unicode="&#xe913;" horiz-adv-x="899" d="M271.357 128.228c0-29.362-23.803-53.165-53.165-53.165s-53.165 23.803-53.165 53.165c0 29.362 23.803 53.165 53.165 53.165s53.165-23.803 53.165-53.165z" />
<glyph unicode="&#xe914;" horiz-adv-x="899" d="M733.446 128.228c0-29.398-23.832-53.23-53.23-53.23s-53.23 23.832-53.23 53.23c0 29.398 23.832 53.23 53.23 53.23s53.23-23.832 53.23-53.23z" />
<glyph unicode="&#xe915;" horiz-adv-x="899" d="M326.54 871.955s68.653 19.522 99.563-42.233c0 20.954 35.595 62.21 76.982 60.649-19.522-18.351-26.029-36.506-7.093-55.573 0 0 23.492 35.986 50.627 25.704 6.507-2.408 23.882-20.563 0.716-37.417 45.096 4.75 62.926-36.441 44.055-74.184-12.429 27.917-44.055 29.348-44.055 29.348s30.91-75.616-61.82-81.407c9.956 9.891 43.469 68.197-13.015 71.126-10.021-40.020-22.776-88.956-108.087-64.683 63.056 29.413 41.712 75.941 41.712 75.941s-121.167-123.119-167.89 24.077c64.618-34.619 164.181-9.761 88.305 68.653z" />
<glyph unicode="&#xe916;" horiz-adv-x="899" d="M411.006 453.336c0-50.531-40.963-91.494-91.494-91.494s-91.494 40.963-91.494 91.494c0 50.531 40.963 91.494 91.494 91.494s91.494-40.963 91.494-91.494z" />
<glyph unicode="&#xe917;" horiz-adv-x="899" d="M326.892 496.27c18.066-4.025 29.404-22.132 25.324-40.443s-22.032-29.893-40.098-25.868c-18.066 4.025-29.404 22.132-25.324 40.443s22.032 29.893 40.098 25.868z" />
<glyph unicode="&#xe918;" horiz-adv-x="899" d="M319.907 493.236c6.887-0.828 11.798-7.083 10.969-13.969s-7.083-11.798-13.969-10.969c-6.887 0.828-11.798 7.083-10.969 13.969s7.083 11.798 13.969 10.969z" />
<glyph unicode="&#xe919;" horiz-adv-x="899" d="M671.431 453.336c0-50.531-40.963-91.494-91.494-91.494s-91.494 40.963-91.494 91.494c0 50.531 40.963 91.494 91.494 91.494s91.494-40.963 91.494-91.494z" />
<glyph unicode="&#xe91a;" horiz-adv-x="899" d="M587.27 496.35c18.066-4.025 29.404-22.132 25.324-40.443s-22.032-29.893-40.098-25.868c-18.066 4.025-29.404 22.132-25.324 40.443s22.032 29.893 40.098 25.868z" />
<glyph unicode="&#xe91b;" horiz-adv-x="899" d="M580.26 493.259c6.887-0.828 11.798-7.083 10.969-13.969s-7.083-11.798-13.969-10.969c-6.887 0.828-11.798 7.083-10.969 13.969s7.083 11.798 13.969 10.969z" />
<glyph unicode="&#xe91c;" horiz-adv-x="899" d="M251.25 268.266c-0.077 0-0.169 0-0.26 0-98.581 0-178.497 79.916-178.497 178.497s79.916 178.497 178.497 178.497c98.581 0 178.497-79.916 178.497-178.497v0c-0.111-98.445-79.812-178.238-178.212-178.497h-0.025zM251.25 587.908c-77.924-0.037-141.080-63.216-141.080-141.145 0-77.952 63.193-141.145 141.145-141.145s141.145 63.193 141.145 141.145v0c-0.111 77.93-63.274 141.071-141.203 141.145h-0.007z" />
<glyph unicode="&#xe91d;" horiz-adv-x="899" d="M648.199 268.266c-98.581 0-178.497 79.916-178.497 178.497s79.916 178.497 178.497 178.497c98.581 0 178.497-79.916 178.497-178.497v0c-0.111-98.537-79.961-178.386-178.487-178.497h-0.010zM648.199 587.908c-77.952 0-141.145-63.193-141.145-141.145s63.193-141.145 141.145-141.145c77.952 0 141.145 63.193 141.145 141.145v0c-0.111 77.908-63.237 141.034-141.134 141.145h-0.011z" />
<glyph unicode="&#xe91e;" horiz-adv-x="899" d="M474.452 431.211c-5.374 7.421-13.625 12.475-23.083 13.522l-0.148 0.013c-10.592-0.547-20.090-4.829-27.292-11.542l0.026 0.024-26.029 26.55c14.198 13.879 33.611 22.475 55.032 22.581h0.020c20.482-1.458 38.324-11.654 49.986-26.842l0.121-0.164z" />
<glyph unicode="&#xe91f;" glyph-name="circle" horiz-adv-x="1201" d="M1192.783 288.75l-19.421-21.539-50.847 56.85c-60.624-225.111-262.93-388.074-503.298-388.074-1.321 0-2.642 0.005-3.961 0.015l0.203-0.001c-0.452-0.001-0.987-0.002-1.522-0.002-147.38 0-280.62 60.538-376.211 158.103l-0.087 0.089c26.483 3.178 51.906 7.415 75.917 12.359 80.678-68.507 186.018-110.169 301.090-110.169 0.286 0 0.572 0 0.858 0.001h-0.044c1.331-0.014 2.903-0.022 4.477-0.022 239.942 0 436.694 184.921 455.513 420.020l0.104 1.607c-1.481 10.276-4.198 19.553-8.037 28.223l0.269-0.681c2.838 1.19 6.137 1.881 9.596 1.881 7.737 0 14.666-3.456 19.329-8.908l0.029-0.035 13.065-14.83c9.534 1.059 19.068 1.766 27.895 2.825-0.353-10.24-1.766-20.48-2.825-30.72l57.909-64.265c4.936-5.695 7.944-13.177 7.944-21.363s-3.008-15.668-7.978-21.404l0.035 0.041zM615.459 839.592c212.544-4.883 382.976-178.339 382.976-391.601 0-216.329-175.369-391.698-391.698-391.698s-391.698 175.369-391.698 391.698c0 0.003 0 0.006 0 0.009v-0.001c2.62 216.84 179.012 391.614 396.226 391.614 1.475 0 2.948-0.008 4.419-0.024l-0.225 0.002zM984.452 718.83c-85.49 110.403-218.066 180.793-367.083 180.793-0.671 0-1.343-0.001-2.013-0.004h0.103c-1.52 0.018-3.316 0.029-5.113 0.029-250.467 0-453.85-201.593-456.743-451.374l-0.002-0.274c0.3-21.96 1.959-43.237 4.898-64.102l-0.307 2.662q-24.717 1.059-50.847 1.059h-11.299c-0.706 6.356-0.706 13.065-1.412 19.421l-87.217 97.103c-4.941 5.756-7.949 13.296-7.949 21.539s3.008 15.784 7.986 21.584l-0.037-0.044 19.421 21.186 67.443-75.211c27.227 263.27 247.88 466.828 516.076 466.828 1.795 0 3.587-0.009 5.378-0.027l-0.273 0.002c0.592 0.002 1.291 0.004 1.992 0.004 185.106 0 347.837-95.8 441.318-240.523l1.248-2.063c-19.421 1.059-39.194 1.766-59.674 1.766-5.297 0-10.593-0.353-15.89-0.353z" />
<glyph unicode="&#xe920;" glyph-name="wechat" horiz-adv-x="1252" d="M1102.127 41.813c13.856-30.742 24.228-66.418 29.352-103.768l0.23-2.046-113.019 65.991c-40.692-14.184-87.598-22.377-136.418-22.377-0.307 0-0.615 0-0.922 0.001h0.048c-204.421 0-369.778 141.464-369.778 315.923s165.357 315.923 369.778 315.923 370.157-141.464 370.157-315.923c-2.846-107.811-61.506-201.312-148.040-252.957l-1.388-0.768zM772.551 448c-24.848-2.77-43.994-23.658-43.994-49.017 0-27.23 22.074-49.304 49.304-49.304s49.304 22.074 49.304 49.304c0 0.033 0 0.065 0 0.098v-0.005c-1.55 27.384-24.133 49.003-51.767 49.003-1.001 0-1.996-0.028-2.983-0.084l0.137 0.006zM1012.243 448c-25.025-2.589-44.373-23.563-44.373-49.057 0-27.23 22.074-49.304 49.304-49.304s49.304 22.074 49.304 49.304c0 0.046 0 0.093 0 0.139v-0.007c-1.622 27.384-24.226 48.978-51.873 48.978-0.83 0-1.656-0.019-2.477-0.058l0.116 0.004zM479.004 295.538c0-0.038 0-0.083 0-0.128 0-34.862 5.973-68.329 16.951-99.433l-0.643 2.091c-16.308-1.517-32.616-2.276-49.304-2.276-0.585-0.002-1.276-0.004-1.968-0.004-58.511 0-114.686 10.002-166.908 28.39l3.519-1.080-136.154-80.024c6.596 47.62 19.085 90.7 36.875 130.911l-1.224-3.101c-106.012 63.592-176.693 176.584-180.138 306.333l-0.010 0.488c0 211.247 199.87 382.293 446.009 382.293 220.35 0 402.773-136.533 439.561-315.923-224.901-0.759-406.566-156.634-406.566-348.539zM304.545 763.923c-25.864-4.997-45.132-27.457-45.132-54.417 0-30.581 24.791-55.372 55.372-55.372 30.512 0 55.26 24.679 55.371 55.164v0.011c-3.078 30.904-28.944 54.838-60.399 54.838-1.835 0-3.651-0.081-5.444-0.241l0.232 0.017zM620.468 763.923c-26.010-4.857-45.435-27.38-45.435-54.441 0-30.56 24.774-55.334 55.334-55.334 30.5 0 55.236 24.676 55.334 55.153v0.009c-3.192 30.9-29.089 54.792-60.567 54.792-1.642 0-3.269-0.065-4.878-0.193l0.212 0.014z" />
<glyph unicode="&#xe921;" glyph-name="recode" horiz-adv-x="892" d="M132.129 960v0c-72.973 0-132.129-59.156-132.129-132.129v-627.613c0-72.973 59.156-132.129 132.129-132.129h495.484c72.973 0 132.129 59.156 132.129 132.129v627.613c0 72.973-59.156 132.129-132.129 132.129h-495.484zM309.843 728.774h338.25c25.153-0.056 45.528-20.432 45.585-45.579v-0.666c-0.056-25.153-20.432-45.528-45.579-45.585h-338.255c-25.153 0.056-45.528 20.432-45.585 45.579v0.666c0.056 25.153 20.432 45.528 45.579 45.585h0.005zM309.843 544.124h338.25c25.196-0.094 45.585-20.541 45.585-45.749 0-0.058 0-0.116 0-0.174v0.009-0.33c-0.056-25.153-20.432-45.528-45.579-45.585h-338.255c-25.153 0.056-45.528 20.432-45.585 45.579v0.335c0 0.049 0 0.107 0 0.165 0 25.209 20.389 45.656 45.576 45.749h0.009zM309.843 359.143h338.25c25.153-0.056 45.528-20.432 45.585-45.579v-1.657c-0.056-25.153-20.432-45.528-45.579-45.585h-338.255c-25.153 0.056-45.528 20.432-45.585 45.579v1.657c0.056 25.153 20.432 45.528 45.579 45.585h0.005zM309.843 544.124h338.25c25.196-0.094 45.585-20.541 45.585-45.749 0-0.058 0-0.116 0-0.174v0.009-0.33c-0.056-25.153-20.432-45.528-45.579-45.585h-338.255c-25.153 0.056-45.528 20.432-45.585 45.579v0.335c0 0.049 0 0.107 0 0.165 0 25.209 20.389 45.656 45.576 45.749h0.009zM144.681 728.774h7.597c0.049 0 0.107 0 0.165 0 25.209 0 45.656-20.389 45.749-45.576v-371.292c-0.094-25.196-20.541-45.585-45.749-45.585-0.058 0-0.116 0-0.174 0h-7.588c-25.153 0.056-45.528 20.432-45.585 45.579v371.288c0.056 25.153 20.432 45.528 45.579 45.585h0.005zM759.742-64h-495.484c-61.059 0.205-112.348 41.794-127.297 98.175l-0.208 0.922h523.892c72.973 0 132.129 59.156 132.129 132.129v0 656.021c57.303-15.157 98.892-66.445 99.097-127.481v-627.636c0-72.973-59.156-132.129-132.129-132.129v0z" />
<glyph unicode="&#xe922;" glyph-name="card-stroke" horiz-adv-x="1306" d="M1165.241-64h-882.759c-56.91 0.123-105.905 33.884-128.168 82.452l-0.362 0.88c16.948-8.026 36.821-12.712 57.788-12.712 0.042 0 0.085 0 0.127 0h882.752c35.576 0.165 67.999 13.526 92.657 35.436l-0.144-0.125h18.361c16.723 0.119 30.248 13.644 30.367 30.356v9.898c-0.127 7.913-3.19 15.088-8.143 20.504l0.021-0.024c5.006 13.43 7.97 28.944 8.121 45.131v317.859h40.254c16.723 0.119 30.248 13.644 30.367 30.356v0.011-418.781c0-78.005-63.236-141.241-141.241-141.241v0zM1276.116 571.586h-40.254v176.552c0 0.036 0 0.078 0 0.121 0 20.967-4.686 40.84-13.068 58.629l0.356-0.84c49.448-22.624 83.21-71.619 83.332-128.514v-136.314c-0.119 16.723-13.644 30.248-30.356 30.367h-0.011zM1024 77.241h-882.759c-78.005 0-141.241 63.236-141.241 141.241v0 418.781c0.119-16.723 13.644-30.248 30.356-30.367h1104.519c16.723 0.119 30.248 13.644 30.367 30.356v0.011-418.781c0-78.005-63.236-141.241-141.241-141.241v0zM635.586 223.426c0 0.063 0.001 0.138 0.001 0.213 0 16.654-13.501 30.155-30.155 30.155-0.075 0-0.149 0-0.224-0.001h-45.186c-0.063 0-0.138 0.001-0.213 0.001-16.654 0-30.155-13.501-30.155-30.155 0-0.075 0-0.149 0.001-0.224v0.011-9.887c0-16.771 13.596-30.367 30.367-30.367v0h45.197c16.771 0 30.367 13.596 30.367 30.367v9.887zM1094.621 223.426c0 16.771-13.596 30.367-30.367 30.367v0h-327.68c-0.063 0-0.138 0.001-0.213 0.001-16.654 0-30.155-13.501-30.155-30.155 0-0.075 0-0.149 0.001-0.224v0.011-9.887c0-16.771 13.596-30.367 30.367-30.367v0h327.68c16.723 0.119 30.248 13.644 30.367 30.356v9.898zM1134.874 712.828h-1104.508c-16.723-0.119-30.248-13.644-30.367-30.356v-0.011 136.298c0 78.005 63.236 141.241 141.241 141.241v0h882.759c78.005 0 141.241-63.236 141.241-141.241v0-136.298c-0.119 16.723-13.644 30.248-30.356 30.367h-0.011z" />
<glyph unicode="&#xe923;" glyph-name="coupon" horiz-adv-x="1223" d="M1181.333 327.333c-70 35-91 63-91 119 0 52.333 21 80.333 91 118.667 25.414 12.968 42.515 38.951 42.515 68.928 0 4.025-0.308 7.978-0.902 11.836l0.055-0.431v199c-0.505 63.492-51.841 114.828-115.285 115.333h-992.381c-63.492-0.505-114.828-51.841-115.333-115.285v-199.048c-0.525-3.388-0.826-7.295-0.826-11.273 0-30.008 17.085-56.026 42.057-68.858l0.435-0.203c28-14 91-49 91-118.667 0.179-2.35 0.281-5.089 0.281-7.852 0-52.774-37.254-96.846-86.898-107.354l-0.717-0.127h-3.667c-25.274-16.605-41.731-44.825-41.731-76.89 0-1.211 0.023-2.417 0.070-3.616l-0.005 0.173v-199.333c0.655-63.364 51.942-114.534 115.289-115h992.377c63.392 0.466 114.678 51.636 115.333 114.938l0.001 0.062v199.333c0.015 0.597 0.023 1.3 0.023 2.005 0 31.406-16.508 58.956-41.32 74.446l-0.37 0.215zM796.667 397.333c21.263 0 38.5-17.237 38.5-38.5s-17.237-38.5-38.5-38.5h-146.667v-146.667c0-21.263-17.237-38.5-38.5-38.5s-38.5 17.237-38.5 38.5v0 146.667h-146.667c-21.263 0-38.5 17.237-38.5 38.5s17.237 38.5 38.5 38.5h146.667v90.667h-157.333c-21.263 0-38.5 17.237-38.5 38.5s17.237 38.5 38.5 38.5h115.333l-122.333 122.333c-6.496 6.787-10.495 16.010-10.495 26.167s3.999 19.38 10.509 26.181l-0.013-0.014c6.845 6.502 16.122 10.502 26.333 10.502s19.488-3.999 26.35-10.517l-0.017 0.016 150-150.333 150.333 150.333c6.845 6.502 16.122 10.502 26.333 10.502s19.488-3.999 26.35-10.517l-0.017 0.016c6.496-6.787 10.495-16.010 10.495-26.167s-3.999-19.38-10.509-26.181l0.013 0.014-122.333-122.333h111.667c21.263 0 38.5-17.237 38.5-38.5s-17.237-38.5-38.5-38.5h-157.333v-90.667h150.333z" />
<glyph unicode="&#xe924;" glyph-name="edit" horiz-adv-x="998" d="M994.315 531.436l-249.876-432.887-149.868 86.462 249.876 432.887c5.058 8.752 14.371 14.546 25.037 14.546 5.321 0 10.305-1.442 14.582-3.956l-0.135 0.074 99.72-57.641c8.752-5.058 14.546-14.371 14.546-25.037 0-5.321-1.442-10.305-3.956-14.582l0.074 0.135zM364.582 380.415c-158.991 1.387-287.342 130.595-287.342 289.782 0 160.048 129.744 289.792 289.792 289.792 159.994 0 289.704-129.657 289.792-289.63v-0.008c-0.752-160.289-130.865-289.938-291.259-289.938-0.346 0-0.691 0.001-1.037 0.002h0.054zM608.982 323.062l-140.645-243.535c-6.164-10.9-10.37-23.702-11.781-37.335l-0.035-0.42c-26.515-2.594-53.607-4.035-81.851-4.035-206.933 0-374.669 71.764-374.669 160.531s167.737 160.243 374.669 160.243c2.675 0.035 5.834 0.055 8.998 0.055 80.525 0 158.015-12.99 230.49-36.989l-5.176 1.485zM532.607-6.070l0.059 0.225c-0.904-2.945-1.39-6.073-1.39-9.314 0-10.414 5.022-19.656 12.859-25.495l35.558-20.387c3.8-1.79 8.045-2.79 12.524-2.79 9.022 0 17.095 4.060 22.529 10.496l107.501 113.554-149.868 86.462zM572.379 146.679l149.868-86.462-107.501-113.554c-5.434-6.436-13.507-10.496-22.529-10.496-4.479 0-8.724 1.001-12.524 2.79l0.18-0.076-35.738 20.463c-7.838 5.839-12.859 15.081-12.859 25.495 0 3.241 0.486 6.369 1.39 9.314l-0.059-0.225z" />
<glyph unicode="&#xe925;" glyph-name="bind-card" horiz-adv-x="1390" d="M1330.322 323.291l-140.727-138.24c-31.796-22.666-71.438-36.239-114.251-36.239-50.095 0-95.849 18.583-130.745 49.231l0.223-0.192 82.542 80.457 10.313-9.509c24.101-22.674 74.021-10.971 111.47 25.6l85.614 84.114c37.449 36.937 48.311 85.211 24.21 107.52l-18.286 17.189c-24.064 22.674-73.984 11.337-111.433-25.6l-50.505-49.737c-76.8-5.12-77.861 52.297-73.362 82.286l61.477 60.343c70.912 69.486 177.152 80.457 237.312 23.771l45.605-42.789c60.16-56.32 51.456-158.354-19.456-228.206zM1349.778 551.497v0zM31.525 704c-17.376-0.041-31.458-14.085-31.561-31.442v-0.010 141.166c0 80.791 65.494 146.286 146.286 146.286v0h914.286c80.791 0 146.286-65.494 146.286-146.286v0-69.486c-35.615-9.421-66.848-23.201-95.258-41.059l1.416 0.831h-1081.454zM31.525 594.286h958.171l-311.259-311.223c-61.181-60.839-99.724-144.389-101.917-236.936l-0.008-0.412h-430.226c-80.791 0-146.286 65.494-146.286 146.286v0 433.737c0.103-17.354 14.165-31.39 31.519-31.451h0.006zM512 186.88c0-0.033 0-0.071 0-0.11 0-17.31 14.032-31.342 31.342-31.342 0.026 0 0.052 0 0.077 0h10.309c0.022 0 0.048 0 0.073 0 17.31 0 31.342 14.032 31.342 31.342 0 0.039 0 0.077 0 0.116v-0.006 10.24c0 0.033 0 0.071 0 0.11 0 17.31-14.032 31.342-31.342 31.342-0.026 0-0.052 0-0.077 0h-10.309c-0.022 0-0.048 0-0.073 0-17.31 0-31.342-14.032-31.342-31.342 0-0.039 0-0.077 0-0.116v0.006-10.24zM365.714 186.88c0-0.033 0-0.071 0-0.11 0-17.31 14.032-31.342 31.342-31.342 0.026 0 0.052 0 0.077 0h10.309c0.022 0 0.048 0 0.073 0 17.31 0 31.342 14.032 31.342 31.342 0 0.039 0 0.077 0 0.116v-0.006 10.24c0 0.033 0 0.071 0 0.11 0 17.31-14.032 31.342-31.342 31.342-0.026 0-0.052 0-0.077 0h-10.309c-0.022 0-0.048 0-0.073 0-17.31 0-31.342-14.032-31.342-31.342 0-0.039 0-0.077 0-0.116v0.006-10.24zM219.429 186.88c0-0.033 0-0.071 0-0.11 0-17.31 14.032-31.342 31.342-31.342 0.026 0 0.052 0 0.077 0h10.273c0.033 0 0.071 0 0.11 0 17.31 0 31.342 14.032 31.342 31.342 0 0.039 0 0.077 0 0.116v-0.006 10.24c0 0.033 0 0.071 0 0.11 0 17.31-14.032 31.342-31.342 31.342-0.039 0-0.077 0-0.116 0h-10.271c-0.022 0-0.048 0-0.073 0-17.31 0-31.342-14.032-31.342-31.342 0-0.039 0-0.077 0-0.116v0.006-10.24zM73.143 186.88c0-0.033 0-0.071 0-0.11 0-17.31 14.032-31.342 31.342-31.342 0.026 0 0.052 0 0.077 0h10.273c0.033 0 0.071 0 0.11 0 17.31 0 31.342 14.032 31.342 31.342 0 0.039 0 0.077 0 0.116v-0.006 10.24c0 0.033 0 0.071 0 0.11 0 17.31-14.032 31.342-31.342 31.342-0.039 0-0.077 0-0.116 0h-10.271c-0.022 0-0.048 0-0.073 0-17.31 0-31.342-14.032-31.342-31.342 0-0.039 0-0.077 0-0.116v0.006-10.24zM902.4 381.074c30.867 20.839 68.906 33.266 109.847 33.266 51.965 0 99.254-20.019 134.577-52.765l-0.127 0.116-84.773-78.263-10.021 9.874c-23.479 23.406-73.655 13.166-112.128-22.674l-87.954-81.92c-38.473-35.84-50.651-83.749-27.209-107.154l17.774-17.554c23.479-23.040 73.655-12.8 112.128 23.040l51.895 48.274c76.8 3.291 76.361-54.126 71.022-84.114l-63.122-58.514c-72.85-68.023-179.2-76.069-237.934-17.92l-44.398 43.886c-58.514 57.783-47.031 159.817 25.819 227.84z" />
<glyph unicode="&#xe926;" glyph-name="rule" horiz-adv-x="768" d="M667.488 640h100.512v-256h-100.512c-0.019 0-0.042 0-0.064 0-15.146 0-27.424-12.278-27.424-27.424 0-0.034 0-0.068 0-0.101v0.005-8.96c0-0.029 0-0.062 0-0.096 0-15.146 12.278-27.424 27.424-27.424 0.023 0 0.045 0 0.068 0h100.508v-256c0-70.692-57.308-128-128-128v0h-512c-70.692 0-128 57.308-128 128v0 768c0 70.692 57.308 128 128 128v0h512c70.692 0 128-57.308 128-128v0-128h-100.512c-0.019 0-0.042 0-0.064 0-15.146 0-27.424-12.278-27.424-27.424 0-0.034 0-0.068 0-0.101v0.005-8.96c0-0.029 0-0.062 0-0.096 0-15.146 12.278-27.424 27.424-27.424 0.023 0 0.045 0 0.068 0h-0.004zM640 507.52c0-0.029 0-0.062 0-0.096 0-15.146 12.278-27.424 27.424-27.424 0.023 0 0.045 0 0.068 0h41.020c0.019 0 0.042 0 0.064 0 15.146 0 27.424 12.278 27.424 27.424 0 0.034 0 0.068 0 0.101v-0.005 8.96c0 0.029 0 0.062 0 0.096 0 15.146-12.278 27.424-27.424 27.424-0.023 0-0.045 0-0.068 0h-41.020c-0.019 0-0.042 0-0.064 0-15.146 0-27.424-12.278-27.424-27.424 0-0.034 0-0.068 0-0.101v0.005-8.96zM448 768c0 35.346-28.654 64-64 64s-64-28.654-64-64v0-448c0-35.346 28.654-64 64-64s64 28.654 64 64v0 448zM384 192c-35.346 0-64-28.654-64-64s28.654-64 64-64c35.346 0 64 28.654 64 64v0c0 35.346-28.654 64-64 64v0z" />
<glyph unicode="&#xe927;" glyph-name="buy-card" horiz-adv-x="1235" d="M933.42-63.471c-120.527 0-177.562 24.232-227.297 65.219-6.938 4.25-12.949 8.982-18.35 14.329l0.008-0.008-272.869 273.751c-16.36 18.297-26.36 42.582-26.36 69.203 0 30.28 12.938 57.538 33.588 76.548l0.073 0.067c32.486 32.804 139.256-1.728 177.421-39.999l35.273-35.273v493.817c0 54.108 28.571 105.818 82.538 105.818 52.295-0.398 94.534-42.883 94.534-95.234 0-0.956-0.014-1.909-0.042-2.858l0.003 0.139v-184.229h-0.67v-246.908h35.273v236.327c4.976 1.014 10.695 1.594 16.55 1.594 40.739 0 74.915-28.098 84.207-65.972l0.123-0.594c1.517 0.952 3.351 1.34 4.938 2.222v-208.849h35.273v219.713c3.323 0.732 7.361 1.332 11.474 1.67l0.342 0.023c41.885-0.198 77.275-27.78 89.201-65.753l0.18-0.665c1.481 0.917 3.104 1.305 4.621 2.152v-192.412h35.273v203.664c2.699 0.623 5.974 1.134 9.312 1.426l0.282 0.020h2.54c51.756-0.44 93.543-42.498 93.543-94.316 0-1.279-0.025-2.552-0.076-3.818l0.006 0.182v-195.904c0-185.076-25.502-335.090-300.911-335.090zM1016.734 649.883c-15.52 47.788-59.652 81.727-111.711 81.727-0.024 0-0.048 0-0.072 0h0.004c-0.044 0-0.097 0-0.15 0-21.034 0-40.823-5.329-58.092-14.71l0.641 0.319v122.255c-0.035 18.096-3.928 35.274-10.898 50.767l0.316-0.786h186.134c77.922 0 141.091-63.168 141.091-141.091v0-114.213c-20.727 20.999-49.508 34.006-81.326 34.006-0.315 0-0.629-0.001-0.943-0.004h0.048c-0.033 0-0.072 0-0.111 0-24.016 0-46.445-6.8-65.465-18.579l0.533 0.307zM564.362 501.456c-51.357 51.957-171.742 6.032-211.636-35.273s-58.165-153.824 0-211.636l257.208-246.908h-468.844c-77.922 0-141.091 63.168-141.091 141.091v0 418.404c0.020-16.797 13.641-30.405 30.44-30.405h575.967c1.869-76.894 3.88-135.024 5.749-137.175 7.019-38.729-39.47 77-47.794 101.903zM0 612.141v136.223c0 77.922 63.168 141.091 141.091 141.091v0h458.968c0.67-51.78 2.152-151.002 4.021-246.908h-573.674c-16.784-0.020-30.385-13.621-30.405-30.403v-0.002z" />
<glyph unicode="&#xe928;" glyph-name="send-card" horiz-adv-x="1428" d="M1134.733 563.538l-96.491-75.109-592.801 342.273c-4.773 2.804-10.514 4.461-16.641 4.461-12.259 0-22.969-6.63-28.74-16.5l-0.085-0.157 59.091 102.358c13.596 23.235 38.429 38.594 66.85 38.594 14.211 0 27.524-3.84 38.96-10.539l-0.364 0.197 534.83-308.771c23-13.565 38.187-38.216 38.187-66.414 0-2.627-0.132-5.223-0.389-7.782l0.026 0.322c-0.579-0.965-1.428-2.007-2.432-2.933zM411.013 770.53l-0.162 0.086c-10.003 5.737-16.741 16.522-16.741 28.88 0 6.164 1.676 11.937 4.514 16.732l-112.393-194.68c3.319-2.046 6.754-4.323 10.421-7.102l578.444-253.038 104.21 81.052-568.409 328.069zM1422.739 322.813c-53.924 77.461-142.528 127.522-242.825 127.522-46.014 0-89.566-10.536-128.377-29.328l1.758 0.768c-61.021-28.291-129.645-62.14-183.757-89.235l-566.826 218.841c-3.56 1.413-7.685 2.235-12.002 2.239h-104.212c-0.038 0-0.082 0-0.127 0-8.769 0-16.734-3.44-22.62-9.045l0.014 0.013c-5.777-5.508-9.381-13.253-9.417-21.839v-555.409c0-0.028 0-0.062 0-0.096 0-8.618 3.612-16.392 9.404-21.892l0.013-0.012c5.831-5.499 13.712-8.879 22.383-8.879 0.123 0 0.246 0.001 0.369 0.002h582.168c0.156-0.003 0.34-0.004 0.524-0.004 5.592 0 10.851 1.431 15.428 3.948l-0.166-0.084 627.229 338.606c7.601 4.095 13.203 11.072 15.391 19.431l0.048 0.215c0.587 2.207 0.924 4.742 0.924 7.355 0 6.281-1.948 12.106-5.273 16.905l0.065-0.099zM494.458 230.567l521.051 252.42 33.656-69.473-521.051-252.42zM38.596 553.542h38.596c21.316 0 38.596-17.28 38.596-38.596v0-540.349c0-21.316-17.28-38.596-38.596-38.596v0h-38.596c-21.316 0-38.596 17.28-38.596 38.596v0 540.349c0 21.316 17.28 38.596 38.596 38.596v0z" />
<glyph unicode="&#xe929;" horiz-adv-x="870" d="M701.547 751.235c25.084-69.993 16.992-110.451-14.16-140.39-142.413 88.199-312.338 152.528-339.85 349.155-291.3-224.544 143.627-532.431-66.756-617.394-103.978-40.458-196.223 56.237-182.467 165.879-59.481-55.795-96.946-134.45-98.311-221.868l-0.003-0.249c0-193.795 194.605-350.774 434.927-350.774 549.829 0 504.92 728.25 266.62 813.617z" />
<glyph unicode="&#xe92a;" horiz-adv-x="870" d="M631.15 314.69c-38.056-106.291-137.663-181.078-254.817-181.658h-0.071c22.239-49.955 71.443-84.153 128.635-84.153 0.008 0 0.016 0 0.024 0h-0.001c157.787 0 266.62 167.902 126.23 265.811z" />
<glyph unicode="&#xe92b;" d="M0-64v859.065c0 91.091 73.844 164.935 164.935 164.935v0h859.065z" />
<glyph unicode="&#xe92c;" d="M57.95 440.995l37.572 35.025 69.413-69.413 64.318 66.866-70.050 69.413 35.662 35.025 177.035-177.035-35.025-35.025-76.418 76.418-66.866-66.229 76.418-76.418-35.662-35.662z" />
<glyph unicode="&#xe92d;" d="M317.771 525.055c-26.161 20.947-42.771 52.882-42.771 88.696 0 62.603 50.75 113.353 113.353 113.353 36.133 0 68.318-16.907 89.075-43.241l0.183-0.241c27.945-20.883 45.842-53.88 45.842-91.056 0-62.603-50.75-113.353-113.353-113.353-37.177 0-70.173 17.897-90.844 45.545l-0.212 0.297zM440.040 647.323c-38.209 38.209-77.692 43.94-103.801 17.831s-20.378-63.682 17.831-103.801 78.965-45.214 105.075-19.104 18.468 67.502-19.104 105.075z" />
<glyph unicode="&#xe92e;" d="M477.612 804.617l-49.672-49.672-29.294 29.294 135.642 135.005 29.294-29.294-50.308-50.308 147.741-147.741-35.662-35.662z" />
<glyph unicode="&#xe92f;" glyph-name="fire1" horiz-adv-x="819" d="M405.504 824.832v0 0zM565.248 681.472c-4.096-49.152-16.384-98.304-32.768-143.36-61.44 73.728-126.976 151.552-126.976 286.72-135.168-90.112-245.76-241.664-221.184-425.984-28.672 28.672-86.016 65.536-102.4 122.88-98.304-114.688-110.592-282.624-24.576-409.6 8.192-16.384 20.48-28.672 32.768-45.056 73.728-86.016 188.416-135.168 303.104-131.072 94.208 0 188.416 28.672 266.24 90.112 49.152 40.96 86.016 98.304 106.496 159.744 40.96 192.512-36.864 393.216-200.704 495.616zM720.896 198.144c-16.384-53.248-45.056-102.4-90.112-139.264-65.536-53.248-147.456-81.92-229.376-81.92h-8.192c-8.192 0-12.288 0-16.384 0-98.304 0-192.512 45.056-258.048 118.784-12.288 12.288-20.48 24.576-28.672 36.864-65.536 94.208-65.536 212.992-12.288 311.296 16.384-20.48 36.864-36.864 53.248-53.248 8.192-8.192 16.384-16.384 24.576-20.48l86.016-90.112-16.384 122.88c-24.576 163.84 69.632 278.528 143.36 344.064 20.48-106.496 77.824-176.128 131.072-237.568l45.056-53.248 24.576 65.536c12.288 28.672 20.48 57.344 24.576 86.016 114.688-102.4 163.84-258.048 126.976-409.6zM765.952 931.328c0-16.384-4.096-28.672-8.192-45.056-20.48 24.576-32.768 53.248-36.864 86.016-40.96-28.672-65.536-77.824-61.44-126.976-12.288 8.192-20.48 20.48-28.672 36.864-28.672-36.864-28.672-86.016-8.192-122.88 4.096-4.096 4.096-8.192 8.192-12.288 20.48-24.576 53.248-40.96 86.016-40.96 28.672 0 53.248 8.192 73.728 28.672 16.384 12.288 24.576 28.672 28.672 49.152 16.384 53.248-8.192 114.688-53.248 147.456z" />
<glyph unicode="&#xe930;" glyph-name="blink" horiz-adv-x="983" d="M819.2 652.8l-32.768 110.592-110.592 32.768 110.592 32.768 32.768 110.592 32.768-110.592 110.592-32.768-110.592-32.768-32.768-110.592zM602.112 558.592l-110.592 360.448-110.592-360.448-360.448-110.592 360.448-110.592 110.592-360.448 110.592 360.448 360.448 110.592-360.448 110.592zM569.344 370.176l-77.824-253.952-77.824 253.952-253.952 77.824 253.952 77.824 77.824 253.952 77.824-253.952 253.952-77.824-253.952-77.824z" />
<glyph unicode="&#xe931;" glyph-name="arrow" horiz-adv-x="626" d="M-0.569-7.111l414.72 398.791c15.254 14.446 24.747 34.843 24.747 57.458s-9.493 43.011-24.711 57.424l-0.036 0.034-414.72 398.222 32.996 32.427c15.612 14.796 36.752 23.894 60.018 23.894s44.406-9.098 60.057-23.931l-0.039 0.037 447.716-430.649c15.254-14.446 24.747-34.843 24.747-57.458s-9.493-43.011-24.711-57.424l-0.036-0.034-447.716-430.649c-15.612-14.796-36.752-23.894-60.018-23.894s-44.406 9.098-60.057 23.931l0.039-0.037z" />
<glyph unicode="&#xe932;" glyph-name="search" horiz-adv-x="984" d="M803.685 159.418c80.679 80.679 130.327 195.491 130.327 319.612 0 248.242-201.697 449.939-453.042 449.939s-453.042-201.697-453.042-453.042 204.8-453.042 453.042-453.042c105.503 0 201.697 37.236 279.273 96.194l161.358-161.358 40.339 40.339-158.255 161.358zM778.861 184.242l-40.339-40.339c-71.37-55.855-161.358-86.885-257.552-86.885-232.727-3.103-422.012 186.182-422.012 418.909s189.285 425.115 422.012 425.115 425.115-189.285 425.115-425.115c0-114.812-46.545-220.315-124.121-297.891l-3.103 6.206zM859.539 60.121v0z" />
<glyph unicode="&#xe933;" glyph-name="star-hollow" d="M896 545.28l-292.571-4.754-88.137 292.571-92.526-292.571-292.571-3.657 235.52-179.2-93.623-292.571 238.446 182.857 235.886-178.103-89.234 292.571zM676.571 167.863l-168.229 126.903-166.766-130.194 65.829 206.629-171.154 128 212.48 2.56 63.269 205.897 61.806-204.069 210.651 3.291-170.423-132.023z" />
<glyph unicode="&#xe934;" glyph-name="star-solid" d="M896 545.28l-292.571-4.754-88.137 292.571-92.526-292.571-292.571-3.657 235.52-179.2-93.623-292.571 238.446 182.857 235.886-178.103-89.234 292.571z" />
<glyph unicode="&#xe935;" glyph-name="consume" horiz-adv-x="892" d="M132.129 960v0c-72.973 0-132.129-59.156-132.129-132.129v-627.613c0-72.973 59.156-132.129 132.129-132.129h495.484c72.973 0 132.129 59.156 132.129 132.129v627.613c0 72.973-59.156 132.129-132.129 132.129h-495.484zM759.742-64h-495.484c-61.059 0.205-112.348 41.794-127.297 98.175l-0.208 0.922h523.892c72.973 0 132.129 59.156 132.129 132.129v0 656.021c57.303-15.157 98.892-66.445 99.097-127.481v-627.636c0-72.973-59.156-132.129-132.129-132.129v0zM400.681 567.577c13.682 0 24.774-11.092 24.774-24.774s-11.092-24.774-24.774-24.774v0h-94.142v-94.803c0-13.5-10.944-24.444-24.444-24.444s-24.444 10.944-24.444 24.444v94.803h-94.142c-13.682 0-24.774 11.092-24.774 24.774s11.092 24.774 24.774 24.774v0h94.142v58.467h-100.748c-13.682 0-24.774 11.092-24.774 24.774s11.092 24.774 24.774 24.774v0h73.662l-78.286 78.947c-4.146 4.385-6.695 10.318-6.695 16.846s2.549 12.461 6.706 16.858l-0.011-0.012c4.321 4.29 10.274 6.941 16.846 6.941s12.525-2.651 16.848-6.942l-0.001 0.001 96.124-96.785 96.124 96.785c4.321 4.29 10.274 6.941 16.846 6.941s12.525-2.651 16.848-6.942l-0.001 0.001c4.146-4.385 6.695-10.318 6.695-16.846s-2.549-12.461-6.706-16.858l0.011 0.012-78.286-78.947h71.35c13.682 0 24.774-11.092 24.774-24.774s-11.092-24.774-24.774-24.774v0h-100.418v-58.467h96.124zM400.681 567.577l178.705-37.987 42.942-42.612-280.444-280.444-42.612 42.612z" />
<glyph unicode="&#xe936;" glyph-name="electric-vehicle" d="M896 618.667h-102.4c-47.128 0-85.333 38.205-85.333 85.333s38.205 85.333 85.333 85.333v0h102.4c47.128 0 85.333-38.205 85.333-85.333s-38.205-85.333-85.333-85.333v0zM896 763.733h-102.4c-32.99 0-59.733-26.744-59.733-59.733s26.744-59.733 59.733-59.733v0h102.4c32.99 0 59.733 26.744 59.733 59.733s-26.744 59.733-59.733 59.733v0zM913.067 686.933h-136.533c-4.713 0-8.533 3.821-8.533 8.533v0 8.533c0 4.713 3.821 8.533 8.533 8.533v0h136.533c4.713 0 8.533-3.821 8.533-8.533v0-8.533c0-4.713-3.821-8.533-8.533-8.533v0zM802.133 337.067c80.118 0 145.067-64.949 145.067-145.067s-64.949-145.067-145.067-145.067c-80.118 0-145.067 64.949-145.067 145.067v0c0 80.118 64.949 145.067 145.067 145.067v0zM802.133 72.533c65.98 0 119.467 53.487 119.467 119.467s-53.487 119.467-119.467 119.467c-65.98 0-119.467-53.487-119.467-119.467v0c0-65.98 53.487-119.467 119.467-119.467v0zM802.133 243.2c28.277 0 51.2-22.923 51.2-51.2s-22.923-51.2-51.2-51.2c-28.277 0-51.2 22.923-51.2 51.2v0c0 28.277 22.923 51.2 51.2 51.2v0zM802.133 166.4c14.138 0 25.6 11.462 25.6 25.6s-11.462 25.6-25.6 25.6c-14.138 0-25.6-11.462-25.6-25.6v0c0-14.138 11.462-25.6 25.6-25.6v0zM371.2 763.733h-170.667c-7.069 0-12.8 5.731-12.8 12.8s5.731 12.8 12.8 12.8v0h170.667c7.069 0 12.8-5.731 12.8-12.8s-5.731-12.8-12.8-12.8v0zM307.2 192c0-80.118-64.949-145.067-145.067-145.067s-145.067 64.949-145.067 145.067c0 80.118 64.949 145.067 145.067 145.067v0c80.118 0 145.067-64.949 145.067-145.067v0zM162.133 311.467c-65.98 0-119.467-53.487-119.467-119.467s53.487-119.467 119.467-119.467c65.98 0 119.467 53.487 119.467 119.467v0c0 65.98-53.487 119.467-119.467 119.467v0zM162.133 140.8c-28.277 0-51.2 22.923-51.2 51.2s22.923 51.2 51.2 51.2c28.277 0 51.2-22.923 51.2-51.2v0c0-28.277-22.923-51.2-51.2-51.2v0zM162.133 217.6c-14.138 0-25.6-11.462-25.6-25.6s11.462-25.6 25.6-25.6c14.138 0 25.6 11.462 25.6 25.6v0c0 14.138-11.462 25.6-25.6 25.6v0zM268.8 849.067h102.4c7.069 0 12.8-5.731 12.8-12.8s-5.731-12.8-12.8-12.8v0h-102.4c-7.069 0-12.8 5.731-12.8 12.8s5.731 12.8 12.8 12.8v0zM981.333 328.533v0c14.138 0 25.6-11.462 25.6-25.6v0 0c0-14.138-11.462-25.6-25.6-25.6v0 0c-14.138 0-25.6 11.462-25.6 25.6v0 0c0 14.138 11.462 25.6 25.6 25.6v0zM832 465.067h51.2c7.069 0 12.8-5.731 12.8-12.8s-5.731-12.8-12.8-12.8v0h-51.2c-7.069 0-12.8 5.731-12.8 12.8s5.731 12.8 12.8 12.8v0zM832 413.867h51.2c7.069 0 12.8-5.731 12.8-12.8s-5.731-12.8-12.8-12.8v0h-51.2c-7.069 0-12.8 5.731-12.8 12.8s5.731 12.8 12.8 12.8v0zM832 516.267h51.2c7.069 0 12.8-5.731 12.8-12.8s-5.731-12.8-12.8-12.8v0h-51.2c-7.069 0-12.8 5.731-12.8 12.8s5.731 12.8 12.8 12.8v0zM315.733 200.533c-0.041 9.076-0.908 17.923-2.531 26.503l0.142-0.903h354.645c-1.481-7.677-2.349-16.524-2.389-25.566v-0.034zM919.637 213.248c-2.605 14.312-7.419 27.087-14.127 38.624l0.303-0.565c4.636 13.547 7.32 29.156 7.339 45.389v221.449c0 28.416-18.603 49.323-41.557 49.323h-79.104c-22.955 0-48.469-20.907-57.771-49.323l-52.907-161.707c-19.285-59.733-18.773-95.744 17.92-103.168-4.767-7.799-8.83-16.795-11.727-26.299l-0.219-0.837c-44.459 2.901-60.587 59.733-38.912 121.429l66.304 187.733c11.605 33.451 43.605 57.771 72.363 57.771h98.987c28.757 0 52.139-24.32 52.139-57.344v-247.467c0.001-0.166 0.001-0.363 0.001-0.561 0-27.301-7.052-52.955-19.434-75.24l0.404 0.792zM520.533 371.2h-136.533v3.584c-15.189 6.75-25.591 21.701-25.6 39.081v193.878c0 40.704-18.603 70.656-41.557 70.656h-79.019c-22.955 0-48.469-29.952-57.771-70.656l-1.365-6.144h-23.723l6.144 23.808c11.52 45.227 43.691 78.592 72.107 78.592h98.816c28.672 0 51.968-33.365 51.968-78.592v-203.008c0-14.138 11.462-25.6 25.6-25.6v0h273.067v-25.6zM179.2 563.2c0-7.069-5.731-12.8-12.8-12.8v0h-25.6c-7.069 0-12.8 5.731-12.8 12.8s5.731 12.8 12.8 12.8v0h25.6c7.069 0 12.8-5.731 12.8-12.8v0zM161.109 524.8l-34.133-148.651c-4.777-19.591-7.517-42.083-7.517-65.215 0-2.573 0.034-5.139 0.101-7.696l-0.008 0.378c-13.081-5.025-24.373-11.68-34.345-19.881l0.212 0.169c-0.147 3.403-0.23 7.394-0.23 11.405 0 25.646 3.416 50.495 9.818 74.116l-0.457-1.98 40.704 157.355zM342.955 226.133c-12.885-15.957-27.904-25.6-44.032-25.6h-17.749c-0.654 9.378-2.294 18.103-4.827 26.439l0.219-0.839z" />
<glyph unicode="&#xe937;" glyph-name="child" d="M429.995 422.4c-8.081 3.408-13.65 11.265-13.65 20.422 0 12.206 9.895 22.101 22.101 22.101s22.101-9.895 22.101-22.101c0-6.068-2.446-11.565-6.405-15.559l0.002 0.002c-4.006-4.042-9.56-6.544-15.698-6.544-3.049 0-5.954 0.617-8.596 1.734l0.145-0.054zM577.109 420.779c-12.169 0.049-22.016 9.925-22.016 22.101 0 12.206 9.895 22.101 22.101 22.101s22.101-9.895 22.101-22.101c0-0.030 0-0.060 0-0.090v0.005c0-0.025 0-0.055 0-0.085 0-12.206-9.895-22.101-22.101-22.101-0.030 0-0.060 0-0.090 0h0.005zM565.248 713.472c-17.223 4.801-37.001 7.56-57.423 7.56-122.534 0-221.867-99.333-221.867-221.867s99.333-221.867 221.867-221.867c122.534 0 221.867 99.333 221.867 221.867 0 32.475-6.977 63.321-19.514 91.119l0.564-1.399c7.991 4.431 14.882 9.528 21.031 15.397l-0.039-0.037c14.898-30.924 23.603-67.24 23.603-105.59 0-136.955-111.024-247.979-247.979-247.979s-247.979 111.024-247.979 247.979c0 136.955 111.024 247.979 247.979 247.979 24.891 0 48.925-3.667 71.592-10.491l-1.756 0.454c-4.679-6.711-8.71-14.403-11.72-22.59l-0.227-0.706zM453.035 373.077l-4.949-7.851c0.683-0.427 62.379-38.656 117.333 0l-5.291 7.68c-49.835-35.157-106.496 0-107.093 0zM662.187 147.371h-16.469v-5.461c0.065-0.787 0.101-1.703 0.101-2.629 0-11.761-5.948-22.133-15-28.271l-0.12-0.077c-4.425-2.687-9.775-4.277-15.496-4.277-0.282 0-0.564 0.004-0.844 0.012l0.041-0.001c-7.051 0.114-13.695 1.738-19.661 4.561l-53.469 22.746c-3.893 1.869-7.023 4.806-9.078 8.432l-0.053 0.102c-4.708-5.248-11.511-8.534-19.081-8.534-0.042 0-0.083 0-0.125 0h-14.671c-0.010 0-0.021 0-0.033 0-6.275 0-12.023 2.258-16.475 6.005l0.039-0.032c-1.933-2.553-4.427-4.581-7.305-5.923l-0.119-0.050-53.504-22.869c-5.816-2.643-12.596-4.259-19.733-4.436l-0.065-0.001c-0.149-0.003-0.325-0.004-0.502-0.004-5.928 0-11.47 1.652-16.192 4.52l0.139-0.078c-9.125 6.221-15.039 16.566-15.039 28.293 0 0.944 0.038 1.88 0.114 2.805l-0.008-0.122v5.461h-16.128c-0.129-0.004-0.28-0.006-0.432-0.006-8.618 0-15.632 6.868-15.866 15.43v13.931c0.418 8.432 7.356 15.11 15.854 15.11 0.156 0 0.312-0.002 0.468-0.007l-0.023 0.001h16.469v9.301c-0.1 0.957-0.158 2.068-0.158 3.193 0 11.119 5.597 20.931 14.127 26.773l0.111 0.072c4.452 2.052 9.661 3.248 15.149 3.248 7.327 0 14.156-2.133 19.9-5.811l-0.148 0.089 56.235-28.331c2.16-1.327 3.994-2.943 5.515-4.824l0.032-0.040c4.553 4.231 10.676 6.827 17.405 6.827 0.061 0 0.122 0 0.183-0.001h14.668c0.031 0 0.067 0 0.103 0 8.043 0 15.219-3.709 19.912-9.509l0.038-0.048c1.945 3.073 4.563 5.554 7.658 7.283l0.108 0.055 55.808 28.757c5.476 3.494 12.152 5.57 19.312 5.57 5.666 0 11.028-1.299 15.805-3.616l-0.216 0.094c8.862-5.807 14.634-15.692 14.634-26.924 0-1.006-0.046-2.001-0.137-2.983l0.009 0.126v-9.301h16.213c0.129 0.004 0.28 0.006 0.432 0.006 8.618 0 15.632-6.868 15.866-15.43v-14.102c-0.235-8.583-7.249-15.451-15.866-15.451-0.152 0-0.303 0.002-0.454 0.006h0.022zM368.981 176.896c0 0.001 0 0.003 0 0.005 0 0.394-0.297 0.719-0.679 0.763h-14.852c-0.027 0.004-0.058 0.006-0.090 0.006-0.349 0-0.637-0.262-0.678-0.6v-14.083c-0.004-0.027-0.006-0.058-0.006-0.090 0-0.349 0.262-0.637 0.6-0.678h14.851c0.031-0.004 0.067-0.007 0.103-0.007 0.366 0 0.672 0.256 0.749 0.599l0.001 0.005zM470.699 161.536h-15.445c-0.102-0.005-0.221-0.008-0.341-0.008-4.057 0-7.347 3.289-7.347 7.347 0 3.937 3.097 7.151 6.989 7.338l0.017 0.001h16.128v5.803c-0.373 2.149-1.595 3.959-3.3 5.103l-0.028 0.017-55.552 28.843c-3.956 2.283-8.642 3.761-13.643 4.091l-0.096 0.005c-0.153 0.008-0.332 0.013-0.513 0.013-1.925 0-3.723-0.545-5.247-1.488l0.043 0.025c-4.381-3.37-7.177-8.615-7.177-14.512 0-0.901 0.065-1.787 0.191-2.653l-0.012 0.099v-59.221c-0.071-0.655-0.111-1.415-0.111-2.184 0-6.699 3.051-12.686 7.84-16.646l0.036-0.029c2.826-1.296 6.131-2.051 9.612-2.051 4.279 0 8.291 1.141 11.749 3.135l-0.114-0.061 53.76 23.125c1.259 0.958 2.17 2.314 2.55 3.878l0.010 0.047v10.24zM522.496 178.603c-0.141 4.98-4.211 8.964-9.213 8.964-0.091 0-0.182-0.001-0.273-0.004h-14.75c-0.109 0.005-0.237 0.007-0.366 0.007-4.852 0-8.829-3.75-9.189-8.51l-0.002-0.031v-21.248c0.141-5.027 4.25-9.049 9.298-9.049 0.091 0 0.182 0.001 0.273 0.004h14.664c0.078-0.002 0.17-0.004 0.262-0.004 5.018 0 9.108 3.974 9.295 8.947l0.001 0.017zM629.931 201.472c0.115 0.778 0.181 1.675 0.181 2.588 0 5.834-2.686 11.041-6.888 14.451l-0.034 0.027c-1.586 0.808-3.46 1.281-5.444 1.281-0.066 0-0.132-0.001-0.198-0.002h0.010c-5.081-0.38-9.756-1.788-13.927-4.017l0.188 0.092-55.552-28.843c-1.702-1.21-2.928-2.993-3.402-5.063l-0.011-0.057v-5.803h17.067c0.102 0.005 0.221 0.008 0.341 0.008 4.057 0 7.347-3.289 7.347-7.347 0-3.937-3.097-7.151-6.989-7.338l-0.017-0.001h-17.749v-10.411c0.372-1.592 1.289-2.927 2.541-3.827l0.019-0.013 53.589-22.955c3.329-1.933 7.326-3.074 11.589-3.074 3.468 0 6.76 0.755 9.72 2.11l-0.146-0.060c4.841 3.847 7.918 9.735 7.918 16.341 0 0.887-0.056 1.762-0.163 2.62l0.010-0.102zM662.955 177.067c0.004 0.027 0.006 0.058 0.006 0.090 0 0.349-0.262 0.637-0.6 0.678h-14.936c-0.027 0.004-0.058 0.006-0.090 0.006-0.349 0-0.637-0.262-0.678-0.6v-14.083c-0.004-0.027-0.006-0.058-0.006-0.090 0-0.349 0.262-0.637 0.6-0.678h14.936c0.027-0.004 0.058-0.006 0.090-0.006 0.349 0 0.637 0.262 0.678 0.6v0.003zM280.661 546.048c-7.334 2.732-15.808 4.324-24.649 4.352h-0.012c-40.058-0.001-72.531-32.475-72.531-72.533s32.474-72.533 72.533-72.533c13.179 0 25.538 3.515 36.189 9.659l-0.351-0.187c5.032-7.472 10.395-14 16.311-19.98l-0.012 0.012c-14.827-9.473-32.908-15.099-52.302-15.099-54.198 0-98.133 43.936-98.133 98.133s43.936 98.133 98.133 98.133c13.511 0 26.385-2.731 38.099-7.67l-0.645 0.241c-4.514-6.476-8.731-13.87-12.267-21.639l-0.362-0.889zM601.685 610.133c-34.133 60.331 23.637 83.115 51.2 110.933s-51.2 68.267-51.2 68.267h-34.133s78.677-40.363 51.2-68.267-85.333-50.603-51.2-110.933 68.352-60.331 34.133 0zM652.885 533.333c-34.133 60.331 23.637 83.029 51.2 110.933s-51.2 68.267-51.2 68.267h34.133s78.677-40.363 51.2-68.267-85.333-50.603-51.2-110.933c0 0 0.085-60.331-34.133 0zM337.152 584.533c-34.133 60.331 23.637 83.029 51.2 110.933s0 34.133 0 34.133h25.6s27.477-6.229 0-34.133-85.333-50.603-51.2-110.933c0 0 8.533-60.331-25.6 0zM439.552 738.133s78.677-40.363 51.2-68.267-85.333-50.603-51.2-110.933h34.133c-34.133 60.331 23.637 83.115 51.2 110.933s-51.2 68.267-51.2 68.267-40.192 17.749-34.133 0zM768 371.2c-19.34 0.015-37.362 5.641-52.531 15.339l0.393-0.235c5.904 5.968 11.266 12.496 15.993 19.489l0.305 0.479c10.367-6.045 22.821-9.613 36.107-9.613 40.106 0 72.619 32.512 72.619 72.619s-32.512 72.619-72.619 72.619c-8.915 0-17.455-1.606-25.345-4.546l0.502 0.164c-3.925 8.655-8.169 16.048-13.018 22.987l0.304-0.459c10.991 4.695 23.78 7.424 37.205 7.424 0.030 0 0.060 0 0.090 0h-0.005c54.198 0 98.133-43.936 98.133-98.133s-43.936-98.133-98.133-98.133v0z" />
<glyph unicode="&#xe938;" glyph-name="code" d="M910.222 328.533h-102.4v238.933h102.4c12.568 0 22.756-10.188 22.756-22.756v0-193.422c0-12.568-10.188-22.756-22.756-22.756v0zM716.8 567.467h22.756v-238.933h-22.756zM625.778 567.467h22.756v-238.933h-22.756zM557.511 328.533h-147.911v238.933h147.911zM318.578 567.467h22.756v-238.933h-22.756zM227.556 567.467h22.756v-238.933h-22.756zM91.022 351.289v193.422c0 12.568 10.188 22.756 22.756 22.756v0h45.511v-238.933h-45.511c-12.568 0-22.756 10.188-22.756 22.756v0z" />
<glyph unicode="&#xe939;" glyph-name="gift" d="M875.776 798.805l1.451-23.211-14.165 18.432-23.211-1.365 18.347 13.739-1.365 23.211 14.165-18.432 23.211 1.451zM778.325 697.429c-9.426 0-17.067 7.641-17.067 17.067s7.641 17.067 17.067 17.067c9.426 0 17.067-7.641 17.067-17.067v0c0-9.426-7.641-17.067-17.067-17.067v0zM872.192 518.229c-4.713 0-8.533 3.821-8.533 8.533v0 34.133c0 4.713 3.821 8.533 8.533 8.533s8.533-3.821 8.533-8.533v0-34.133c0-4.713-3.821-8.533-8.533-8.533v0zM671.659 649.984h176.811c17.778-0.049 32.171-14.471 32.171-32.256 0 0 0 0 0 0v0-22.699h-17.067v17.067c0 9.426-7.641 17.067-17.067 17.067v0h-20.139c-4.522 1.552-9.734 2.483-15.153 2.56h-0.037l-229.205-2.56v-204.8h230.4c8.603 0.388 16.401 3.543 22.598 8.589l-0.070-0.055h11.605c9.426 0 17.067 7.641 17.067 17.067v0 42.667h17.067v-38.144c0-24.149-18.517-47.189-42.667-47.189h-17.067l-0.597-269.312c0-0.025 0-0.055 0-0.085 0-39.699-32.158-71.887-71.846-71.936h-486.405c-39.729 0-71.936 32.207-71.936 71.936v0 0l-0.597 269.227h-17.067c-24.149 0-42.667 23.040-42.667 47.275v151.637c0 0 0 0 0 0 0 24.211 19.578 43.849 43.767 43.946h153.609l-14.421 24.832c-8.637 14.65-13.739 32.278-13.739 51.097 0 0.036 0 0.073 0 0.109v-0.006c-0.009 0.484-0.014 1.055-0.014 1.627 0 23.311 8.497 44.637 22.563 61.050l-0.106-0.127c16.022 17.684 39.075 28.745 64.71 28.745 1.251 0 2.495-0.026 3.733-0.078l-0.177 0.006c0.635 0.015 1.384 0.024 2.134 0.024 26.688 0 50.793-11.057 67.985-28.84l0.026-0.027c9.763-10.454 17.875-22.611 23.819-35.948l0.331-0.831 14.848-32.427 15.104 32.341c6.418 14.214 14.697 26.4 24.712 36.918l-0.051-0.054c17.337 17.815 41.546 28.867 68.335 28.867 0.756 0 1.51-0.009 2.262-0.026l-0.112 0.002c0.968 0.038 2.104 0.060 3.246 0.060 25.462 0 48.383-10.88 64.367-28.244l0.056-0.062c14.273-16.622 22.962-38.4 22.962-62.207 0-0.42-0.003-0.84-0.008-1.259l0.001 0.064c-0.044-18.709-5.141-36.219-13.997-51.248l0.259 0.475zM582.059 83.029h162.133c31.731 0.516 57.329 26.055 57.94 57.713l0.001 0.058 1.792 266.581h-221.867zM208.299 140.8c0-0.026 0-0.056 0-0.086 0-31.109 25.146-56.345 56.221-56.49h0.014l163.755-1.195v324.267h-221.867zM199.168 631.723c-5.456-0.078-10.668-1.009-15.545-2.665l0.356 0.105h-20.053c-9.426 0-17.067-7.641-17.067-17.067v0-162.133c0-9.426 7.641-17.067 17.067-17.067v0h11.605c6.13-4.985 13.926-8.139 22.443-8.53l0.085-0.003h230.4v204.8zM486.4 667.989c-2.816 27.477-11.349 78.677-39.765 107.52-13.967 14.338-33.461 23.232-55.033 23.232-0.632 0-1.263-0.008-1.892-0.023l0.093 0.002c-0.931 0.044-2.021 0.069-3.118 0.069-20.347 0-38.666-8.685-51.452-22.549l-0.044-0.048c-11.153-13.156-17.935-30.325-17.935-49.078 0-0.536 0.006-1.071 0.017-1.604l-0.001 0.080c0-36.437 22.699-75.605 72.448-75.605h97.963zM443.733 631.723l1.536-548.693h119.467l1.536 548.693h-122.539zM609.109 798.635c-0.567 0.015-1.236 0.023-1.906 0.023-19.238 0-36.845-6.98-50.428-18.546l0.11 0.091h-0.427l-4.864-4.949c-28.587-29.184-37.632-79.189-40.448-106.411l-1.877-18.091 100.011-0.768c0.69-0.025 1.5-0.039 2.314-0.039 20.571 0 39.033 9.031 51.637 23.344l0.066 0.076c11.475 13.882 18.436 31.863 18.436 51.47 0 0.265-0.001 0.53-0.004 0.795v-0.041c0 36.352-22.357 73.045-72.448 73.045z" />
<glyph unicode="&#xe93a;" glyph-name="card-4" d="M913.067 145.067h-136.533v25.6h119.467c28.277 0 51.2 22.923 51.2 51.2v0 85.333h25.6v-102.4c0-32.99-26.744-59.733-59.733-59.733v0zM947.2 418.133h25.6v-68.267h-25.6zM477.867 588.8h85.333v-42.667h-85.333zM810.667 588.8v-42.667h-204.8v42.667zM810.667 375.467h-332.8v42.667h332.8zM477.867 503.467h332.8v-42.667h-332.8zM819.2 204.8h-426.667v25.6h418.133c37.703 0 68.267 30.564 68.267 68.267v0 358.4c0 37.703-30.564 68.267-68.267 68.267v0h-418.133v25.6h426.667c47.128 0 85.333-38.205 85.333-85.333v0-375.467c0-47.128-38.205-85.333-85.333-85.333v0zM392.533 631.467h-42.667v42.667h42.667zM172.971 550.997l24.405-41.387c7.168-12.885 11.008-19.627 17.579-31.317h1.024c6.997 11.691 10.837 18.688 17.579 31.317l24.235 41.387h21.675l-49.067-76.373h34.987v-11.093h-40.619v-14.677h40.363v-10.923h-40.363v-34.56h-18.859v34.56h-40.533v10.923h40.533v14.677h-40.533v11.093h35.243l-49.579 76.373zM76.8 657.067v-358.4c0-37.703 30.564-68.267 68.267-68.267v0h204.8v-25.6h-213.333c-47.128 0-85.333 38.205-85.333 85.333v0 375.467c0 47.128 38.205 85.333 85.333 85.333v0h213.333v-25.6h-204.8c-37.703 0-68.267-30.564-68.267-68.267v0zM392.533 281.6h-42.667v42.667h42.667zM392.533 375.467h-42.667v42.667h42.667zM349.867 588.8h42.667v-42.667h-42.667zM392.533 460.8h-42.667v42.667h42.667zM733.867 145.067h-384v25.6h384z" />
<glyph unicode="&#xe93b;" d="M651.264 627.2c21.831 14.949 40.6 32.226 56.626 51.834l0.377 0.476c34.475 40.038 55.469 92.539 55.469 149.944 0 0.355-0.001 0.71-0.002 1.065v-0.055c0 6.315-4.608 18.773-14.421 18.773-5.461 0-10.581-4.011-15.531-12.117v0 0c-1.451-3.157-2.901-6.741-4.352-10.496-10.496-26.795-28.075-71.765-130.133-128.427l-5.12-2.901 53.419-70.229z" />
<glyph unicode="&#xe93c;" d="M344.235 664.661s-40.533 48.384-180.992 36.779c-12.971 4.267-20.395-125.611 136.533-180.139 58.624 37.632 44.459 143.36 44.459 143.36z" />
<glyph unicode="&#xe93d;" d="M355.328 627.712s-127.317 87.893-196.693 68.267c1.024 3.413 2.133 5.12 3.413 5.376 44.032 8.533 175.36 8.533 243.968-62.635-16.725-57.856-50.688-11.008-50.688-11.008z" />
<glyph unicode="&#xe93e;" d="M679.765 664.661s40.533 48.384 180.992 36.779c12.971 4.267 20.395-125.611-136.533-180.139-58.624 37.632-44.459 143.36-44.459 143.36z" />
<glyph unicode="&#xe93f;" d="M668.672 627.712s127.317 87.893 196.693 68.267c-1.024 3.413-2.133 5.12-3.413 5.376-44.032 8.533-175.36 8.533-243.968-62.635 16.725-57.856 50.688-11.008 50.688-11.008z" />
<glyph unicode="&#xe940;" d="M372.736 627.2c-21.832 14.948-40.601 32.225-56.626 51.834l-0.377 0.476c-34.475 40.038-55.469 92.539-55.469 149.944 0 0.355 0.001 0.71 0.002 1.065v-0.055c0 6.315 4.608 18.773 14.421 18.773 5.461 0 10.581-4.011 15.531-12.117v0 0c1.451-3.157 2.901-6.741 4.352-10.496 10.496-26.795 28.075-71.765 130.133-128.427l5.12-2.901-53.419-70.229z" />
<glyph unicode="&#xe941;" d="M806.997 285.867l-37.461 231.936c-5.888 89.003-39.253 154.368-106.837 182.699-45.397 20.309-134.997 47.445-145.067 47.445-30.805 1.28-107.349-37.291-141.653-48.981-98.987-34.987-104.533-94.976-121.941-192.853l-37.035-220.245c-8.533-128.768 66.304-238.933 167.68-238.933h254.635c101.376 0 176.213 109.909 167.68 238.933z" />
<glyph unicode="&#xe942;" d="M806.997 256.341c-22.016 175.701-230.4 13.483-375.467 26.709-143.616 13.141-240.896 28.416-210.347-90.624 21.163-82.603 82.005-145.493 163.499-145.493h254.635c101.376 0 176.213 96.427 167.68 209.408z" />
<glyph unicode="&#xe943;" d="M370.091 595.115c-4.352 0-3.584 2.901-1.877 3.755 8.243 4.528 18.026 7.282 28.432 7.508l0.069 0.001c0.472 0.019 1.026 0.029 1.582 0.029 9.671 0 18.59-3.217 25.746-8.64l-0.106 0.077s2.645-1.792 0.939-3.669c0 0-1.536-2.645-17.067 1.877-5.273 1.542-11.33 2.429-17.594 2.429-7.194 0-14.114-1.17-20.582-3.329l0.458 0.133z" />
<glyph unicode="&#xe944;" d="M630.101 598.101c4.352 0 3.584 2.901 1.877 3.755-8.243 4.528-18.026 7.282-28.432 7.508l-0.069 0.001c-0.472 0.019-1.026 0.029-1.582 0.029-9.671 0-18.59-3.217-25.746-8.64l0.106 0.077s-2.645-1.792-0.939-3.669c0 0 1.536-2.645 17.067 1.877 5.272 1.539 11.329 2.425 17.592 2.425 7.194 0 14.116-1.168 20.585-3.326l-0.459 0.133z" />
<glyph unicode="&#xe945;" d="M371.285 192.768c0-23.187-18.797-41.984-41.984-41.984s-41.984 18.797-41.984 41.984c0 23.187 18.797 41.984 41.984 41.984s41.984-18.797 41.984-41.984z" />
<glyph unicode="&#xe946;" d="M735.915 192.768c0-23.187-18.797-41.984-41.984-41.984s-41.984 18.797-41.984 41.984c0 23.187 18.797 41.984 41.984 41.984s41.984-18.797 41.984-41.984z" />
<glyph unicode="&#xe947;" d="M414.805 779.776s54.528 15.445 78.592-33.109c0 16.555 28.075 49.067 60.757 47.872-15.275-14.507-20.651-28.843-5.632-43.861 0 0 18.517 28.416 40.021 20.309 5.035-1.877 18.859-16.213 0.597-29.525 35.584 3.755 49.664-28.757 34.731-58.539-6.844 12.944-19.813 21.847-34.942 22.862l-0.13 0.007s24.32-59.733-48.64-64.256c7.851 7.851 34.133 53.845-10.411 56.149-7.936-31.573-18.005-70.144-85.333-51.2 49.749 23.211 32.939 59.733 32.939 59.733s-95.573-97.195-132.437 19.029c51.115-27.051 129.707-7.424 69.888 54.528z" />
<glyph unicode="&#xe948;" d="M481.536 449.365c0-39.918-32.36-72.277-72.277-72.277s-72.277 32.36-72.277 72.277c0 39.918 32.36 72.277 72.277 72.277s72.277-32.36 72.277-72.277z" />
<glyph unicode="&#xe949;" d="M415.077 483.242c14.26-3.177 23.212-17.462 19.993-31.906s-17.387-23.578-31.647-20.401c-14.26 3.177-23.212 17.462-19.993 31.906s17.387 23.578 31.647 20.401z" />
<glyph unicode="&#xe94a;" d="M409.546 480.801c5.428-0.653 9.298-5.582 8.645-11.010s-5.582-9.298-11.010-8.645c-5.428 0.653-9.298 5.582-8.645 11.010s5.582 9.298 11.010 8.645z" />
<glyph unicode="&#xe94b;" d="M687.019 449.365c0-39.918-32.36-72.277-72.277-72.277s-72.277 32.36-72.277 72.277c0 39.918 32.36 72.277 72.277 72.277s72.277-32.36 72.277-72.277z" />
<glyph unicode="&#xe94c;" d="M620.615 483.188c14.26-3.177 23.212-17.462 19.993-31.906s-17.387-23.578-31.647-20.401c-14.26 3.177-23.212 17.462-19.993 31.906s17.387 23.578 31.647 20.401z" />
<glyph unicode="&#xe94d;" d="M615.006 480.865c5.428-0.653 9.298-5.582 8.645-11.010s-5.582-9.298-11.010-8.645c-5.428 0.653-9.298 5.582-8.645 11.010s5.582 9.298 11.010 8.645z" />
<glyph unicode="&#xe94e;" d="M355.157 302.933c-77.809 0-140.885 63.077-140.885 140.885s63.077 140.885 140.885 140.885c77.689 0 140.691-62.882 140.885-140.525v-0.019c0-0.051 0-0.111 0-0.171 0-77.843-63.056-140.959-140.876-141.056h-0.009zM355.157 555.264c-61.549 0-111.445-49.896-111.445-111.445s49.896-111.445 111.445-111.445c61.55 0 111.445 49.896 111.445 111.445 0 0.12 0 0.24-0.001 0.36v-0.019c-0.049 61.53-49.915 111.397-111.441 111.445h-0.005z" />
<glyph unicode="&#xe94f;" d="M668.843 302.933c-77.809 0-140.885 63.077-140.885 140.885s63.077 140.885 140.885 140.885c77.689 0 140.691-62.882 140.885-140.525v-0.019c0-0.051 0-0.111 0-0.171 0-77.843-63.056-140.959-140.876-141.056h-0.009zM668.843 555.264c-61.549 0-111.445-49.896-111.445-111.445s49.896-111.445 111.445-111.445c61.55 0 111.445 49.896 111.445 111.445 0 0.12 0 0.24-0.001 0.36v-0.019c-0.049 61.53-49.915 111.397-111.441 111.445h-0.005z" />
<glyph unicode="&#xe950;" d="M531.541 431.872c-4.169 5.99-10.709 10.081-18.232 10.912l-0.115 0.010c-8.358-0.45-15.847-3.842-21.523-9.149l0.019 0.018-20.736 20.907c11.252 10.876 26.598 17.579 43.509 17.579 0.004 0 0.008 0 0.011 0h-0.001c16.154-1.167 30.22-9.218 39.414-21.204l0.095-0.13z" />
<glyph unicode="&#xe951;" d="M499.541 78.848c-68.267 0-102.912 32.939-104.533 34.133-0.465 0.589-0.746 1.341-0.746 2.16 0 1.932 1.566 3.499 3.499 3.499 0.797 0 1.532-0.266 2.12-0.715l-0.009 0.006c0.512-0.427 44.373-42.667 130.389-30.379 64.341 8.533 93.867 45.227 94.379 45.653 0.643 0.707 1.566 1.149 2.593 1.149 1.932 0 3.499-1.566 3.499-3.499 0-0.75-0.236-1.444-0.637-2.014l0.007 0.011c-1.28-1.621-31.829-38.912-98.901-48.213-8.671-1.151-18.697-1.809-28.877-1.809-0.978 0-1.954 0.006-2.929 0.018l0.148-0.001z" />
<glyph unicode="&#xe952;" horiz-adv-x="899" d="M433.912-16.041c-86.743 0-130.147 41.777-132.425 43.795-0.833 0.833-1.348 1.983-1.348 3.254 0 2.541 2.060 4.601 4.601 4.601 1.271 0 2.421-0.515 3.254-1.348v0c0.586-0.586 56.289-53.556 165.157-38.459 81.537 11.258 119.215 57.33 119.605 57.785 0.814 1.102 2.109 1.81 3.569 1.81 2.444 0 4.425-1.981 4.425-4.425 0-1.119-0.416-2.141-1.101-2.921l0.004 0.005c-1.627-2.017-40.281-49.326-125.267-61.039-12.096-1.859-26.116-2.967-40.378-3.058h-0.098z" />
<glyph unicode="&#xe953;" glyph-name="my-card" horiz-adv-x="1327" d="M151.704 960v0c-83.784 0-151.704-67.92-151.704-151.704v-720.593c0-83.784 67.92-151.704 151.704-151.704h1024c83.784 0 151.704 67.92 151.704 151.704v720.593c0 83.784-67.92 151.704-151.704 151.704h-1024zM320.436 750.459v0c63.005 0 114.081-51.076 114.081-114.081v0-4.096c0-63.005-51.076-114.081-114.081-114.081v0c-63.005 0-114.081 51.076-114.081 114.081v0 4.096c0 63.005 51.076 114.081 114.081 114.081v0zM630.367 727.704h502.253c18.893-0.641 33.965-16.11 33.965-35.1s-15.072-34.46-33.907-35.099l-0.059-0.002h-502.253c-19.396 0-35.119 15.723-35.119 35.119s15.723 35.119 35.119 35.119v0zM629.836 587.378h296.922c0.341 0.012 0.742 0.019 1.145 0.019 19.103 0 34.588-15.486 34.588-34.588s-15.486-34.588-34.588-34.588c-0.403 0-0.804 0.007-1.203 0.021l0.058-0.002h-296.922c-0.483-0.024-1.050-0.038-1.619-0.038-19.103 0-34.588 15.486-34.588 34.588s15.486 34.588 34.588 34.588c0.57 0 1.136-0.014 1.699-0.041l-0.079 0.003zM309.4 168.296h22.111c19.103 0 34.588-15.486 34.588-34.588s-15.486-34.588-34.588-34.588h-22.111c-0.341-0.012-0.742-0.019-1.145-0.019-19.103 0-34.588 15.486-34.588 34.588s15.486 34.588 34.588 34.588c0.403 0 0.804-0.007 1.203-0.021l-0.058 0.002zM491.899 168.296h23.135c19.103 0 34.588-15.486 34.588-34.588s-15.486-34.588-34.588-34.588h-23.135c-18.604 0.636-33.443 15.87-33.443 34.569s14.84 33.934 33.385 34.568l0.058 0.002zM675.461 168.296h22.111c19.103 0 34.588-15.486 34.588-34.588s-15.486-34.588-34.588-34.588h-22.111c-0.341-0.012-0.742-0.019-1.145-0.019-19.103 0-34.588 15.486-34.588 34.588s15.486 34.588 34.588 34.588c0.403 0 0.804-0.007 1.203-0.021l-0.058 0.002zM857.998 168.296h23.135c19.103 0 34.588-15.486 34.588-34.588s-15.486-34.588-34.588-34.588h-23.135c-0.341-0.012-0.742-0.019-1.145-0.019-19.103 0-34.588 15.486-34.588 34.588s15.486 34.588 34.588 34.588c0.403 0 0.804-0.007 1.203-0.021l-0.058 0.002zM1041.56 168.296h22.073c19.103 0 34.588-15.486 34.588-34.588s-15.486-34.588-34.588-34.588h-22.073c-0.341-0.012-0.742-0.019-1.145-0.019-19.103 0-34.588 15.486-34.588 34.588s15.486 34.588 34.588 34.588c0.403 0 0.804-0.007 1.203-0.021l-0.058 0.002z" />
<glyph unicode="&#xe954;" glyph-name="my-cake" horiz-adv-x="934" d="M739.84 368.64h-573.44c-23.040 0-46.080-17.92-46.080-40.96v-227.84c0-23.040 20.48-43.52 43.52-43.52h578.56c23.040 0 43.52 20.48 43.52 43.52v227.84c0 23.040-20.48 40.96-46.080 40.96zM770.56 209.92v0 0 0c-25.6 0-51.2 7.68-71.68 23.040-30.72 23.040-76.8 23.040-107.52 0-43.52-33.28-102.4-33.28-145.92 0-30.72 23.040-76.8 23.040-107.52 0-43.52-33.28-102.4-33.28-145.92 0-15.36 12.8-33.28 17.92-53.76 17.92-10.24 0-17.92 7.68-17.92 17.92s7.68 17.92 17.92 17.92c25.6 0 51.2-7.68 71.68-23.040 30.72-23.040 76.8-23.040 107.52 0 43.52 33.28 102.4 33.28 145.92 0 30.72-23.040 76.8-23.040 107.52 0 43.52 33.28 102.4 33.28 145.92 0 15.36-12.8 33.28-17.92 53.76-17.92 10.24 0 15.36-7.68 15.36-17.92s-7.68-17.92-15.36-17.92zM284.16 345.6v0 0zM657.92 563.2c-2.56 15.36-17.92 28.16-35.84 25.6h-337.92c-2.56 0-7.68 0-10.24 0-17.92-2.56-28.16-17.92-25.6-35.84v-23.040c0 0 0 0 2.56 0 17.92 0 38.4-7.68 51.2-20.48 7.68-7.68 17.92-12.8 28.16-12.8s20.48 5.12 28.16 12.8c28.16 28.16 71.68 28.16 99.84 0v0c7.68-7.68 17.92-12.8 28.16-12.8s20.48 5.12 28.16 12.8c28.16 28.16 71.68 28.16 99.84 0v0c7.68-7.68 17.92-12.8 28.16-12.8 2.56 0 7.68-5.12 7.68-12.8s-2.56-15.36-7.68-20.48c-17.92 0-38.4 7.68-51.2 20.48-7.68 7.68-17.92 12.8-28.16 12.8s-20.48-5.12-28.16-12.8c-28.16-28.16-71.68-28.16-99.84 0v0c-7.68 7.68-17.92 12.8-28.16 12.8s-20.48-5.12-28.16-12.8c-28.16-28.16-71.68-28.16-99.84 0v0c-7.68 7.68-17.92 12.8-28.16 12.8 0 0 0 2.56-2.56 2.56v-120.32c0-2.56 0-7.68 0-10.24 2.56-15.36 17.92-25.6 33.28-25.6h340.48c2.56 0 7.68 0 10.24 0 15.36 2.56 25.6 17.92 23.040 35.84v174.080c2.56 5.12 2.56 7.68 2.56 10.24zM358.4 573.44c-7.68 0-7.68 5.12-7.68 12.8v69.12c0 7.68 0 10.24 7.68 10.24s12.8-5.12 15.36-12.8v-64c-2.56-10.24-5.12-15.36-15.36-15.36v0zM394.24 706.56c-2.56 2.56-5.12 7.68-7.68 12.8-5.12 5.12-7.68 12.8-12.8 20.48 0 7.68-5.12 12.8-12.8 12.8-5.12 0-12.8-2.56-15.36-7.68-2.56 0-2.56-2.56-5.12-5.12-5.12-10.24-10.24-17.92-12.8-30.72-5.12-20.48 2.56-43.52 20.48-56.32l7.68-5.12 2.56-71.68 5.12 76.8c15.36 5.12 25.6 17.92 30.72 30.72 2.56 10.24 0 17.92 0 23.040zM363.52 683.52c-5.12 7.68-5.12 17.92-2.56 25.6v0c2.56-2.56 2.56-5.12 5.12-7.68s5.12-7.68 7.68-10.24c-2.56-2.56-5.12-5.12-10.24-7.68zM563.2 578.56c-7.68 0-7.68 5.12-7.68 12.8v66.56c0 7.68 0 10.24 7.68 10.24s15.36-2.56 15.36-10.24v-69.12c-2.56-7.68-7.68-12.8-15.36-10.24v0 0zM596.48 706.56c-2.56 5.12-5.12 7.68-7.68 12.8-5.12 5.12-7.68 12.8-12.8 20.48 0 7.68-5.12 12.8-12.8 12.8-5.12 0-12.8-2.56-15.36-7.68-2.56 0-2.56-2.56-5.12-5.12-5.12-10.24-10.24-17.92-12.8-30.72-5.12-20.48 2.56-43.52 20.48-56.32l7.68-5.12 2.56-71.68 5.12 76.8c15.36 5.12 25.6 17.92 30.72 30.72 5.12 10.24 5.12 17.92 0 23.040zM560.64 680.96c-7.68 10.24-7.68 25.6-2.56 38.4v0c2.56-2.56 5.12-5.12 7.68-10.24 5.12-5.12 7.68-10.24 10.24-15.36-5.12-5.12-7.68-10.24-15.36-12.8zM460.8 570.88c-7.68 0-7.68 0-7.68 12.8v92.16c0 10.24 0 23.040 7.68 23.040 10.24-2.56 15.36-12.8 15.36-23.040v-92.16c-2.56-12.8-7.68-12.8-15.36-12.8v0zM458.24 588.8c-2.56-12.8-2.56-25.6 2.56-35.84 5.12 2.56 7.68 7.68 10.24 12.8-2.56 5.12-5.12 7.68-7.68 12.8s-2.56 7.68-5.12 10.24v0 0zM494.080 750.080c-2.56 5.12-5.12 10.24-7.68 17.92-5.12 7.68-10.24 17.92-12.8 28.16 0 7.68-2.56 17.92-12.8 20.48-7.68 0-12.8-2.56-15.36-10.24 0-5.12-2.56-7.68-2.56-10.24-5.12-12.8-10.24-28.16-12.8-40.96-7.68-28.16 2.56-58.88 20.48-79.36l7.68-7.68 2.56-99.84 5.12 107.52c15.36 10.24 25.6 25.6 30.72 43.52 2.56 10.24 2.56 20.48-2.56 30.72zM460.8 698.88c-7.68 17.92-10.24 40.96-5.12 61.44v0c2.56-5.12 5.12-10.24 7.68-15.36 5.12-10.24 7.68-17.92 10.24-23.040-2.56-10.24-7.68-17.92-12.8-23.040z" />
<glyph unicode="&#xe955;" glyph-name="my-tel" horiz-adv-x="680" d="M58.255 960v0c-32.173 0-58.255-26.081-58.255-58.255v-907.316c0-32.173 26.081-58.255 58.255-58.255h563.118c32.173 0 58.255 26.081 58.255 58.255v907.316c0 32.173-26.081 58.255-58.255 58.255h-563.118zM211.115 410.804l228.242 131.452 27.729-47.944-228.242-131.422zM230.863 529.935l84.061 48.41 27.758-47.914-84.091-48.439zM211.115 410.804l228.242 131.452 27.729-47.944-228.242-131.422zM230.863 529.935l84.061 48.41 27.758-47.914-84.091-48.439zM230.863 529.935l84.061 48.41 27.758-47.914-84.091-48.439zM262.146 930.873h233.019c16.087 0 29.127-13.041 29.127-29.127s-13.041-29.127-29.127-29.127v0h-233.019c-16.087 0-29.127 13.041-29.127 29.127s13.041 29.127 29.127 29.127v0zM174.764 930.873c16.087 0 29.127-13.041 29.127-29.127s-13.041-29.127-29.127-29.127c-16.087 0-29.127 13.041-29.127 29.127v0c0 16.087 13.041 29.127 29.127 29.127v0z" />
<glyph unicode="&#xe956;" glyph-name="my-user" horiz-adv-x="819" d="M409.6-64c-226.236 0-409.6 79.735-409.6 178.074s183.364 178.108 409.6 178.108 409.6-79.735 409.6-178.108-183.398-178.074-409.6-178.074zM393.83 329.865h-0.004c0.024 0 0.048 0 0.072 0 173.979 0 315.017 141.038 315.017 315.017 0 0.012 0 0.024 0 0.034v-0.002c0 0.012 0 0.024 0 0.036 0 174.017-141.068 315.085-315.085 315.085s-315.085-141.068-315.085-315.085c0-174.017 141.068-315.085 315.085-315.085zM496.23 613.41c-13.045 0-23.62 10.575-23.62 23.62v0 126.054c0.497 12.672 10.889 22.756 23.637 22.756s23.141-10.084 23.636-22.711l0.001-0.045v-126.054c0 0 0 0 0 0 0-13.045-10.575-23.62-23.62-23.62-0.012 0-0.024 0-0.036 0h0.002zM306.039 613.649c-12.494 0.562-22.415 10.806-22.46 23.377v126.058c0 13.045 10.575 23.62 23.62 23.62s23.62-10.575 23.62-23.62v0-126.054c-0.105-2.551-0.609-4.954-1.452-7.19l0.052 0.158c-8.932-4.599-16.621-10.043-23.442-16.406l0.061 0.056zM393.83 471.62c47.086 0.466 87.417 28.901 105.215 69.467l0.292 0.745c3.004-6.758 4.761-14.64 4.779-22.931v-0.007c0-43.52-49.357-78.78-110.285-78.78s-110.251 35.26-110.251 78.78c0.018 8.297 1.775 16.18 4.925 23.309l-0.146-0.371c18.084-41.301 58.4-69.732 105.411-70.212h0.061z" />
<glyph unicode="&#xe96c;" glyph-name="clock" d="M896 738.133h-8.533v-8.533c0-9.426-7.641-17.067-17.067-17.067s-17.067 7.641-17.067 17.067v0 8.533h-8.533c-9.426 0-17.067 7.641-17.067 17.067s7.641 17.067 17.067 17.067v0h8.533v8.533c0 9.426 7.641 17.067 17.067 17.067s17.067-7.641 17.067-17.067v0-8.533h8.533c9.426 0 17.067-7.641 17.067-17.067s-7.641-17.067-17.067-17.067v0zM742.4 789.333c-9.426 0-17.067 7.641-17.067 17.067s7.641 17.067 17.067 17.067c9.426 0 17.067-7.641 17.067-17.067v0c0-9.426-7.641-17.067-17.067-17.067v0zM861.867 448c0-207.365-168.102-375.467-375.467-375.467s-375.467 168.102-375.467 375.467v0c0.035 29.893 3.61 58.935 10.329 86.75l-0.515-2.526c-0.778 1.57-1.247 3.414-1.28 5.365v0.011c0.028 4.028 1.95 7.601 4.919 9.877l0.030 0.022c-0.015 0.217-0.023 0.47-0.023 0.725s0.008 0.508 0.025 0.76l-0.002-0.034 0.939-0.597c1.928 1.284 4.296 2.048 6.844 2.048 0.024 0 0.048 0 0.072 0h-0.004c0.025 0 0.056 0 0.086 0 6.992 0 12.666-5.644 12.714-12.625v-0.005c1.024-0.427 1.877-0.939 2.816-1.28-7.221-26.544-11.369-57.021-11.369-88.466 0-193.226 156.641-349.867 349.867-349.867s349.867 156.641 349.867 349.867c0 193.226-156.641 349.867-349.867 349.867-60.521 0-117.452-15.367-167.106-42.411l1.835 0.915-1.536 1.877c-2.179-1.806-5.004-2.901-8.085-2.901-7.022 0-12.715 5.693-12.715 12.715 0 7.014 5.68 12.702 12.691 12.715h1.11c50.429 26.876 110.283 42.66 173.824 42.66 207.362 0 375.463-168.098 375.467-375.46v0zM302.336 571.136c2.302 2.308 5.486 3.736 9.003 3.736s6.701-1.428 9.002-3.736v0l149.589-149.419c4.81 2.324 10.46 3.682 16.427 3.682s11.617-1.358 16.657-3.782l-0.231 0.1 149.504 149.419c2.322 2.333 5.537 3.777 9.088 3.777 7.082 0 12.822-5.741 12.822-12.822 0-3.53-1.427-6.727-3.735-9.046v0l-149.504-149.504c2.369-4.838 3.755-10.528 3.755-16.541 0-21.161-17.154-38.315-38.315-38.315s-38.315 17.154-38.315 38.315c0 6.014 1.385 11.704 3.855 16.768l-0.1-0.227-149.504 149.504c-2.293 2.325-3.709 5.52-3.709 9.045s1.416 6.72 3.71 9.047l-0.001-0.001zM477.355 378.112c2.302-2.308 5.486-3.736 9.003-3.736s6.701 1.428 9.002 3.736v0c2.129 2.28 3.435 5.35 3.435 8.726 0 7.069-5.731 12.8-12.8 12.8-3.376 0-6.446-1.307-8.733-3.442l0.007 0.007c-1.805-2.514-2.886-5.653-2.886-9.045s1.081-6.531 2.918-9.092l-0.032 0.047zM149.333 567.467c-7.069 0-12.8 5.731-12.8 12.8s5.731 12.8 12.8 12.8c7.069 0 12.8-5.731 12.8-12.8v0c0-7.069-5.731-12.8-12.8-12.8v0zM311.467 755.2c-7.069 0-12.8 5.731-12.8 12.8s5.731 12.8 12.8 12.8c7.069 0 12.8-5.731 12.8-12.8v0c0-7.069-5.731-12.8-12.8-12.8v0zM174.933 607.232c-7.552 5.039-14.021 10.939-19.501 17.675l-0.126 0.159c27.599 50.788 64.676 93.073 109.205 125.815l1.046 0.734c7.777-4.783 14.44-10.441 20.137-16.965l0.087-0.102c-46.582-32.895-84.055-75.637-109.929-125.377l-0.919-1.94zM132.267 524.8c-7.069 0-12.8 5.731-12.8 12.8s5.731 12.8 12.8 12.8c7.069 0 12.8-5.731 12.8-12.8v0c0-7.069-5.731-12.8-12.8-12.8v0z" />
</font>
</defs>
</svg>
