<svg id="组_20" data-name="组 20" xmlns="http://www.w3.org/2000/svg" xmlns:xlink="http://www.w3.org/1999/xlink" viewBox="0 0 70 70"><defs><style>.cls-1{opacity:0.2;isolation:isolate;fill:url(#未命名的渐变);}.cls-2{fill:url(#未命名的渐变_455);}.cls-3{fill:url(#未命名的渐变_545);}.cls-4{fill:url(#未命名的渐变_266);}.cls-5{fill:url(#未命名的渐变_5);}.cls-6{fill:#446f79;}</style><linearGradient id="未命名的渐变" x1="1505.5" y1="4529" x2="1505.5" y2="4485" gradientTransform="translate(-1469 -4470)" gradientUnits="userSpaceOnUse"><stop offset="0" stop-color="#003a48"/><stop offset="1" stop-color="#456f7a"/></linearGradient><linearGradient id="未命名的渐变_455" x1="32.5" y1="60" x2="32.5" y2="14" gradientTransform="matrix(1, 0, 0, -1, 0, 71)" gradientUnits="userSpaceOnUse"><stop offset="0" stop-color="#436f79"/><stop offset="1" stop-color="#043d4b"/></linearGradient><linearGradient id="未命名的渐变_545" x1="45" y1="35" x2="45" xlink:href="#未命名的渐变_455"/><linearGradient id="未命名的渐变_266" x1="45" x2="45" y2="40.55" xlink:href="#未命名的渐变_455"/><linearGradient id="未命名的渐变_5" x1="6.5" y1="36" x2="6.5" y2="42.01" gradientTransform="matrix(1, 0, 0, -1, 0, 71)" gradientUnits="userSpaceOnUse"><stop offset="0" stop-color="#043d4b"/><stop offset="1" stop-color="#446f79"/></linearGradient></defs><title>home</title><path id="圆角矩形_3_拷贝_12" data-name="圆角矩形 3 拷贝 12" class="cls-1" d="M15.9,59H33.3a1.28,1.28,0,0,0,1-1V57a1.28,1.28,0,0,0-1-1c-.8,0-1.9.3-1.9-1s.2-2-1-2H28V52h1s3.8-.4,6.8-7.3c0,0,.9-1.9,1.9-.5a2.88,2.88,0,0,0,.5,2,7,7,0,0,0,1.9,1.5s1.6.3,1.9-.5,3.9-5.9,4.8-6.4.6-1.5.5-2-.2-1,1-1,6.8-.4,8.2-1.5a9,9,0,0,0,1.9-2s.1-.6-1.4,0a13.51,13.51,0,0,1-5.3.5c-1.9-.1-5.2-1.5-5.8-2.9s-.8-1.3-1.4-1.5a9.57,9.57,0,0,1-3.4-2.9A9.88,9.88,0,0,0,35.8,26H31.5V18.9a.88.88,0,0,1,1-.5h1.9V15H14.5v3.5h2.4a1.5,1.5,0,0,1,1,.9V55.1a.89.89,0,0,1-.8,1H15V59ZM38.7,15H58.5v3.4H56.6s-1,.1-1,.5V33.6s-6,1.4-8.2-2.4a2.79,2.79,0,0,0-1.9-1.9c-1.6-.4-3.9-2.2-3.9-3.4v-7s.1-.4-.5-.4H38.7V15Zm0,44H58.5V56.1a8.22,8.22,0,0,1-2.9-1V38.5H54.2a27.34,27.34,0,0,1-4.8,1,8.8,8.8,0,0,1-.5,1.5c-.2.4-4.6,7.3-5.8,8.3,0,0,.4.5-.5.5s-1,5.4-1,5.4-2,.4-2.9.5V59Z"/><path class="cls-2" d="M54,31.4a13.23,13.23,0,0,1-5.6.5c-1.9-.1-5.4-1.6-6.1-3.1A2.7,2.7,0,0,0,40.5,27a8.62,8.62,0,0,1-3-3,17.58,17.58,0,0,0-6-1h-4V16a1.08,1.08,0,0,1,1-1h2V11H9.5v4h3a1.28,1.28,0,0,1,1,1V53a.89.89,0,0,1-.8,1H10.5v3H29.2s1.3-.2,1.3-1V55a1.08,1.08,0,0,0-1-1c-.7,0-2,.3-2-1s.2-2-1-2h-3V50h1s3.9-.7,7-8a1.06,1.06,0,0,1,1.5-.5,1.21,1.21,0,0,1,.5.5,7.5,7.5,0,0,0,1,2,3,3,0,0,0,2,1s1.7-.2,2-1,3.9-5.4,4.9-5.9.2-.6.1-1.1-.2-2,1-2,6.5.1,8-1a21.27,21.27,0,0,0,3-3S55.6,30.8,54,31.4ZM29,55h0ZM44.5,33a3.26,3.26,0,0,0-2.3,1,4.69,4.69,0,0,0-.8,3,33.94,33.94,0,0,0-4.6,5.8c-.1,0-.3.1-.4.1a.76.76,0,0,1-.4-.2,6.11,6.11,0,0,1-.7-1.4v-.2a3.14,3.14,0,0,0-2.8-1.8,3.08,3.08,0,0,0-2.8,1.8c-2.3,5.4-4.9,6.6-5.5,6.8H21.5v5h4a2.82,2.82,0,0,0,.7,2H14.8a2.7,2.7,0,0,0,.7-2.1V15.5l-.1-.2A3.6,3.6,0,0,0,13,12.9l-.2.1H28.4a3,3,0,0,0-2.9,2.9v9.3l2.2-.2h3.9a14.26,14.26,0,0,1,4.6.7,12.19,12.19,0,0,0,3.3,3.1l.2.1.2.1a1.21,1.21,0,0,1,.5.5v.1l.1.1c.7,1.4,2.4,2.5,4.1,3.3Z"/><path class="cls-3" d="M52.5,36h-6s-.9,1.7-1.1,2.1-4.8,7.7-6.1,8.7c0,0,.2.3-.7.3s-.1,5.9-.1,5.9h-4v4h21V53.9a8.47,8.47,0,0,1-3-.9ZM43.3,55l-2.9-2.9c-.1-1-.2-2.4-.2-3.3a2.42,2.42,0,0,0,.9-.8v-.1A65.17,65.17,0,0,0,47.2,39l.5-1h2.8V53.8l.6.6a5.55,5.55,0,0,0,.8.6Z"/><path class="cls-4" d="M34.5,11v4h3.1a.92.92,0,0,1,.9,1v6c0,1.3,2.3,3.6,4,4a1.69,1.69,0,0,1,1.4,1.9c2.3,4,8.6,2.1,8.6,2.1V16a2.41,2.41,0,0,1,1-1h2V11Zm18.1,2.2a4.36,4.36,0,0,0-1.9,1.9l-.2.4V28.3a5.28,5.28,0,0,1-1.3.1q-2.4,0-3.3-1.2A3.61,3.61,0,0,0,43,24a5.2,5.2,0,0,1-2.4-2.2V16.1a2.88,2.88,0,0,0-.7-2,2.61,2.61,0,0,0-2-1H53.1Z"/><path class="cls-5" d="M6.5,29l-3,3,3,3,3-3ZM4.9,32l1.6-1.6L8.1,32,6.5,33.6Z"/><path class="cls-6" d="M62.5,18a4,4,0,1,0,4,4A4,4,0,0,0,62.5,18Zm0,7a3,3,0,1,1,3-3A2.95,2.95,0,0,1,62.5,25Z"/></svg>