<svg id="组_20" data-name="组 20" xmlns="http://www.w3.org/2000/svg" xmlns:xlink="http://www.w3.org/1999/xlink" viewBox="0 0 70 70"><defs><style>.cls-1{opacity:0.3;fill:url(#未命名的渐变_12);}.cls-1,.cls-3{isolation:isolate;}.cls-2{fill:none;stroke-width:2px;stroke:url(#未命名的渐变_11);}.cls-3{opacity:0.8;fill:url(#未命名的渐变_3);}.cls-4{fill:#b3b3b3;}.cls-5{fill:#cecece;}</style><linearGradient id="未命名的渐变_12" x1="1972.5" y1="4537.5" x2="1972.5" y2="4491.5" gradientTransform="translate(-1935 -4478)" gradientUnits="userSpaceOnUse"><stop offset="0" stop-color="#b3b3b3"/><stop offset="0" stop-color="#b3b3b3"/><stop offset="1" stop-color="#e0e0e0"/></linearGradient><linearGradient id="未命名的渐变_11" x1="1968.5" y1="4534.5" x2="1968.5" y2="4488.5" gradientTransform="translate(-1935 -4478)" gradientUnits="userSpaceOnUse"><stop offset="0" stop-color="#969696"/><stop offset="1" stop-color="#d3d3d3"/></linearGradient><linearGradient id="未命名的渐变_3" x1="1967.5" y1="4503.5" x2="1967.5" y2="4497.5" gradientTransform="translate(-1935 -4478)" gradientUnits="userSpaceOnUse"><stop offset="0" stop-color="#b3b3b3"/><stop offset="1" stop-color="#ececec"/></linearGradient></defs><title>home</title><path id="圆角矩形_3_拷贝_12" data-name="圆角矩形 3 拷贝 12" class="cls-1" d="M37,13.5A14.45,14.45,0,1,1,22.6,28h0A14.43,14.43,0,0,1,37,13.5Zm.5,30c10.2,0,18.5,3.6,18.5,8s-8.3,8-18.5,8S19,55.9,19,51.5,27.3,43.5,37.5,43.5Z"/><path id="圆角矩形_3_拷贝_12-2" data-name="圆角矩形 3 拷贝 12-2" class="cls-2" d="M33,10.5A14.45,14.45,0,1,1,18.6,25h0A14.43,14.43,0,0,1,33,10.5Zm.5,30c10.2,0,18.5,3.6,18.5,8s-8.3,8-18.5,8S15,52.9,15,48.5,23.3,40.5,33.5,40.5Z"/><path id="圆角矩形_21_拷贝" data-name="圆角矩形 21 拷贝" class="cls-3" d="M37,25.5a2,2,0,0,1-2-2v-2a2,2,0,0,1,4,0v2A2,2,0,0,1,37,25.5Zm-9,0a2,2,0,0,1-2-2v-2a2,2,0,0,1,4,0v2A2,2,0,0,1,28,25.5Z"/><path id="椭圆_5_拷贝" data-name="椭圆 5 拷贝" class="cls-4" d="M32.5,29.5A3.42,3.42,0,0,0,35.8,27a3.5,3.5,0,1,1-6.6,0A3.42,3.42,0,0,0,32.5,29.5Z"/><circle id="椭圆_6_拷贝_2" data-name="椭圆 6 拷贝 2" class="cls-4" cx="51" cy="22.5" r="1"/><path id="椭圆_6_拷贝_2-2" data-name="椭圆 6 拷贝 2-2" class="cls-4" d="M54,16.5c0,.6-.7,1.1-1.7,1.3-.3,1-.8,1.7-1.3,1.7s-1.1-.7-1.3-1.7c-1-.2-1.7-.7-1.7-1.3s.7-1.1,1.7-1.3c.2-1,.7-1.7,1.3-1.7s1.1.7,1.3,1.7C53.3,15.4,54,15.9,54,16.5Z"/><path id="形状_1_拷贝" data-name="形状 1 拷贝" class="cls-4" d="M16,26.1a1.73,1.73,0,0,0,1-.1,1.18,1.18,0,0,0-1-.1,1.56,1.56,0,0,0,.8-.6,1.78,1.78,0,0,0-1,.4,1.8,1.8,0,0,0,.4-.9,1.41,1.41,0,0,0-.6.7,1.73,1.73,0,0,0-.1-1,.52.52,0,0,1,.2.8.62.62,0,0,1-.7.2.52.52,0,0,1-.2-.8h0a.58.58,0,0,1,.6.6.53.53,0,0,1-.6.6.58.58,0,0,1-.6-.6h0a.58.58,0,1,1-.2.8h0a1.73,1.73,0,0,0,1,.1,1.56,1.56,0,0,0-.8.6,1.27,1.27,0,0,0,.9-.4,1.8,1.8,0,0,0-.4.9,1.78,1.78,0,0,0,.7-.8,1.73,1.73,0,0,0,.1,1,1.73,1.73,0,0,0,.1-1,1.56,1.56,0,0,0,.6.8,1.27,1.27,0,0,0-.4-.9,1.78,1.78,0,0,0,1,.4A1.78,1.78,0,0,0,16,26.1Z"/><path id="形状_1_拷贝-2" data-name="形状 1 拷贝" class="cls-5" d="M15.9,26.2a2.3,2.3,0,0,0,1.4-.2,2.2,2.2,0,0,0-1.4-.2A4.44,4.44,0,0,0,17,25a.85.85,0,0,1-.7.8c-.4.1-.8-.4-.8-.8a.85.85,0,0,1,.7-.8h0a2.1,2.1,0,0,0-.8,1.1,2.3,2.3,0,0,0-.2-1.4,2.2,2.2,0,0,0-.2,1.4.71.71,0,1,0-1,0,.62.62,0,0,0,.7.2,1.29,1.29,0,0,0-1.1-.5,1.78,1.78,0,0,0,1.1.8,1.91,1.91,0,0,0-1.3.2,2,2,0,0,0,1.3.2,2.84,2.84,0,0,0-1.1.8,2.11,2.11,0,0,0,1.3-.5,1.56,1.56,0,0,0-.6,1.2,2.1,2.1,0,0,0,.8-1.1,2.3,2.3,0,0,0,.2,1.4,2.2,2.2,0,0,0,.2-1.4,2.1,2.1,0,0,0,.8,1.1,2.11,2.11,0,0,0-.5-1.3.73.73,0,1,0,.9-.5A1.14,1.14,0,0,0,15.9,26.2Z"/></svg>