<svg id="组_20" data-name="组 20" xmlns="http://www.w3.org/2000/svg" xmlns:xlink="http://www.w3.org/1999/xlink" viewBox="0 0 70 70"><defs><style>.cls-1{opacity:0.3;isolation:isolate;fill:url(#未命名的渐变);}.cls-2{fill:none;stroke-width:2px;stroke:url(#未命名的渐变_546);}.cls-3{fill:url(#未命名的渐变_546-2);}.cls-4{fill:#31606b;}.cls-5{fill:#20535f;}.cls-6{fill:#174c59;}.cls-7{fill:#31606c;}</style><linearGradient id="未命名的渐变" x1="1047.46" y1="4537.5" x2="1047.46" y2="4491.5" gradientTransform="translate(-1009.56 -4478)" gradientUnits="userSpaceOnUse"><stop offset="0" stop-color="#003a48"/><stop offset="1" stop-color="#456f7a"/></linearGradient><linearGradient id="未命名的渐变_546" x1="1043.56" y1="4534.53" x2="1043.56" y2="4488.5" gradientTransform="translate(-1009.56 -4478)" gradientUnits="userSpaceOnUse"><stop offset="0" stop-color="#043d4b"/><stop offset="1" stop-color="#436e78"/></linearGradient><linearGradient id="未命名的渐变_546-2" x1="1042.56" y1="4503.5" x2="1042.56" y2="4497.5" xlink:href="#未命名的渐变_546"/></defs><title>home</title><path id="圆角矩形_3_拷贝_12" data-name="圆角矩形 3 拷贝 12" class="cls-1" d="M37.5,13.5A14.45,14.45,0,1,1,23.2,28.1v-.2A14.32,14.32,0,0,1,37.5,13.5Zm.4,30c10.1,0,18.3,3.6,18.3,8s-8.2,8-18.3,8-18.3-3.5-18.3-8,8.2-8,18.3-8Z"/><path id="圆角矩形_3_拷贝_12-2" data-name="圆角矩形 3 拷贝 12-2" class="cls-2" d="M33.5,10.5A14.45,14.45,0,1,1,19.2,25.1v-.2A14.45,14.45,0,0,1,33.5,10.5Zm.5,30c10.1,0,18.3,3.6,18.3,8s-8.2,8-18.3,8-18.3-3.6-18.3-8S23.9,40.5,34,40.5Z"/><path id="圆角矩形_21_拷贝" data-name="圆角矩形 21 拷贝" class="cls-3" d="M28.5,19.5a2,2,0,0,1,2,2h0v2a2,2,0,0,1-4,0v-2a2.15,2.15,0,0,1,2-2Zm9,0a2,2,0,0,1,2,2h0v2a2,2,0,0,1-4,0h0v-2a2,2,0,0,1,2-2Z"/><path id="椭圆_5_拷贝" data-name="椭圆 5 拷贝" class="cls-4" d="M33,29.5A3.42,3.42,0,0,0,36.3,27a3.48,3.48,0,1,1-6.8,1h0a3.55,3.55,0,0,1,.2-1A3.42,3.42,0,0,0,33,29.5Z"/><circle id="椭圆_6_拷贝_2" data-name="椭圆 6 拷贝 2" class="cls-5" cx="51.3" cy="22.5" r="1"/><path id="椭圆_6_拷贝_2-2" data-name="椭圆 6 拷贝 2-2" class="cls-6" d="M51.3,13.5c.8,0,1.5,1.4,1.5,3s-.7,3-1.5,3-1.5-1.4-1.5-3S50.5,13.5,51.3,13.5Zm0,1.5c1.6,0,3,.7,3,1.5S53,18,51.3,18s-3-.7-3-1.5S49.7,15,51.3,15Z"/><path id="形状_1_拷贝" data-name="形状 1 拷贝" class="cls-7" d="M16.3,26.7a2.3,2.3,0,0,0,1.4-.2,2.2,2.2,0,0,0-1.4-.2,4.44,4.44,0,0,0,1.1-.8.85.85,0,0,1-.7.8c-.4.1-.8-.4-.8-.8a.85.85,0,0,1,.7-.8h0a2.1,2.1,0,0,0-.8,1.1,2.3,2.3,0,0,0-.2-1.4,2.2,2.2,0,0,0-.2,1.4.71.71,0,1,0-1,0,.62.62,0,0,0,.7.2,1.29,1.29,0,0,0-1.1-.5,1.78,1.78,0,0,0,1.1.8,1.91,1.91,0,0,0-1.3.2,2,2,0,0,0,1.3.2,2.84,2.84,0,0,0-1.1.8,2.11,2.11,0,0,0,1.3-.5,1.56,1.56,0,0,0-.6,1.2,2.1,2.1,0,0,0,.8-1.1,2.3,2.3,0,0,0,.2,1.4,2.2,2.2,0,0,0,.2-1.4,2.1,2.1,0,0,0,.8,1.1,2.11,2.11,0,0,0-.5-1.3.73.73,0,1,0,.9-.5A1.14,1.14,0,0,0,16.3,26.7Z"/></svg>