<svg id="组_20" data-name="组 20" xmlns="http://www.w3.org/2000/svg" xmlns:xlink="http://www.w3.org/1999/xlink" viewBox="0 0 100 100"><defs><style>.cls-1{opacity:0.2;isolation:isolate;fill:url(#未命名的渐变);}.cls-2{fill:url(#未命名的渐变_546);}</style><linearGradient id="未命名的渐变" x1="55.9" y1="-406.33" x2="55.9" y2="-334.33" gradientTransform="matrix(1, 0, 0, -1, 0, -317.33)" gradientUnits="userSpaceOnUse"><stop offset="0" stop-color="#003a48"/><stop offset="1" stop-color="#456f7a"/></linearGradient><linearGradient id="未命名的渐变_546" x1="612.97" y1="-3699.33" x2="612.97" y2="-3625.34" gradientTransform="matrix(1, 0, 0, -1, -562.97, -3614.33)" gradientUnits="userSpaceOnUse"><stop offset="0" stop-color="#043d4b"/><stop offset="1" stop-color="#436e78"/></linearGradient></defs><title>home</title><circle id="椭圆_7_拷贝" data-name="椭圆 7 拷贝" class="cls-1" cx="55.9" cy="52.99" r="36"/><path id="圆角矩形_685_拷贝_2" data-name="圆角矩形 685 拷贝 2" class="cls-2" d="M92,72.53a2.29,2.29,0,0,1,.15.8l.07,9.13a2.38,2.38,0,0,1-2.37,2.39L72.92,85a2.38,2.38,0,0,1-2.41-2.34l-.07-9.14a2.32,2.32,0,0,1,.14-.8,2.37,2.37,0,0,1-1.7-2.24l0-3A2.38,2.38,0,0,1,71.22,65h.87a3.48,3.48,0,0,1-.59-2.1,2.59,2.59,0,0,1,1.26-2,3.69,3.69,0,0,1,3-.39,10.94,10.94,0,0,1,5.5,3.89,11,11,0,0,1,5.44-4,3.71,3.71,0,0,1,3,.34,2.59,2.59,0,0,1,1.29,1.95,3.47,3.47,0,0,1-.56,2.1h.87a2.38,2.38,0,0,1,2.41,2.34l0,3.05A2.37,2.37,0,0,1,92,72.53ZM75.32,62.22a2,2,0,0,0-1.62.15.92.92,0,0,0-.51.7,3.21,3.21,0,0,0,1,1.94l5.2,0A8.94,8.94,0,0,0,75.32,62.22Zm5.06,4.43-9.15.07a.68.68,0,0,0-.68.68h0l0,3a.69.69,0,0,0,.69.68l9.15-.08Zm0,6.09-7.61.06a.68.68,0,0,0-.68.68h0l.07,9.14a.69.69,0,0,0,.69.68l7.61-.06Zm1.79,10.48,7.61-.06a.68.68,0,0,0,.68-.68h0l-.07-9.14a.69.69,0,0,0-.69-.68l-7.62.06Zm6.48-21a2,2,0,0,0-1.62-.13A9,9,0,0,0,83,64.94l5.21,0a3.22,3.22,0,0,0,1-1.95A.9.9,0,0,0,88.7,62.25Zm3.23,5a.69.69,0,0,0-.69-.68l-9.15.07,0,4.41L91.28,71a.69.69,0,0,0,.68-.69Zm-.71-28.18A.14.14,0,0,1,91,39l-.89-1.53a.15.15,0,0,1,0-.22l0,0a1.31,1.31,0,0,0,.49-1.67c-.26-.69-.55-1.37-.86-2-.44-1-.91-1.92-1.41-2.86l-.46-.83c-.25-.45-.49-.9-.76-1.34s-.67-1.13-1-1.68A45.09,45.09,0,0,0,83,22.38a2.43,2.43,0,0,0-.37-.38,1.31,1.31,0,0,0-1.44-.18.16.16,0,0,1-.23,0l0,0L80,20.21c0-.08-.07-.15,0-.21a4.65,4.65,0,0,1,1.45-.47,2.15,2.15,0,0,1,1.88.6,17.09,17.09,0,0,1,1.56,1.81c.54.69,1,1.4,1.54,2.12.32.47.63,1,.95,1.43.5.72.93,1.48,1.37,2.23.26.45.54.9.79,1.36q.6,1.1,1.15,2.22c.31.64.62,1.28.91,1.92a26.39,26.39,0,0,1,1.05,2.71A2.29,2.29,0,0,1,92,38.44,7.68,7.68,0,0,1,91.22,39.06ZM80.16,22.33l-1.4.8a.22.22,0,0,1-.31,0l0-.06-.81-1.39a.21.21,0,0,1,0-.29l0,0,.72-.41.7-.4a.22.22,0,0,1,.31,0l0,.06.8,1.38a.21.21,0,0,1,0,.3Zm-2.48,1.41L75.1,25.22l-2.52,1.44-.15.08a.2.2,0,0,1-.27-.07v0c-.28-.47-.55-.94-.83-1.42-.09-.14-.05-.23.11-.32l2.18-1.25,3-1.72c.22-.12.28-.11.41.11l.76,1.3C77.91,23.56,77.89,23.62,77.68,23.74ZM89.61,38l.74,1.27c.13.21.1.3-.11.42L82.64,44c-.22.13-.3.1-.43-.11l-.75-1.29c-.12-.2-.1-.27.1-.39L85.38,40l3.8-2.16C89.41,37.75,89.48,37.77,89.61,38Zm-5-8.58.72,1.23c.15.25.13.33-.13.47L80,34.06l-2.37,1.35c-.25.14-.32.12-.47-.12L76.44,34a.25.25,0,0,1,.11-.42l3.8-2.17,3.76-2.14C84.37,29.14,84.45,29.16,84.6,29.41Zm-11.19-1a1.21,1.21,0,0,1,.66-1.22L79.77,24a1.39,1.39,0,0,1,1.46,0,2.82,2.82,0,0,1,.9.82,6.14,6.14,0,0,1,1,2,2.3,2.3,0,0,1,.1.94,1.28,1.28,0,0,1-.64,1L76.82,32a1.37,1.37,0,0,1-1.5-.13.2.2,0,0,0-.14-.07.31.31,0,0,0,.07.22l.34.59a.22.22,0,0,1,0,.32l-.09.05a5.43,5.43,0,0,1-.5.28.22.22,0,0,1-.31,0l0-.05a10.61,10.61,0,0,1-.58-1,.83.83,0,0,1,.23-1.08c.11-.1.06-.17,0-.26A4.69,4.69,0,0,1,73.41,28.42ZM75.14,30a.47.47,0,0,0,.75.16l2.77-1.59,2.49-1.42c.14-.08.28-.15.42-.24a.34.34,0,0,0,.17-.42,1.32,1.32,0,0,0-.39-.65.41.41,0,0,0-.42-.08l-.21.11-5.46,3.11-.16.1a.4.4,0,0,0-.19.34A.92.92,0,0,0,75.14,30Zm12.59,5.26a.25.25,0,0,1,.34.12v0l.78,1.34c.12.21.07.33-.18.38l-4.45.79-1.31.23a.86.86,0,0,0-.27.11l-2.56,1.46c-.23.13-.28.11-.42-.11l-.74-1.27c-.13-.22-.11-.31.12-.44.67-.38,1.32-.78,2-1.14a4.18,4.18,0,0,0,1.32-1.1c.93-1.12,1.88-2.21,2.82-3.31l.41-.48a.22.22,0,0,1,.41,0l.8,1.36a.25.25,0,0,1,0,.36l0,0c-.7.75-1.39,1.5-2.12,2.23l-.11.11,1.31-.3ZM52.57,57.78a8.49,8.49,0,0,1-3.42-16.29c.05-4,2.47-10.92,2.56-10.92s3.17,6.54,3.4,10.59a8.5,8.5,0,0,1-2.54,16.62Zm0-14.45a5.95,5.95,0,1,0,6,5.95,5.95,5.95,0,0,0-6-5.95h0Zm0,8.5a2.55,2.55,0,1,1,2.57-2.55,2.55,2.55,0,0,1-2.57,2.55h0ZM72.32,22.9a23.34,23.34,0,0,0-9.74-5l-1.1,1.84.14,0-5,16a8.31,8.31,0,0,1,4.13,2.43l8.53-8.77c-.13-.35-.24-.71-.34-1.07a2.12,2.12,0,0,1,.47-2,4.68,4.68,0,0,1,1.09-.94.12.12,0,0,1,.17,0l0,0,.34.58c.2.3.36.68.58,1a.11.11,0,0,1,0,.16l0,0a1.45,1.45,0,0,0-.59.86,1.69,1.69,0,0,0,.12.91c.33.85.69,1.68,1.08,2.5.5,1.07,1.05,2.12,1.64,3.16.44.78.88,1.55,1.34,2.32s.78,1.26,1.2,1.88c.76,1.14,1.56,2.23,2.43,3.29a2.19,2.19,0,0,0,.55.49,1.3,1.3,0,0,0,1.2,0,.17.17,0,0,1,.23,0l0,0c.29.51.6,1,.9,1.51.07.11.07.18-.06.24a4.58,4.58,0,0,1-1.44.46,2.16,2.16,0,0,1-1.84-.58c-.26-.25-.49-.51-.72-.77l-12,3a8.17,8.17,0,0,1,.07,4.76l16.7,3.69c0,.11-.07.21-.1.31l2.16,0a23,23,0,0,0-.08-11.93l7.43-4.27L87,42a35.1,35.1,0,0,1,.69,6.87c0,.07,0,.13,0,.19s0,.16,0,.24a35.44,35.44,0,0,1-1.53,10.3l-.34.06a8.84,8.84,0,0,0-2.86,1.44,32.74,32.74,0,0,0,1.19-3.72l-19.7-5.24a12.65,12.65,0,0,0,0-6.55l12.11-3.22c-.44-.58-.86-1.16-1.28-1.76-.32-.45-.61-.92-.92-1.38-.56-.83-1.08-1.69-1.58-2.56s-1-1.67-1.39-2.54-1-2-1.41-3l-8.83,8.77a12.73,12.73,0,0,0-5.7-3.27l5.2-19.3a33.66,33.66,0,0,0-17.05-.2l5.25,19.5a12.82,12.82,0,0,0-5.7,3.27L28.58,25.44A33.12,33.12,0,0,0,19.65,40.2l20.2,5.38a12.61,12.61,0,0,0,0,6.54l-17,4.53L26.55,63a2.3,2.3,0,0,1-.75,3.17h0l-2,1.16a33.24,33.24,0,0,0,4.36,5.41l15-14.94a12.73,12.73,0,0,0,5.7,3.27L43.37,81.42a34,34,0,0,0,8.38,1.05,33.57,33.57,0,0,0,9.14-1.27L55.44,61.07a12.82,12.82,0,0,0,5.7-3.27l7.36,7.31A2.32,2.32,0,0,0,68,66.58V67l-7.07-7.43a8.34,8.34,0,0,1-4.15,2.38l4.9,16.29-.32.07,1.08,1.85a23.33,23.33,0,0,0,7.18-3.23l0,3.34A36,36,0,0,1,20.49,66.91h0a1.72,1.72,0,0,0-.68,2.25l.16.34-2.8,1.6A2.36,2.36,0,0,1,14,70.18L6.68,57.69a2.3,2.3,0,0,1,.75-3.17h0l2.8-1.6.21.3a1.77,1.77,0,0,0,2.3.53,1.73,1.73,0,0,0,.69-2.24l-.16-.33,2.49-1.43c0-.15,0-.3,0-.45A35.83,35.83,0,0,1,51.71,13.58h.44a35.51,35.51,0,0,1,22.5,8l-3,1.72ZM41.19,80.22l1.11-1.84-.14,0,5.06-16a8.37,8.37,0,0,1-4.12-2.44L31.17,72.12,31,71.88l-1.1,1.84a23.39,23.39,0,0,0,11.34,6.5ZM18.58,52.06l-.19-.33a1.39,1.39,0,0,0-1.87-.57l-2,1.13a2.29,2.29,0,0,1-3.88,2.23l-2,1.14a1.38,1.38,0,0,0-.44,1.9h0l6.6,11.39a1.39,1.39,0,0,0,1.87.57l2-1.13a2.29,2.29,0,0,1,3.89-2.24l2-1.13a1.38,1.38,0,0,0,.43-1.9h0l-4.62-8,1,0,0-.14,16.53-3.27A8.18,8.18,0,0,1,38,47L21.51,42.47c0-.1.08-.2.11-.31l-2.15-.07a22.92,22.92,0,0,0-.89,10ZM42.06,18.14a23.28,23.28,0,0,0-11.26,6.63l1.07,1.86.09-.11L43.51,38.72a8.36,8.36,0,0,1,4.16-2.37l-4.85-16.3.32-.07ZM19.42,64.06l-.91.53-1.77-3.05-2.39,1.37L13.81,62l2.39-1.37-.61-1.06L13.2,60.93,12.66,60l2.13-1.22-3.3-.9.27-1,3.41.94.89-3.41,1,.28L16.23,58l2.13-1.22.53.92L16.5,59l.61,1.05,2.39-1.37.53.92L17.65,61Zm8.33-45.38L26.5,16l-2.16.07,1.76-1.87L26,11l1.25,2.63,2.16-.07L27.7,15.44ZM21.76,79a2.55,2.55,0,1,1-2.57,2.55A2.55,2.55,0,0,1,21.76,79h0Z"/></svg>