<svg id="组_20" data-name="组 20" xmlns="http://www.w3.org/2000/svg" viewBox="0 0 100 100"><defs><style>.cls-1{fill:#ebebeb;}.cls-2{fill:#b3b3b3;}</style></defs><title>home</title><circle id="椭圆_7" data-name="椭圆 7" class="cls-1" cx="56.35" cy="52.99" r="36"/><path id="圆角矩形_685_拷贝" data-name="圆角矩形 685 拷贝" class="cls-2" d="M92,72.53a2.19,2.19,0,0,1,.15.8l.08,9.13a2.39,2.39,0,0,1-2.38,2.39L72.92,85a2.38,2.38,0,0,1-2.41-2.34l-.08-9.14a2.45,2.45,0,0,1,.14-.8,2.36,2.36,0,0,1-1.7-2.24l0-3A2.38,2.38,0,0,1,71.21,65h.87a3.59,3.59,0,0,1-.59-2.1,2.61,2.61,0,0,1,1.26-2,3.71,3.71,0,0,1,3-.39,10.9,10.9,0,0,1,5.49,3.89,11.08,11.08,0,0,1,5.44-4,3.72,3.72,0,0,1,3,.34,2.62,2.62,0,0,1,1.29,1.95,3.49,3.49,0,0,1-.56,2.1h.87a2.38,2.38,0,0,1,2.41,2.34l0,3.05A2.38,2.38,0,0,1,92,72.53ZM75.32,62.22a2,2,0,0,0-1.62.15.93.93,0,0,0-.51.7,3.24,3.24,0,0,0,1,1.94l5.2,0A8.93,8.93,0,0,0,75.32,62.22Zm5.06,4.43-9.15.07a.69.69,0,0,0-.69.69l0,3a.68.68,0,0,0,.69.68h0l9.16-.08Zm.05,6.09-7.61.06a.67.67,0,0,0-.68.67h0l.07,9.14a.68.68,0,0,0,.69.68h0l7.61-.06Zm1.79,10.48,7.61-.06a.67.67,0,0,0,.68-.67h0l-.07-9.14a.68.68,0,0,0-.69-.68h0l-7.62.06Zm6.47-21a2,2,0,0,0-1.61-.13A9,9,0,0,0,83,64.94l5.2,0a3.2,3.2,0,0,0,1-1.95.9.9,0,0,0-.52-.7Zm3.24,5a.7.7,0,0,0-.69-.68l-9.16.07,0,4.41L91.27,71a.69.69,0,0,0,.68-.69Zm-.71-28.18A.15.15,0,0,1,91,39c-.29-.51-.59-1-.89-1.53a.15.15,0,0,1,0-.22l0,0a1.31,1.31,0,0,0,.49-1.67c-.26-.69-.55-1.37-.85-2-.44-1-.91-1.92-1.42-2.86l-.46-.83c-.25-.45-.49-.9-.76-1.34s-.67-1.13-1-1.68A46.08,46.08,0,0,0,83,22.38a2.72,2.72,0,0,0-.38-.38,1.31,1.31,0,0,0-1.44-.18.16.16,0,0,1-.22,0l0,0c-.3-.51-.6-1-.89-1.53-.05-.08-.08-.15,0-.21a4.57,4.57,0,0,1,1.45-.47,2.14,2.14,0,0,1,1.87.6,16.81,16.81,0,0,1,1.57,1.81c.53.69,1,1.4,1.53,2.12.33.47.63,1,.95,1.43.5.72.93,1.48,1.37,2.23.26.45.54.9.79,1.36.39.73.78,1.47,1.14,2.22s.63,1.28.91,1.92a27.15,27.15,0,0,1,1.06,2.71A2.29,2.29,0,0,1,92,38.44a7.71,7.71,0,0,1-.77.62ZM89.61,38l.74,1.27c.12.21.1.3-.11.42L82.64,44c-.22.13-.3.1-.43-.11l-.75-1.29c-.12-.2-.1-.27.1-.39L85.38,40l3.8-2.16c.22-.13.3-.11.43.11Zm-5-8.58.72,1.23c.15.25.13.33-.13.47L80,34.06l-2.37,1.35c-.24.14-.32.12-.46-.12L76.44,34c-.12-.21-.1-.3.11-.42l3.8-2.17,3.77-2.14c.25-.15.33-.13.47.12ZM81.22,24a2.82,2.82,0,0,1,.9.82,6.28,6.28,0,0,1,1.05,2,2.31,2.31,0,0,1,.1.94,1.29,1.29,0,0,1-.64,1L76.81,32a1.35,1.35,0,0,1-1.49-.13.21.21,0,0,0-.14-.07.28.28,0,0,0,.07.22l.34.59a.22.22,0,0,1,0,.32L75.5,33c-.16.1-.33.2-.49.28a.22.22,0,0,1-.31,0l0,0a10.43,10.43,0,0,1-.58-1,.83.83,0,0,1,.23-1.08c.12-.1.06-.17,0-.26a4.72,4.72,0,0,1-.92-2.39,1.22,1.22,0,0,1,.67-1.22L79.76,24a1.4,1.4,0,0,1,1.46,0Zm-6,5-.16.1a.41.41,0,0,0-.19.34,1,1,0,0,0,.23.58.46.46,0,0,0,.75.16l2.77-1.59,2.5-1.42c.14-.08.28-.15.41-.24a.34.34,0,0,0,.17-.42,1.26,1.26,0,0,0-.39-.65.4.4,0,0,0-.42-.08l-.21.11-5.46,3.11Zm3.15-8,.7-.4a.22.22,0,0,1,.31,0l0,.06c.27.46.54.92.8,1.38a.21.21,0,0,1,0,.3l-.07,0-1.41.8a.22.22,0,0,1-.31,0l0-.06c-.28-.46-.55-.93-.81-1.39a.21.21,0,0,1,0-.29l.05,0,.72-.41Zm-1.8,1c.23-.12.28-.11.41.11l.76,1.3c.12.21.11.27-.1.39l-2.59,1.48-2.52,1.44-.15.08a.21.21,0,0,1-.28-.08h0c-.27-.47-.55-.94-.82-1.42-.09-.14-.06-.23.11-.32l2.18-1.25,3-1.72ZM87.72,35.21a.25.25,0,0,1,.34.11v0l.78,1.34c.13.21.07.33-.18.38l-4.44.79-1.31.23a.81.81,0,0,0-.27.11l-2.56,1.46c-.23.13-.28.11-.42-.11-.24-.43-.49-.85-.74-1.27-.13-.22-.1-.31.13-.44.66-.38,1.32-.78,2-1.14a4.24,4.24,0,0,0,1.32-1.1c.93-1.12,1.88-2.21,2.82-3.31l.41-.48a.22.22,0,0,1,.41,0c.27.45.53.91.79,1.36a.25.25,0,0,1,0,.36l0,0c-.7.75-1.4,1.5-2.12,2.23l-.11.11,1.31-.3,1.87-.42ZM52.57,57.78a8.49,8.49,0,0,1-3.42-16.29c.05-4,2.46-10.92,2.56-10.92s3.17,6.54,3.4,10.59a8.49,8.49,0,0,1-2.54,16.62Zm0-14.45a5.95,5.95,0,1,0,6,5.95,5.95,5.95,0,0,0-6-5.95h0Zm0,8.5a2.55,2.55,0,1,1,2.57-2.55,2.55,2.55,0,0,1-2.57,2.55h0ZM72.31,22.9a23.33,23.33,0,0,0-9.74-5l-1.1,1.84.14,0-5,16a8.31,8.31,0,0,1,4.13,2.43l8.53-8.77a10.23,10.23,0,0,1-.34-1.07,2.09,2.09,0,0,1,.47-2,4.63,4.63,0,0,1,1.08-.94.13.13,0,0,1,.18,0l0,0,.34.58c.19.3.35.68.58,1a.12.12,0,0,1,0,.16l0,0a1.44,1.44,0,0,0-.59.86,1.66,1.66,0,0,0,.12.91c.33.85.69,1.68,1.08,2.5.5,1.07,1.05,2.12,1.63,3.16.44.78.89,1.55,1.35,2.32s.78,1.26,1.2,1.88c.75,1.14,1.56,2.23,2.42,3.29a2.2,2.2,0,0,0,.56.49,1.28,1.28,0,0,0,1.19,0,.18.18,0,0,1,.24.05l0,0c.29.51.59,1,.9,1.51.06.11.06.18-.07.24a4.6,4.6,0,0,1-1.43.46,2.18,2.18,0,0,1-1.85-.58c-.25-.25-.49-.51-.72-.77l-12,3a8.14,8.14,0,0,1,.07,4.76l16.7,3.69-.09.31,2.15,0a23,23,0,0,0-.07-11.93l7.42-4.27L87,42a35.33,35.33,0,0,1,.68,6.87v.43a35.4,35.4,0,0,1-1.53,10.3c-.11,0-.22,0-.34.06a8.94,8.94,0,0,0-2.86,1.44,31.59,31.59,0,0,0,1.19-3.72l-19.7-5.24a12.76,12.76,0,0,0,0-6.55l12.11-3.22c-.44-.58-.86-1.16-1.27-1.76-.32-.45-.62-.92-.93-1.38-.56-.83-1.08-1.69-1.58-2.56S71.8,35,71.36,34.12s-1-2-1.4-3l-8.83,8.77a12.71,12.71,0,0,0-5.7-3.27l5.21-19.3a33.66,33.66,0,0,0-17.05-.2l5.25,19.5a12.85,12.85,0,0,0-5.7,3.27L28.57,25.45a33.21,33.21,0,0,0-8.93,14.76l20.21,5.38a12.51,12.51,0,0,0,0,6.54l-17,4.53L26.55,63a2.31,2.31,0,0,1-.76,3.17h0l-2,1.16a32.9,32.9,0,0,0,4.36,5.41L43.16,57.8a12.68,12.68,0,0,0,5.69,3.27L43.36,81.43a34.06,34.06,0,0,0,8.38,1.05,33.5,33.5,0,0,0,9.13-1.27L55.44,61.07a12.8,12.8,0,0,0,5.7-3.27l7.36,7.31A2.3,2.3,0,0,0,68,66.58V67l-7.07-7.43a8.37,8.37,0,0,1-4.15,2.38l4.9,16.29-.32.07,1.08,1.85a23.33,23.33,0,0,0,7.18-3.23l0,3.34A36,36,0,0,1,20.48,66.91h0a1.72,1.72,0,0,0-.68,2.25l.16.34-2.79,1.6A2.36,2.36,0,0,1,14,70.18L6.68,57.69a2.3,2.3,0,0,1,.75-3.17h0l2.79-1.6.22.3a1.76,1.76,0,0,0,2.3.53,1.73,1.73,0,0,0,.69-2.24l-.16-.33,2.5-1.43c0-.15,0-.3,0-.45A35.83,35.83,0,0,1,51.71,13.58h.43a35.5,35.5,0,0,1,22.5,8l5.15-2.95-8.15,4.67ZM41.19,80.22l1.11-1.84-.15,0,5.07-16a8.37,8.37,0,0,1-4.12-2.44L31.17,72.12,31,71.88l-1.1,1.84a23.38,23.38,0,0,0,11.34,6.5ZM18.58,52.06l-.19-.33a1.39,1.39,0,0,0-1.87-.57l-2,1.13a2.29,2.29,0,0,1-3.88,2.23l-2,1.14a1.38,1.38,0,0,0-.44,1.9l6.6,11.39a1.39,1.39,0,0,0,1.87.57l2-1.13a2.29,2.29,0,0,1,3.88-2.24l2-1.13a1.38,1.38,0,0,0,.44-1.9h0l-4.63-8,1,0c0-.05,0-.09,0-.14l16.53-3.27A8.18,8.18,0,0,1,38,47L21.5,42.47a2.83,2.83,0,0,0,.11-.31l-2.15-.07a23,23,0,0,0-.88,10ZM42.06,18.14A23.27,23.27,0,0,0,30.8,24.77l1.07,1.86.1-.11L43.51,38.72a8.34,8.34,0,0,1,4.16-2.37l-4.86-16.3.32-.07ZM19.41,64.06l-.91.53-1.77-3.05-2.39,1.37L13.81,62l2.38-1.37-.61-1.06-2.39,1.38L12.66,60l2.13-1.22-3.3-.9.27-1,3.41.94.89-3.41,1,.28L16.22,58l2.13-1.22.54.92L16.5,59l.61,1.05,2.39-1.37.53.92L17.64,61Zm8.33-45.38L26.49,16l-2.16.07,1.76-1.87L26,11l1.25,2.63,2.16-.07-1.76,1.88ZM21.76,79a2.55,2.55,0,1,1-2.57,2.55A2.55,2.55,0,0,1,21.76,79h0Z"/></svg>